G04 #@! TF.GenerationSoftware,KiCad,Pcbnew,9.0.1*
G04 #@! TF.CreationDate,2025-05-17T15:06:54+00:00*
G04 #@! TF.ProjectId,usb-uart,7573622d-7561-4727-942e-6b696361645f,rev?*
G04 #@! TF.SameCoordinates,Original*
G04 #@! TF.FileFunction,Soldermask,Top*
G04 #@! TF.FilePolarity,Negative*
%FSLAX46Y46*%
G04 Gerber Fmt 4.6, Leading zero omitted, Abs format (unit mm)*
G04 Created by KiCad (PCBNEW 9.0.1) date 2025-05-17 15:06:54*
%MOMM*%
%LPD*%
G01*
G04 APERTURE LIST*
%ADD10R,0.650000X0.400000*%
%ADD11R,1.700000X1.700000*%
%ADD12O,1.700000X1.700000*%
%ADD13C,0.650000*%
%ADD14R,1.450000X0.600000*%
%ADD15R,1.450000X0.300000*%
%ADD16O,2.100000X1.000000*%
%ADD17O,1.600000X1.000000*%
%ADD18R,2.100000X2.100000*%
G04 APERTURE END LIST*
G36*
G01*
X112870000Y-90785000D02*
X112870000Y-90415000D01*
G75*
G02*
X113005000Y-90280000I135000J0D01*
G01*
X113275000Y-90280000D01*
G75*
G02*
X113410000Y-90415000I0J-135000D01*
G01*
X113410000Y-90785000D01*
G75*
G02*
X113275000Y-90920000I-135000J0D01*
G01*
X113005000Y-90920000D01*
G75*
G02*
X112870000Y-90785000I0J135000D01*
G01*
G37*
G36*
G01*
X113890000Y-90785000D02*
X113890000Y-90415000D01*
G75*
G02*
X114025000Y-90280000I135000J0D01*
G01*
X114295000Y-90280000D01*
G75*
G02*
X114430000Y-90415000I0J-135000D01*
G01*
X114430000Y-90785000D01*
G75*
G02*
X114295000Y-90920000I-135000J0D01*
G01*
X114025000Y-90920000D01*
G75*
G02*
X113890000Y-90785000I0J135000D01*
G01*
G37*
G36*
G01*
X125490000Y-85655000D02*
X125490000Y-85995000D01*
G75*
G02*
X125350000Y-86135000I-140000J0D01*
G01*
X125070000Y-86135000D01*
G75*
G02*
X124930000Y-85995000I0J140000D01*
G01*
X124930000Y-85655000D01*
G75*
G02*
X125070000Y-85515000I140000J0D01*
G01*
X125350000Y-85515000D01*
G75*
G02*
X125490000Y-85655000I0J-140000D01*
G01*
G37*
G36*
G01*
X124530000Y-85655000D02*
X124530000Y-85995000D01*
G75*
G02*
X124390000Y-86135000I-140000J0D01*
G01*
X124110000Y-86135000D01*
G75*
G02*
X123970000Y-85995000I0J140000D01*
G01*
X123970000Y-85655000D01*
G75*
G02*
X124110000Y-85515000I140000J0D01*
G01*
X124390000Y-85515000D01*
G75*
G02*
X124530000Y-85655000I0J-140000D01*
G01*
G37*
D10*
X122800000Y-91175000D03*
X122800000Y-91825000D03*
X122800000Y-92475000D03*
X124700000Y-92475000D03*
X124700000Y-91825000D03*
X124700000Y-91175000D03*
G36*
G01*
X112125000Y-90343750D02*
X112125000Y-90856250D01*
G75*
G02*
X111906250Y-91075000I-218750J0D01*
G01*
X111468750Y-91075000D01*
G75*
G02*
X111250000Y-90856250I0J218750D01*
G01*
X111250000Y-90343750D01*
G75*
G02*
X111468750Y-90125000I218750J0D01*
G01*
X111906250Y-90125000D01*
G75*
G02*
X112125000Y-90343750I0J-218750D01*
G01*
G37*
G36*
G01*
X110550000Y-90343750D02*
X110550000Y-90856250D01*
G75*
G02*
X110331250Y-91075000I-218750J0D01*
G01*
X109893750Y-91075000D01*
G75*
G02*
X109675000Y-90856250I0J218750D01*
G01*
X109675000Y-90343750D01*
G75*
G02*
X109893750Y-90125000I218750J0D01*
G01*
X110331250Y-90125000D01*
G75*
G02*
X110550000Y-90343750I0J-218750D01*
G01*
G37*
G36*
G01*
X125510000Y-77720000D02*
X125510000Y-78060000D01*
G75*
G02*
X125370000Y-78200000I-140000J0D01*
G01*
X125090000Y-78200000D01*
G75*
G02*
X124950000Y-78060000I0J140000D01*
G01*
X124950000Y-77720000D01*
G75*
G02*
X125090000Y-77580000I140000J0D01*
G01*
X125370000Y-77580000D01*
G75*
G02*
X125510000Y-77720000I0J-140000D01*
G01*
G37*
G36*
G01*
X124550000Y-77720000D02*
X124550000Y-78060000D01*
G75*
G02*
X124410000Y-78200000I-140000J0D01*
G01*
X124130000Y-78200000D01*
G75*
G02*
X123990000Y-78060000I0J140000D01*
G01*
X123990000Y-77720000D01*
G75*
G02*
X124130000Y-77580000I140000J0D01*
G01*
X124410000Y-77580000D01*
G75*
G02*
X124550000Y-77720000I0J-140000D01*
G01*
G37*
G36*
G01*
X121315000Y-91045000D02*
X121685000Y-91045000D01*
G75*
G02*
X121820000Y-91180000I0J-135000D01*
G01*
X121820000Y-91450000D01*
G75*
G02*
X121685000Y-91585000I-135000J0D01*
G01*
X121315000Y-91585000D01*
G75*
G02*
X121180000Y-91450000I0J135000D01*
G01*
X121180000Y-91180000D01*
G75*
G02*
X121315000Y-91045000I135000J0D01*
G01*
G37*
G36*
G01*
X121315000Y-92065000D02*
X121685000Y-92065000D01*
G75*
G02*
X121820000Y-92200000I0J-135000D01*
G01*
X121820000Y-92470000D01*
G75*
G02*
X121685000Y-92605000I-135000J0D01*
G01*
X121315000Y-92605000D01*
G75*
G02*
X121180000Y-92470000I0J135000D01*
G01*
X121180000Y-92200000D01*
G75*
G02*
X121315000Y-92065000I135000J0D01*
G01*
G37*
G36*
G01*
X111975000Y-87175000D02*
X111975000Y-86625000D01*
G75*
G02*
X112175000Y-86425000I200000J0D01*
G01*
X112575000Y-86425000D01*
G75*
G02*
X112775000Y-86625000I0J-200000D01*
G01*
X112775000Y-87175000D01*
G75*
G02*
X112575000Y-87375000I-200000J0D01*
G01*
X112175000Y-87375000D01*
G75*
G02*
X111975000Y-87175000I0J200000D01*
G01*
G37*
G36*
G01*
X113625000Y-87175000D02*
X113625000Y-86625000D01*
G75*
G02*
X113825000Y-86425000I200000J0D01*
G01*
X114225000Y-86425000D01*
G75*
G02*
X114425000Y-86625000I0J-200000D01*
G01*
X114425000Y-87175000D01*
G75*
G02*
X114225000Y-87375000I-200000J0D01*
G01*
X113825000Y-87375000D01*
G75*
G02*
X113625000Y-87175000I0J200000D01*
G01*
G37*
G36*
G01*
X107015000Y-90020000D02*
X107385000Y-90020000D01*
G75*
G02*
X107520000Y-90155000I0J-135000D01*
G01*
X107520000Y-90425000D01*
G75*
G02*
X107385000Y-90560000I-135000J0D01*
G01*
X107015000Y-90560000D01*
G75*
G02*
X106880000Y-90425000I0J135000D01*
G01*
X106880000Y-90155000D01*
G75*
G02*
X107015000Y-90020000I135000J0D01*
G01*
G37*
G36*
G01*
X107015000Y-91040000D02*
X107385000Y-91040000D01*
G75*
G02*
X107520000Y-91175000I0J-135000D01*
G01*
X107520000Y-91445000D01*
G75*
G02*
X107385000Y-91580000I-135000J0D01*
G01*
X107015000Y-91580000D01*
G75*
G02*
X106880000Y-91445000I0J135000D01*
G01*
X106880000Y-91175000D01*
G75*
G02*
X107015000Y-91040000I135000J0D01*
G01*
G37*
X122800000Y-79240000D03*
X122800000Y-79890000D03*
X122800000Y-80540000D03*
X124700000Y-80540000D03*
X124700000Y-79890000D03*
X124700000Y-79240000D03*
G36*
G01*
X121990000Y-85995000D02*
X121990000Y-85655000D01*
G75*
G02*
X122130000Y-85515000I140000J0D01*
G01*
X122410000Y-85515000D01*
G75*
G02*
X122550000Y-85655000I0J-140000D01*
G01*
X122550000Y-85995000D01*
G75*
G02*
X122410000Y-86135000I-140000J0D01*
G01*
X122130000Y-86135000D01*
G75*
G02*
X121990000Y-85995000I0J140000D01*
G01*
G37*
G36*
G01*
X122950000Y-85995000D02*
X122950000Y-85655000D01*
G75*
G02*
X123090000Y-85515000I140000J0D01*
G01*
X123370000Y-85515000D01*
G75*
G02*
X123510000Y-85655000I0J-140000D01*
G01*
X123510000Y-85995000D01*
G75*
G02*
X123370000Y-86135000I-140000J0D01*
G01*
X123090000Y-86135000D01*
G75*
G02*
X122950000Y-85995000I0J140000D01*
G01*
G37*
D11*
X129975000Y-78950000D03*
D12*
X129975000Y-81490000D03*
X129975000Y-84030000D03*
X129975000Y-86570000D03*
X129975000Y-89110000D03*
X129975000Y-91650000D03*
G36*
G01*
X125815000Y-91045000D02*
X126185000Y-91045000D01*
G75*
G02*
X126320000Y-91180000I0J-135000D01*
G01*
X126320000Y-91450000D01*
G75*
G02*
X126185000Y-91585000I-135000J0D01*
G01*
X125815000Y-91585000D01*
G75*
G02*
X125680000Y-91450000I0J135000D01*
G01*
X125680000Y-91180000D01*
G75*
G02*
X125815000Y-91045000I135000J0D01*
G01*
G37*
G36*
G01*
X125815000Y-92065000D02*
X126185000Y-92065000D01*
G75*
G02*
X126320000Y-92200000I0J-135000D01*
G01*
X126320000Y-92470000D01*
G75*
G02*
X126185000Y-92605000I-135000J0D01*
G01*
X125815000Y-92605000D01*
G75*
G02*
X125680000Y-92470000I0J135000D01*
G01*
X125680000Y-92200000D01*
G75*
G02*
X125815000Y-92065000I135000J0D01*
G01*
G37*
D10*
X122800000Y-87175000D03*
X122800000Y-87825000D03*
X122800000Y-88475000D03*
X124700000Y-88475000D03*
X124700000Y-87825000D03*
X124700000Y-87175000D03*
G36*
G01*
X125510000Y-89655000D02*
X125510000Y-89995000D01*
G75*
G02*
X125370000Y-90135000I-140000J0D01*
G01*
X125090000Y-90135000D01*
G75*
G02*
X124950000Y-89995000I0J140000D01*
G01*
X124950000Y-89655000D01*
G75*
G02*
X125090000Y-89515000I140000J0D01*
G01*
X125370000Y-89515000D01*
G75*
G02*
X125510000Y-89655000I0J-140000D01*
G01*
G37*
G36*
G01*
X124550000Y-89655000D02*
X124550000Y-89995000D01*
G75*
G02*
X124410000Y-90135000I-140000J0D01*
G01*
X124130000Y-90135000D01*
G75*
G02*
X123990000Y-89995000I0J140000D01*
G01*
X123990000Y-89655000D01*
G75*
G02*
X124130000Y-89515000I140000J0D01*
G01*
X124410000Y-89515000D01*
G75*
G02*
X124550000Y-89655000I0J-140000D01*
G01*
G37*
G36*
G01*
X125815000Y-83045000D02*
X126185000Y-83045000D01*
G75*
G02*
X126320000Y-83180000I0J-135000D01*
G01*
X126320000Y-83450000D01*
G75*
G02*
X126185000Y-83585000I-135000J0D01*
G01*
X125815000Y-83585000D01*
G75*
G02*
X125680000Y-83450000I0J135000D01*
G01*
X125680000Y-83180000D01*
G75*
G02*
X125815000Y-83045000I135000J0D01*
G01*
G37*
G36*
G01*
X125815000Y-84065000D02*
X126185000Y-84065000D01*
G75*
G02*
X126320000Y-84200000I0J-135000D01*
G01*
X126320000Y-84470000D01*
G75*
G02*
X126185000Y-84605000I-135000J0D01*
G01*
X125815000Y-84605000D01*
G75*
G02*
X125680000Y-84470000I0J135000D01*
G01*
X125680000Y-84200000D01*
G75*
G02*
X125815000Y-84065000I135000J0D01*
G01*
G37*
X122800000Y-83175000D03*
X122800000Y-83825000D03*
X122800000Y-84475000D03*
X124700000Y-84475000D03*
X124700000Y-83825000D03*
X124700000Y-83175000D03*
G36*
G01*
X121990000Y-78060000D02*
X121990000Y-77720000D01*
G75*
G02*
X122130000Y-77580000I140000J0D01*
G01*
X122410000Y-77580000D01*
G75*
G02*
X122550000Y-77720000I0J-140000D01*
G01*
X122550000Y-78060000D01*
G75*
G02*
X122410000Y-78200000I-140000J0D01*
G01*
X122130000Y-78200000D01*
G75*
G02*
X121990000Y-78060000I0J140000D01*
G01*
G37*
G36*
G01*
X122950000Y-78060000D02*
X122950000Y-77720000D01*
G75*
G02*
X123090000Y-77580000I140000J0D01*
G01*
X123370000Y-77580000D01*
G75*
G02*
X123510000Y-77720000I0J-140000D01*
G01*
X123510000Y-78060000D01*
G75*
G02*
X123370000Y-78200000I-140000J0D01*
G01*
X123090000Y-78200000D01*
G75*
G02*
X122950000Y-78060000I0J140000D01*
G01*
G37*
G36*
G01*
X118660000Y-83330000D02*
X118660000Y-83670000D01*
G75*
G02*
X118520000Y-83810000I-140000J0D01*
G01*
X118240000Y-83810000D01*
G75*
G02*
X118100000Y-83670000I0J140000D01*
G01*
X118100000Y-83330000D01*
G75*
G02*
X118240000Y-83190000I140000J0D01*
G01*
X118520000Y-83190000D01*
G75*
G02*
X118660000Y-83330000I0J-140000D01*
G01*
G37*
G36*
G01*
X117700000Y-83330000D02*
X117700000Y-83670000D01*
G75*
G02*
X117560000Y-83810000I-140000J0D01*
G01*
X117280000Y-83810000D01*
G75*
G02*
X117140000Y-83670000I0J140000D01*
G01*
X117140000Y-83330000D01*
G75*
G02*
X117280000Y-83190000I140000J0D01*
G01*
X117560000Y-83190000D01*
G75*
G02*
X117700000Y-83330000I0J-140000D01*
G01*
G37*
G36*
G01*
X112125000Y-92043750D02*
X112125000Y-92556250D01*
G75*
G02*
X111906250Y-92775000I-218750J0D01*
G01*
X111468750Y-92775000D01*
G75*
G02*
X111250000Y-92556250I0J218750D01*
G01*
X111250000Y-92043750D01*
G75*
G02*
X111468750Y-91825000I218750J0D01*
G01*
X111906250Y-91825000D01*
G75*
G02*
X112125000Y-92043750I0J-218750D01*
G01*
G37*
G36*
G01*
X110550000Y-92043750D02*
X110550000Y-92556250D01*
G75*
G02*
X110331250Y-92775000I-218750J0D01*
G01*
X109893750Y-92775000D01*
G75*
G02*
X109675000Y-92556250I0J218750D01*
G01*
X109675000Y-92043750D01*
G75*
G02*
X109893750Y-91825000I218750J0D01*
G01*
X110331250Y-91825000D01*
G75*
G02*
X110550000Y-92043750I0J-218750D01*
G01*
G37*
G36*
G01*
X112880000Y-92485000D02*
X112880000Y-92115000D01*
G75*
G02*
X113015000Y-91980000I135000J0D01*
G01*
X113285000Y-91980000D01*
G75*
G02*
X113420000Y-92115000I0J-135000D01*
G01*
X113420000Y-92485000D01*
G75*
G02*
X113285000Y-92620000I-135000J0D01*
G01*
X113015000Y-92620000D01*
G75*
G02*
X112880000Y-92485000I0J135000D01*
G01*
G37*
G36*
G01*
X113900000Y-92485000D02*
X113900000Y-92115000D01*
G75*
G02*
X114035000Y-91980000I135000J0D01*
G01*
X114305000Y-91980000D01*
G75*
G02*
X114440000Y-92115000I0J-135000D01*
G01*
X114440000Y-92485000D01*
G75*
G02*
X114305000Y-92620000I-135000J0D01*
G01*
X114035000Y-92620000D01*
G75*
G02*
X113900000Y-92485000I0J135000D01*
G01*
G37*
G36*
G01*
X121990000Y-89995000D02*
X121990000Y-89655000D01*
G75*
G02*
X122130000Y-89515000I140000J0D01*
G01*
X122410000Y-89515000D01*
G75*
G02*
X122550000Y-89655000I0J-140000D01*
G01*
X122550000Y-89995000D01*
G75*
G02*
X122410000Y-90135000I-140000J0D01*
G01*
X122130000Y-90135000D01*
G75*
G02*
X121990000Y-89995000I0J140000D01*
G01*
G37*
G36*
G01*
X122950000Y-89995000D02*
X122950000Y-89655000D01*
G75*
G02*
X123090000Y-89515000I140000J0D01*
G01*
X123370000Y-89515000D01*
G75*
G02*
X123510000Y-89655000I0J-140000D01*
G01*
X123510000Y-89995000D01*
G75*
G02*
X123370000Y-90135000I-140000J0D01*
G01*
X123090000Y-90135000D01*
G75*
G02*
X122950000Y-89995000I0J140000D01*
G01*
G37*
G36*
G01*
X121990000Y-81995000D02*
X121990000Y-81655000D01*
G75*
G02*
X122130000Y-81515000I140000J0D01*
G01*
X122410000Y-81515000D01*
G75*
G02*
X122550000Y-81655000I0J-140000D01*
G01*
X122550000Y-81995000D01*
G75*
G02*
X122410000Y-82135000I-140000J0D01*
G01*
X122130000Y-82135000D01*
G75*
G02*
X121990000Y-81995000I0J140000D01*
G01*
G37*
G36*
G01*
X122950000Y-81995000D02*
X122950000Y-81655000D01*
G75*
G02*
X123090000Y-81515000I140000J0D01*
G01*
X123370000Y-81515000D01*
G75*
G02*
X123510000Y-81655000I0J-140000D01*
G01*
X123510000Y-81995000D01*
G75*
G02*
X123370000Y-82135000I-140000J0D01*
G01*
X123090000Y-82135000D01*
G75*
G02*
X122950000Y-81995000I0J140000D01*
G01*
G37*
G36*
G01*
X125530000Y-81655000D02*
X125530000Y-81995000D01*
G75*
G02*
X125390000Y-82135000I-140000J0D01*
G01*
X125110000Y-82135000D01*
G75*
G02*
X124970000Y-81995000I0J140000D01*
G01*
X124970000Y-81655000D01*
G75*
G02*
X125110000Y-81515000I140000J0D01*
G01*
X125390000Y-81515000D01*
G75*
G02*
X125530000Y-81655000I0J-140000D01*
G01*
G37*
G36*
G01*
X124570000Y-81655000D02*
X124570000Y-81995000D01*
G75*
G02*
X124430000Y-82135000I-140000J0D01*
G01*
X124150000Y-82135000D01*
G75*
G02*
X124010000Y-81995000I0J140000D01*
G01*
X124010000Y-81655000D01*
G75*
G02*
X124150000Y-81515000I140000J0D01*
G01*
X124430000Y-81515000D01*
G75*
G02*
X124570000Y-81655000I0J-140000D01*
G01*
G37*
G36*
G01*
X121315000Y-79110000D02*
X121685000Y-79110000D01*
G75*
G02*
X121820000Y-79245000I0J-135000D01*
G01*
X121820000Y-79515000D01*
G75*
G02*
X121685000Y-79650000I-135000J0D01*
G01*
X121315000Y-79650000D01*
G75*
G02*
X121180000Y-79515000I0J135000D01*
G01*
X121180000Y-79245000D01*
G75*
G02*
X121315000Y-79110000I135000J0D01*
G01*
G37*
G36*
G01*
X121315000Y-80130000D02*
X121685000Y-80130000D01*
G75*
G02*
X121820000Y-80265000I0J-135000D01*
G01*
X121820000Y-80535000D01*
G75*
G02*
X121685000Y-80670000I-135000J0D01*
G01*
X121315000Y-80670000D01*
G75*
G02*
X121180000Y-80535000I0J135000D01*
G01*
X121180000Y-80265000D01*
G75*
G02*
X121315000Y-80130000I135000J0D01*
G01*
G37*
G36*
G01*
X107418750Y-81800000D02*
X108181250Y-81800000D01*
G75*
G02*
X108400000Y-82018750I0J-218750D01*
G01*
X108400000Y-82456250D01*
G75*
G02*
X108181250Y-82675000I-218750J0D01*
G01*
X107418750Y-82675000D01*
G75*
G02*
X107200000Y-82456250I0J218750D01*
G01*
X107200000Y-82018750D01*
G75*
G02*
X107418750Y-81800000I218750J0D01*
G01*
G37*
G36*
G01*
X107418750Y-83925000D02*
X108181250Y-83925000D01*
G75*
G02*
X108400000Y-84143750I0J-218750D01*
G01*
X108400000Y-84581250D01*
G75*
G02*
X108181250Y-84800000I-218750J0D01*
G01*
X107418750Y-84800000D01*
G75*
G02*
X107200000Y-84581250I0J218750D01*
G01*
X107200000Y-84143750D01*
G75*
G02*
X107418750Y-83925000I218750J0D01*
G01*
G37*
G36*
G01*
X108975000Y-84150000D02*
X108975000Y-83650000D01*
G75*
G02*
X109200000Y-83425000I225000J0D01*
G01*
X109650000Y-83425000D01*
G75*
G02*
X109875000Y-83650000I0J-225000D01*
G01*
X109875000Y-84150000D01*
G75*
G02*
X109650000Y-84375000I-225000J0D01*
G01*
X109200000Y-84375000D01*
G75*
G02*
X108975000Y-84150000I0J225000D01*
G01*
G37*
G36*
G01*
X110525000Y-84150000D02*
X110525000Y-83650000D01*
G75*
G02*
X110750000Y-83425000I225000J0D01*
G01*
X111200000Y-83425000D01*
G75*
G02*
X111425000Y-83650000I0J-225000D01*
G01*
X111425000Y-84150000D01*
G75*
G02*
X111200000Y-84375000I-225000J0D01*
G01*
X110750000Y-84375000D01*
G75*
G02*
X110525000Y-84150000I0J225000D01*
G01*
G37*
D11*
X111000000Y-81000000D03*
D12*
X113540000Y-81000000D03*
X116080000Y-81000000D03*
X118620000Y-81000000D03*
G36*
G01*
X111030000Y-87940000D02*
X111370000Y-87940000D01*
G75*
G02*
X111510000Y-88080000I0J-140000D01*
G01*
X111510000Y-88360000D01*
G75*
G02*
X111370000Y-88500000I-140000J0D01*
G01*
X111030000Y-88500000D01*
G75*
G02*
X110890000Y-88360000I0J140000D01*
G01*
X110890000Y-88080000D01*
G75*
G02*
X111030000Y-87940000I140000J0D01*
G01*
G37*
G36*
G01*
X111030000Y-88900000D02*
X111370000Y-88900000D01*
G75*
G02*
X111510000Y-89040000I0J-140000D01*
G01*
X111510000Y-89320000D01*
G75*
G02*
X111370000Y-89460000I-140000J0D01*
G01*
X111030000Y-89460000D01*
G75*
G02*
X110890000Y-89320000I0J140000D01*
G01*
X110890000Y-89040000D01*
G75*
G02*
X111030000Y-88900000I140000J0D01*
G01*
G37*
D13*
X103950000Y-82410000D03*
X103950000Y-88190000D03*
D14*
X105395000Y-82050000D03*
X105395000Y-82850000D03*
D15*
X105395000Y-84050000D03*
X105395000Y-85050000D03*
X105395000Y-85550000D03*
X105395000Y-86550000D03*
D14*
X105395000Y-87750000D03*
X105395000Y-88550000D03*
X105395000Y-88550000D03*
X105395000Y-87750000D03*
D15*
X105395000Y-87050000D03*
X105395000Y-86050000D03*
X105395000Y-84550000D03*
X105395000Y-83550000D03*
D14*
X105395000Y-82850000D03*
X105395000Y-82050000D03*
D16*
X104480000Y-80980000D03*
D17*
X100300000Y-80980000D03*
D16*
X104480000Y-89620000D03*
D17*
X100300000Y-89620000D03*
G36*
G01*
X121315000Y-83045000D02*
X121685000Y-83045000D01*
G75*
G02*
X121820000Y-83180000I0J-135000D01*
G01*
X121820000Y-83450000D01*
G75*
G02*
X121685000Y-83585000I-135000J0D01*
G01*
X121315000Y-83585000D01*
G75*
G02*
X121180000Y-83450000I0J135000D01*
G01*
X121180000Y-83180000D01*
G75*
G02*
X121315000Y-83045000I135000J0D01*
G01*
G37*
G36*
G01*
X121315000Y-84065000D02*
X121685000Y-84065000D01*
G75*
G02*
X121820000Y-84200000I0J-135000D01*
G01*
X121820000Y-84470000D01*
G75*
G02*
X121685000Y-84605000I-135000J0D01*
G01*
X121315000Y-84605000D01*
G75*
G02*
X121180000Y-84470000I0J135000D01*
G01*
X121180000Y-84200000D01*
G75*
G02*
X121315000Y-84065000I135000J0D01*
G01*
G37*
G36*
G01*
X117040000Y-90770000D02*
X117040000Y-90430000D01*
G75*
G02*
X117180000Y-90290000I140000J0D01*
G01*
X117460000Y-90290000D01*
G75*
G02*
X117600000Y-90430000I0J-140000D01*
G01*
X117600000Y-90770000D01*
G75*
G02*
X117460000Y-90910000I-140000J0D01*
G01*
X117180000Y-90910000D01*
G75*
G02*
X117040000Y-90770000I0J140000D01*
G01*
G37*
G36*
G01*
X118000000Y-90770000D02*
X118000000Y-90430000D01*
G75*
G02*
X118140000Y-90290000I140000J0D01*
G01*
X118420000Y-90290000D01*
G75*
G02*
X118560000Y-90430000I0J-140000D01*
G01*
X118560000Y-90770000D01*
G75*
G02*
X118420000Y-90910000I-140000J0D01*
G01*
X118140000Y-90910000D01*
G75*
G02*
X118000000Y-90770000I0J140000D01*
G01*
G37*
G36*
G01*
X121315000Y-87045000D02*
X121685000Y-87045000D01*
G75*
G02*
X121820000Y-87180000I0J-135000D01*
G01*
X121820000Y-87450000D01*
G75*
G02*
X121685000Y-87585000I-135000J0D01*
G01*
X121315000Y-87585000D01*
G75*
G02*
X121180000Y-87450000I0J135000D01*
G01*
X121180000Y-87180000D01*
G75*
G02*
X121315000Y-87045000I135000J0D01*
G01*
G37*
G36*
G01*
X121315000Y-88065000D02*
X121685000Y-88065000D01*
G75*
G02*
X121820000Y-88200000I0J-135000D01*
G01*
X121820000Y-88470000D01*
G75*
G02*
X121685000Y-88605000I-135000J0D01*
G01*
X121315000Y-88605000D01*
G75*
G02*
X121180000Y-88470000I0J135000D01*
G01*
X121180000Y-88200000D01*
G75*
G02*
X121315000Y-88065000I135000J0D01*
G01*
G37*
G36*
G01*
X111975000Y-88775000D02*
X111975000Y-88225000D01*
G75*
G02*
X112175000Y-88025000I200000J0D01*
G01*
X112575000Y-88025000D01*
G75*
G02*
X112775000Y-88225000I0J-200000D01*
G01*
X112775000Y-88775000D01*
G75*
G02*
X112575000Y-88975000I-200000J0D01*
G01*
X112175000Y-88975000D01*
G75*
G02*
X111975000Y-88775000I0J200000D01*
G01*
G37*
G36*
G01*
X113625000Y-88775000D02*
X113625000Y-88225000D01*
G75*
G02*
X113825000Y-88025000I200000J0D01*
G01*
X114225000Y-88025000D01*
G75*
G02*
X114425000Y-88225000I0J-200000D01*
G01*
X114425000Y-88775000D01*
G75*
G02*
X114225000Y-88975000I-200000J0D01*
G01*
X113825000Y-88975000D01*
G75*
G02*
X113625000Y-88775000I0J200000D01*
G01*
G37*
G36*
G01*
X118550000Y-84600000D02*
X118700000Y-84600000D01*
G75*
G02*
X118775000Y-84675000I0J-75000D01*
G01*
X118775000Y-85375000D01*
G75*
G02*
X118700000Y-85450000I-75000J0D01*
G01*
X118550000Y-85450000D01*
G75*
G02*
X118475000Y-85375000I0J75000D01*
G01*
X118475000Y-84675000D01*
G75*
G02*
X118550000Y-84600000I75000J0D01*
G01*
G37*
G36*
G01*
X117900000Y-84600000D02*
X118050000Y-84600000D01*
G75*
G02*
X118125000Y-84675000I0J-75000D01*
G01*
X118125000Y-85375000D01*
G75*
G02*
X118050000Y-85450000I-75000J0D01*
G01*
X117900000Y-85450000D01*
G75*
G02*
X117825000Y-85375000I0J75000D01*
G01*
X117825000Y-84675000D01*
G75*
G02*
X117900000Y-84600000I75000J0D01*
G01*
G37*
G36*
G01*
X117250000Y-84600000D02*
X117400000Y-84600000D01*
G75*
G02*
X117475000Y-84675000I0J-75000D01*
G01*
X117475000Y-85375000D01*
G75*
G02*
X117400000Y-85450000I-75000J0D01*
G01*
X117250000Y-85450000D01*
G75*
G02*
X117175000Y-85375000I0J75000D01*
G01*
X117175000Y-84675000D01*
G75*
G02*
X117250000Y-84600000I75000J0D01*
G01*
G37*
G36*
G01*
X116600000Y-84600000D02*
X116750000Y-84600000D01*
G75*
G02*
X116825000Y-84675000I0J-75000D01*
G01*
X116825000Y-85375000D01*
G75*
G02*
X116750000Y-85450000I-75000J0D01*
G01*
X116600000Y-85450000D01*
G75*
G02*
X116525000Y-85375000I0J75000D01*
G01*
X116525000Y-84675000D01*
G75*
G02*
X116600000Y-84600000I75000J0D01*
G01*
G37*
G36*
G01*
X115350000Y-85850000D02*
X116050000Y-85850000D01*
G75*
G02*
X116125000Y-85925000I0J-75000D01*
G01*
X116125000Y-86075000D01*
G75*
G02*
X116050000Y-86150000I-75000J0D01*
G01*
X115350000Y-86150000D01*
G75*
G02*
X115275000Y-86075000I0J75000D01*
G01*
X115275000Y-85925000D01*
G75*
G02*
X115350000Y-85850000I75000J0D01*
G01*
G37*
G36*
G01*
X115350000Y-86500000D02*
X116050000Y-86500000D01*
G75*
G02*
X116125000Y-86575000I0J-75000D01*
G01*
X116125000Y-86725000D01*
G75*
G02*
X116050000Y-86800000I-75000J0D01*
G01*
X115350000Y-86800000D01*
G75*
G02*
X115275000Y-86725000I0J75000D01*
G01*
X115275000Y-86575000D01*
G75*
G02*
X115350000Y-86500000I75000J0D01*
G01*
G37*
G36*
G01*
X115350000Y-87150000D02*
X116050000Y-87150000D01*
G75*
G02*
X116125000Y-87225000I0J-75000D01*
G01*
X116125000Y-87375000D01*
G75*
G02*
X116050000Y-87450000I-75000J0D01*
G01*
X115350000Y-87450000D01*
G75*
G02*
X115275000Y-87375000I0J75000D01*
G01*
X115275000Y-87225000D01*
G75*
G02*
X115350000Y-87150000I75000J0D01*
G01*
G37*
G36*
G01*
X115350000Y-87800000D02*
X116050000Y-87800000D01*
G75*
G02*
X116125000Y-87875000I0J-75000D01*
G01*
X116125000Y-88025000D01*
G75*
G02*
X116050000Y-88100000I-75000J0D01*
G01*
X115350000Y-88100000D01*
G75*
G02*
X115275000Y-88025000I0J75000D01*
G01*
X115275000Y-87875000D01*
G75*
G02*
X115350000Y-87800000I75000J0D01*
G01*
G37*
G36*
G01*
X116600000Y-88500000D02*
X116750000Y-88500000D01*
G75*
G02*
X116825000Y-88575000I0J-75000D01*
G01*
X116825000Y-89275000D01*
G75*
G02*
X116750000Y-89350000I-75000J0D01*
G01*
X116600000Y-89350000D01*
G75*
G02*
X116525000Y-89275000I0J75000D01*
G01*
X116525000Y-88575000D01*
G75*
G02*
X116600000Y-88500000I75000J0D01*
G01*
G37*
G36*
G01*
X117250000Y-88500000D02*
X117400000Y-88500000D01*
G75*
G02*
X117475000Y-88575000I0J-75000D01*
G01*
X117475000Y-89275000D01*
G75*
G02*
X117400000Y-89350000I-75000J0D01*
G01*
X117250000Y-89350000D01*
G75*
G02*
X117175000Y-89275000I0J75000D01*
G01*
X117175000Y-88575000D01*
G75*
G02*
X117250000Y-88500000I75000J0D01*
G01*
G37*
G36*
G01*
X117900000Y-88500000D02*
X118050000Y-88500000D01*
G75*
G02*
X118125000Y-88575000I0J-75000D01*
G01*
X118125000Y-89275000D01*
G75*
G02*
X118050000Y-89350000I-75000J0D01*
G01*
X117900000Y-89350000D01*
G75*
G02*
X117825000Y-89275000I0J75000D01*
G01*
X117825000Y-88575000D01*
G75*
G02*
X117900000Y-88500000I75000J0D01*
G01*
G37*
G36*
G01*
X118550000Y-88500000D02*
X118700000Y-88500000D01*
G75*
G02*
X118775000Y-88575000I0J-75000D01*
G01*
X118775000Y-89275000D01*
G75*
G02*
X118700000Y-89350000I-75000J0D01*
G01*
X118550000Y-89350000D01*
G75*
G02*
X118475000Y-89275000I0J75000D01*
G01*
X118475000Y-88575000D01*
G75*
G02*
X118550000Y-88500000I75000J0D01*
G01*
G37*
G36*
G01*
X119250000Y-87800000D02*
X119950000Y-87800000D01*
G75*
G02*
X120025000Y-87875000I0J-75000D01*
G01*
X120025000Y-88025000D01*
G75*
G02*
X119950000Y-88100000I-75000J0D01*
G01*
X119250000Y-88100000D01*
G75*
G02*
X119175000Y-88025000I0J75000D01*
G01*
X119175000Y-87875000D01*
G75*
G02*
X119250000Y-87800000I75000J0D01*
G01*
G37*
G36*
G01*
X119250000Y-87150000D02*
X119950000Y-87150000D01*
G75*
G02*
X120025000Y-87225000I0J-75000D01*
G01*
X120025000Y-87375000D01*
G75*
G02*
X119950000Y-87450000I-75000J0D01*
G01*
X119250000Y-87450000D01*
G75*
G02*
X119175000Y-87375000I0J75000D01*
G01*
X119175000Y-87225000D01*
G75*
G02*
X119250000Y-87150000I75000J0D01*
G01*
G37*
G36*
G01*
X119250000Y-86500000D02*
X119950000Y-86500000D01*
G75*
G02*
X120025000Y-86575000I0J-75000D01*
G01*
X120025000Y-86725000D01*
G75*
G02*
X119950000Y-86800000I-75000J0D01*
G01*
X119250000Y-86800000D01*
G75*
G02*
X119175000Y-86725000I0J75000D01*
G01*
X119175000Y-86575000D01*
G75*
G02*
X119250000Y-86500000I75000J0D01*
G01*
G37*
G36*
G01*
X119250000Y-85850000D02*
X119950000Y-85850000D01*
G75*
G02*
X120025000Y-85925000I0J-75000D01*
G01*
X120025000Y-86075000D01*
G75*
G02*
X119950000Y-86150000I-75000J0D01*
G01*
X119250000Y-86150000D01*
G75*
G02*
X119175000Y-86075000I0J75000D01*
G01*
X119175000Y-85925000D01*
G75*
G02*
X119250000Y-85850000I75000J0D01*
G01*
G37*
D18*
X117650000Y-86975000D03*
G36*
G01*
X111370000Y-87460000D02*
X111030000Y-87460000D01*
G75*
G02*
X110890000Y-87320000I0J140000D01*
G01*
X110890000Y-87040000D01*
G75*
G02*
X111030000Y-86900000I140000J0D01*
G01*
X111370000Y-86900000D01*
G75*
G02*
X111510000Y-87040000I0J-140000D01*
G01*
X111510000Y-87320000D01*
G75*
G02*
X111370000Y-87460000I-140000J0D01*
G01*
G37*
G36*
G01*
X111370000Y-86500000D02*
X111030000Y-86500000D01*
G75*
G02*
X110890000Y-86360000I0J140000D01*
G01*
X110890000Y-86080000D01*
G75*
G02*
X111030000Y-85940000I140000J0D01*
G01*
X111370000Y-85940000D01*
G75*
G02*
X111510000Y-86080000I0J-140000D01*
G01*
X111510000Y-86360000D01*
G75*
G02*
X111370000Y-86500000I-140000J0D01*
G01*
G37*
G36*
G01*
X125815000Y-79110000D02*
X126185000Y-79110000D01*
G75*
G02*
X126320000Y-79245000I0J-135000D01*
G01*
X126320000Y-79515000D01*
G75*
G02*
X126185000Y-79650000I-135000J0D01*
G01*
X125815000Y-79650000D01*
G75*
G02*
X125680000Y-79515000I0J135000D01*
G01*
X125680000Y-79245000D01*
G75*
G02*
X125815000Y-79110000I135000J0D01*
G01*
G37*
G36*
G01*
X125815000Y-80130000D02*
X126185000Y-80130000D01*
G75*
G02*
X126320000Y-80265000I0J-135000D01*
G01*
X126320000Y-80535000D01*
G75*
G02*
X126185000Y-80670000I-135000J0D01*
G01*
X125815000Y-80670000D01*
G75*
G02*
X125680000Y-80535000I0J135000D01*
G01*
X125680000Y-80265000D01*
G75*
G02*
X125815000Y-80130000I135000J0D01*
G01*
G37*
G36*
G01*
X108585000Y-81280000D02*
X108215000Y-81280000D01*
G75*
G02*
X108080000Y-81145000I0J135000D01*
G01*
X108080000Y-80875000D01*
G75*
G02*
X108215000Y-80740000I135000J0D01*
G01*
X108585000Y-80740000D01*
G75*
G02*
X108720000Y-80875000I0J-135000D01*
G01*
X108720000Y-81145000D01*
G75*
G02*
X108585000Y-81280000I-135000J0D01*
G01*
G37*
G36*
G01*
X108585000Y-80260000D02*
X108215000Y-80260000D01*
G75*
G02*
X108080000Y-80125000I0J135000D01*
G01*
X108080000Y-79855000D01*
G75*
G02*
X108215000Y-79720000I135000J0D01*
G01*
X108585000Y-79720000D01*
G75*
G02*
X108720000Y-79855000I0J-135000D01*
G01*
X108720000Y-80125000D01*
G75*
G02*
X108585000Y-80260000I-135000J0D01*
G01*
G37*
G36*
G01*
X107570000Y-81260000D02*
X107230000Y-81260000D01*
G75*
G02*
X107090000Y-81120000I0J140000D01*
G01*
X107090000Y-80840000D01*
G75*
G02*
X107230000Y-80700000I140000J0D01*
G01*
X107570000Y-80700000D01*
G75*
G02*
X107710000Y-80840000I0J-140000D01*
G01*
X107710000Y-81120000D01*
G75*
G02*
X107570000Y-81260000I-140000J0D01*
G01*
G37*
G36*
G01*
X107570000Y-80300000D02*
X107230000Y-80300000D01*
G75*
G02*
X107090000Y-80160000I0J140000D01*
G01*
X107090000Y-79880000D01*
G75*
G02*
X107230000Y-79740000I140000J0D01*
G01*
X107570000Y-79740000D01*
G75*
G02*
X107710000Y-79880000I0J-140000D01*
G01*
X107710000Y-80160000D01*
G75*
G02*
X107570000Y-80300000I-140000J0D01*
G01*
G37*
G36*
G01*
X125815000Y-87045000D02*
X126185000Y-87045000D01*
G75*
G02*
X126320000Y-87180000I0J-135000D01*
G01*
X126320000Y-87450000D01*
G75*
G02*
X126185000Y-87585000I-135000J0D01*
G01*
X125815000Y-87585000D01*
G75*
G02*
X125680000Y-87450000I0J135000D01*
G01*
X125680000Y-87180000D01*
G75*
G02*
X125815000Y-87045000I135000J0D01*
G01*
G37*
G36*
G01*
X125815000Y-88065000D02*
X126185000Y-88065000D01*
G75*
G02*
X126320000Y-88200000I0J-135000D01*
G01*
X126320000Y-88470000D01*
G75*
G02*
X126185000Y-88605000I-135000J0D01*
G01*
X125815000Y-88605000D01*
G75*
G02*
X125680000Y-88470000I0J135000D01*
G01*
X125680000Y-88200000D01*
G75*
G02*
X125815000Y-88065000I135000J0D01*
G01*
G37*
G36*
G01*
X108100000Y-89300000D02*
X107800000Y-89300000D01*
G75*
G02*
X107650000Y-89150000I0J150000D01*
G01*
X107650000Y-88125000D01*
G75*
G02*
X107800000Y-87975000I150000J0D01*
G01*
X108100000Y-87975000D01*
G75*
G02*
X108250000Y-88125000I0J-150000D01*
G01*
X108250000Y-89150000D01*
G75*
G02*
X108100000Y-89300000I-150000J0D01*
G01*
G37*
G36*
G01*
X109050000Y-89300000D02*
X108750000Y-89300000D01*
G75*
G02*
X108600000Y-89150000I0J150000D01*
G01*
X108600000Y-88125000D01*
G75*
G02*
X108750000Y-87975000I150000J0D01*
G01*
X109050000Y-87975000D01*
G75*
G02*
X109200000Y-88125000I0J-150000D01*
G01*
X109200000Y-89150000D01*
G75*
G02*
X109050000Y-89300000I-150000J0D01*
G01*
G37*
G36*
G01*
X110000000Y-89300000D02*
X109700000Y-89300000D01*
G75*
G02*
X109550000Y-89150000I0J150000D01*
G01*
X109550000Y-88125000D01*
G75*
G02*
X109700000Y-87975000I150000J0D01*
G01*
X110000000Y-87975000D01*
G75*
G02*
X110150000Y-88125000I0J-150000D01*
G01*
X110150000Y-89150000D01*
G75*
G02*
X110000000Y-89300000I-150000J0D01*
G01*
G37*
G36*
G01*
X110000000Y-87025000D02*
X109700000Y-87025000D01*
G75*
G02*
X109550000Y-86875000I0J150000D01*
G01*
X109550000Y-85850000D01*
G75*
G02*
X109700000Y-85700000I150000J0D01*
G01*
X110000000Y-85700000D01*
G75*
G02*
X110150000Y-85850000I0J-150000D01*
G01*
X110150000Y-86875000D01*
G75*
G02*
X110000000Y-87025000I-150000J0D01*
G01*
G37*
G36*
G01*
X109050000Y-87025000D02*
X108750000Y-87025000D01*
G75*
G02*
X108600000Y-86875000I0J150000D01*
G01*
X108600000Y-85850000D01*
G75*
G02*
X108750000Y-85700000I150000J0D01*
G01*
X109050000Y-85700000D01*
G75*
G02*
X109200000Y-85850000I0J-150000D01*
G01*
X109200000Y-86875000D01*
G75*
G02*
X109050000Y-87025000I-150000J0D01*
G01*
G37*
G36*
G01*
X108100000Y-87025000D02*
X107800000Y-87025000D01*
G75*
G02*
X107650000Y-86875000I0J150000D01*
G01*
X107650000Y-85850000D01*
G75*
G02*
X107800000Y-85700000I150000J0D01*
G01*
X108100000Y-85700000D01*
G75*
G02*
X108250000Y-85850000I0J-150000D01*
G01*
X108250000Y-86875000D01*
G75*
G02*
X108100000Y-87025000I-150000J0D01*
G01*
G37*
M02*
