M48
; DRILL file {KiCad 9.0.1} date 2025-05-17T15:06:54+0000
; FORMAT={-:-/ absolute / metric / decimal}
; #@! TF.CreationDate,2025-05-17T15:06:54+00:00
; #@! TF.GenerationSoftware,Kicad,Pcbnew,9.0.1
; #@! TF.FileFunction,Plated,1,2,PTH
FMAT,2
METRIC
; #@! TA.AperFunction,Plated,PTH,ViaDrill
T1C0.300
; #@! TA.AperFunction,Plated,PTH,ComponentDrill
T2C0.600
; #@! TA.AperFunction,Plated,PTH,ComponentDrill
T3C1.000
%
G90
G05
T1
X103.05Y-82.05
X103.05Y-88.6
X106.3Y-89.5
X106.45Y-81.25
X107.4Y-79.05
X108.1Y-91.6
X108.4Y-79.05
X109.2Y-89.6
X110.95Y-82.95
X111.95Y-83.9
X112.0Y-85.6
X112.4Y-89.7
X114.3Y-89.6
X114.7Y-84.9
X115.1Y-83.8
X116.3Y-84.0
X116.675Y-90.425
X116.8Y-82.9
X117.9Y-92.3
X117.975Y-84.214
X118.0Y-89.7
X119.6Y-85.4
X119.7Y-89.2
X119.8Y-92.3
X120.0Y-83.5
X120.15Y-77.9
X121.5Y-85.1
X121.5Y-86.595
X121.5Y-90.595
X121.55Y-81.15
X123.75Y-79.25
X123.75Y-83.15
X123.75Y-84.5
X123.75Y-87.2
X123.75Y-91.15
X123.75Y-92.5
X126.0Y-81.0
X126.0Y-85.0
X126.0Y-89.0
X126.1Y-77.9
X127.6Y-90.2
X132.45Y-77.9
T3
X111.0Y-81.0
X113.54Y-81.0
X116.08Y-81.0
X118.62Y-81.0
X129.975Y-78.95
X129.975Y-81.49
X129.975Y-84.03
X129.975Y-86.57
X129.975Y-89.11
X129.975Y-91.65
T2
X100.6Y-80.98G85X100.0Y-80.98
G05
X100.6Y-89.62G85X100.0Y-89.62
G05
X105.03Y-80.98G85X103.93Y-80.98
G05
X105.03Y-89.62G85X103.93Y-89.62
G05
M30
