G04 #@! TF.GenerationSoftware,KiCad,Pcbnew,9.0.1*
G04 #@! TF.CreationDate,2025-05-17T15:06:53+00:00*
G04 #@! TF.ProjectId,usb-uart,7573622d-7561-4727-942e-6b696361645f,rev?*
G04 #@! TF.SameCoordinates,Original*
G04 #@! TF.FileFunction,Copper,L1,Top*
G04 #@! TF.FilePolarity,Positive*
%FSLAX46Y46*%
G04 Gerber Fmt 4.6, Leading zero omitted, Abs format (unit mm)*
G04 Created by KiCad (PCBNEW 9.0.1) date 2025-05-17 15:06:53*
%MOMM*%
%LPD*%
G01*
G04 APERTURE LIST*
G04 #@! TA.AperFunction,SMDPad,CuDef*
%ADD10R,0.650000X0.400000*%
G04 #@! TD*
G04 #@! TA.AperFunction,ComponentPad*
%ADD11R,1.700000X1.700000*%
G04 #@! TD*
G04 #@! TA.AperFunction,ComponentPad*
%ADD12O,1.700000X1.700000*%
G04 #@! TD*
G04 #@! TA.AperFunction,SMDPad,CuDef*
%ADD13R,1.450000X0.600000*%
G04 #@! TD*
G04 #@! TA.AperFunction,SMDPad,CuDef*
%ADD14R,1.450000X0.300000*%
G04 #@! TD*
G04 #@! TA.AperFunction,ComponentPad*
%ADD15O,2.100000X1.000000*%
G04 #@! TD*
G04 #@! TA.AperFunction,ComponentPad*
%ADD16O,1.600000X1.000000*%
G04 #@! TD*
G04 #@! TA.AperFunction,SMDPad,CuDef*
%ADD17R,2.100000X2.100000*%
G04 #@! TD*
G04 #@! TA.AperFunction,ViaPad*
%ADD18C,0.600000*%
G04 #@! TD*
G04 #@! TA.AperFunction,Conductor*
%ADD19C,0.400000*%
G04 #@! TD*
G04 #@! TA.AperFunction,Conductor*
%ADD20C,0.300000*%
G04 #@! TD*
G04 #@! TA.AperFunction,Conductor*
%ADD21C,0.200000*%
G04 #@! TD*
G04 #@! TA.AperFunction,Conductor*
%ADD22C,0.450000*%
G04 #@! TD*
G04 APERTURE END LIST*
G04 #@! TA.AperFunction,SMDPad,CuDef*
G36*
G01*
X112870000Y-90785000D02*
X112870000Y-90415000D01*
G75*
G02*
X113005000Y-90280000I135000J0D01*
G01*
X113275000Y-90280000D01*
G75*
G02*
X113410000Y-90415000I0J-135000D01*
G01*
X113410000Y-90785000D01*
G75*
G02*
X113275000Y-90920000I-135000J0D01*
G01*
X113005000Y-90920000D01*
G75*
G02*
X112870000Y-90785000I0J135000D01*
G01*
G37*
G04 #@! TD.AperFunction*
G04 #@! TA.AperFunction,SMDPad,CuDef*
G36*
G01*
X113890000Y-90785000D02*
X113890000Y-90415000D01*
G75*
G02*
X114025000Y-90280000I135000J0D01*
G01*
X114295000Y-90280000D01*
G75*
G02*
X114430000Y-90415000I0J-135000D01*
G01*
X114430000Y-90785000D01*
G75*
G02*
X114295000Y-90920000I-135000J0D01*
G01*
X114025000Y-90920000D01*
G75*
G02*
X113890000Y-90785000I0J135000D01*
G01*
G37*
G04 #@! TD.AperFunction*
G04 #@! TA.AperFunction,SMDPad,CuDef*
G36*
G01*
X125490000Y-85655000D02*
X125490000Y-85995000D01*
G75*
G02*
X125350000Y-86135000I-140000J0D01*
G01*
X125070000Y-86135000D01*
G75*
G02*
X124930000Y-85995000I0J140000D01*
G01*
X124930000Y-85655000D01*
G75*
G02*
X125070000Y-85515000I140000J0D01*
G01*
X125350000Y-85515000D01*
G75*
G02*
X125490000Y-85655000I0J-140000D01*
G01*
G37*
G04 #@! TD.AperFunction*
G04 #@! TA.AperFunction,SMDPad,CuDef*
G36*
G01*
X124530000Y-85655000D02*
X124530000Y-85995000D01*
G75*
G02*
X124390000Y-86135000I-140000J0D01*
G01*
X124110000Y-86135000D01*
G75*
G02*
X123970000Y-85995000I0J140000D01*
G01*
X123970000Y-85655000D01*
G75*
G02*
X124110000Y-85515000I140000J0D01*
G01*
X124390000Y-85515000D01*
G75*
G02*
X124530000Y-85655000I0J-140000D01*
G01*
G37*
G04 #@! TD.AperFunction*
D10*
X122800000Y-91175000D03*
X122800000Y-91825000D03*
X122800000Y-92475000D03*
X124700000Y-92475000D03*
X124700000Y-91825000D03*
X124700000Y-91175000D03*
G04 #@! TA.AperFunction,SMDPad,CuDef*
G36*
G01*
X112125000Y-90343750D02*
X112125000Y-90856250D01*
G75*
G02*
X111906250Y-91075000I-218750J0D01*
G01*
X111468750Y-91075000D01*
G75*
G02*
X111250000Y-90856250I0J218750D01*
G01*
X111250000Y-90343750D01*
G75*
G02*
X111468750Y-90125000I218750J0D01*
G01*
X111906250Y-90125000D01*
G75*
G02*
X112125000Y-90343750I0J-218750D01*
G01*
G37*
G04 #@! TD.AperFunction*
G04 #@! TA.AperFunction,SMDPad,CuDef*
G36*
G01*
X110550000Y-90343750D02*
X110550000Y-90856250D01*
G75*
G02*
X110331250Y-91075000I-218750J0D01*
G01*
X109893750Y-91075000D01*
G75*
G02*
X109675000Y-90856250I0J218750D01*
G01*
X109675000Y-90343750D01*
G75*
G02*
X109893750Y-90125000I218750J0D01*
G01*
X110331250Y-90125000D01*
G75*
G02*
X110550000Y-90343750I0J-218750D01*
G01*
G37*
G04 #@! TD.AperFunction*
G04 #@! TA.AperFunction,SMDPad,CuDef*
G36*
G01*
X125510000Y-77720000D02*
X125510000Y-78060000D01*
G75*
G02*
X125370000Y-78200000I-140000J0D01*
G01*
X125090000Y-78200000D01*
G75*
G02*
X124950000Y-78060000I0J140000D01*
G01*
X124950000Y-77720000D01*
G75*
G02*
X125090000Y-77580000I140000J0D01*
G01*
X125370000Y-77580000D01*
G75*
G02*
X125510000Y-77720000I0J-140000D01*
G01*
G37*
G04 #@! TD.AperFunction*
G04 #@! TA.AperFunction,SMDPad,CuDef*
G36*
G01*
X124550000Y-77720000D02*
X124550000Y-78060000D01*
G75*
G02*
X124410000Y-78200000I-140000J0D01*
G01*
X124130000Y-78200000D01*
G75*
G02*
X123990000Y-78060000I0J140000D01*
G01*
X123990000Y-77720000D01*
G75*
G02*
X124130000Y-77580000I140000J0D01*
G01*
X124410000Y-77580000D01*
G75*
G02*
X124550000Y-77720000I0J-140000D01*
G01*
G37*
G04 #@! TD.AperFunction*
G04 #@! TA.AperFunction,SMDPad,CuDef*
G36*
G01*
X121315000Y-91045000D02*
X121685000Y-91045000D01*
G75*
G02*
X121820000Y-91180000I0J-135000D01*
G01*
X121820000Y-91450000D01*
G75*
G02*
X121685000Y-91585000I-135000J0D01*
G01*
X121315000Y-91585000D01*
G75*
G02*
X121180000Y-91450000I0J135000D01*
G01*
X121180000Y-91180000D01*
G75*
G02*
X121315000Y-91045000I135000J0D01*
G01*
G37*
G04 #@! TD.AperFunction*
G04 #@! TA.AperFunction,SMDPad,CuDef*
G36*
G01*
X121315000Y-92065000D02*
X121685000Y-92065000D01*
G75*
G02*
X121820000Y-92200000I0J-135000D01*
G01*
X121820000Y-92470000D01*
G75*
G02*
X121685000Y-92605000I-135000J0D01*
G01*
X121315000Y-92605000D01*
G75*
G02*
X121180000Y-92470000I0J135000D01*
G01*
X121180000Y-92200000D01*
G75*
G02*
X121315000Y-92065000I135000J0D01*
G01*
G37*
G04 #@! TD.AperFunction*
G04 #@! TA.AperFunction,SMDPad,CuDef*
G36*
G01*
X111975000Y-87175000D02*
X111975000Y-86625000D01*
G75*
G02*
X112175000Y-86425000I200000J0D01*
G01*
X112575000Y-86425000D01*
G75*
G02*
X112775000Y-86625000I0J-200000D01*
G01*
X112775000Y-87175000D01*
G75*
G02*
X112575000Y-87375000I-200000J0D01*
G01*
X112175000Y-87375000D01*
G75*
G02*
X111975000Y-87175000I0J200000D01*
G01*
G37*
G04 #@! TD.AperFunction*
G04 #@! TA.AperFunction,SMDPad,CuDef*
G36*
G01*
X113625000Y-87175000D02*
X113625000Y-86625000D01*
G75*
G02*
X113825000Y-86425000I200000J0D01*
G01*
X114225000Y-86425000D01*
G75*
G02*
X114425000Y-86625000I0J-200000D01*
G01*
X114425000Y-87175000D01*
G75*
G02*
X114225000Y-87375000I-200000J0D01*
G01*
X113825000Y-87375000D01*
G75*
G02*
X113625000Y-87175000I0J200000D01*
G01*
G37*
G04 #@! TD.AperFunction*
G04 #@! TA.AperFunction,SMDPad,CuDef*
G36*
G01*
X107015000Y-90020000D02*
X107385000Y-90020000D01*
G75*
G02*
X107520000Y-90155000I0J-135000D01*
G01*
X107520000Y-90425000D01*
G75*
G02*
X107385000Y-90560000I-135000J0D01*
G01*
X107015000Y-90560000D01*
G75*
G02*
X106880000Y-90425000I0J135000D01*
G01*
X106880000Y-90155000D01*
G75*
G02*
X107015000Y-90020000I135000J0D01*
G01*
G37*
G04 #@! TD.AperFunction*
G04 #@! TA.AperFunction,SMDPad,CuDef*
G36*
G01*
X107015000Y-91040000D02*
X107385000Y-91040000D01*
G75*
G02*
X107520000Y-91175000I0J-135000D01*
G01*
X107520000Y-91445000D01*
G75*
G02*
X107385000Y-91580000I-135000J0D01*
G01*
X107015000Y-91580000D01*
G75*
G02*
X106880000Y-91445000I0J135000D01*
G01*
X106880000Y-91175000D01*
G75*
G02*
X107015000Y-91040000I135000J0D01*
G01*
G37*
G04 #@! TD.AperFunction*
X122800000Y-79240000D03*
X122800000Y-79890000D03*
X122800000Y-80540000D03*
X124700000Y-80540000D03*
X124700000Y-79890000D03*
X124700000Y-79240000D03*
G04 #@! TA.AperFunction,SMDPad,CuDef*
G36*
G01*
X121990000Y-85995000D02*
X121990000Y-85655000D01*
G75*
G02*
X122130000Y-85515000I140000J0D01*
G01*
X122410000Y-85515000D01*
G75*
G02*
X122550000Y-85655000I0J-140000D01*
G01*
X122550000Y-85995000D01*
G75*
G02*
X122410000Y-86135000I-140000J0D01*
G01*
X122130000Y-86135000D01*
G75*
G02*
X121990000Y-85995000I0J140000D01*
G01*
G37*
G04 #@! TD.AperFunction*
G04 #@! TA.AperFunction,SMDPad,CuDef*
G36*
G01*
X122950000Y-85995000D02*
X122950000Y-85655000D01*
G75*
G02*
X123090000Y-85515000I140000J0D01*
G01*
X123370000Y-85515000D01*
G75*
G02*
X123510000Y-85655000I0J-140000D01*
G01*
X123510000Y-85995000D01*
G75*
G02*
X123370000Y-86135000I-140000J0D01*
G01*
X123090000Y-86135000D01*
G75*
G02*
X122950000Y-85995000I0J140000D01*
G01*
G37*
G04 #@! TD.AperFunction*
D11*
X129975000Y-78950000D03*
D12*
X129975000Y-81490000D03*
X129975000Y-84030000D03*
X129975000Y-86570000D03*
X129975000Y-89110000D03*
X129975000Y-91650000D03*
G04 #@! TA.AperFunction,SMDPad,CuDef*
G36*
G01*
X125815000Y-91045000D02*
X126185000Y-91045000D01*
G75*
G02*
X126320000Y-91180000I0J-135000D01*
G01*
X126320000Y-91450000D01*
G75*
G02*
X126185000Y-91585000I-135000J0D01*
G01*
X125815000Y-91585000D01*
G75*
G02*
X125680000Y-91450000I0J135000D01*
G01*
X125680000Y-91180000D01*
G75*
G02*
X125815000Y-91045000I135000J0D01*
G01*
G37*
G04 #@! TD.AperFunction*
G04 #@! TA.AperFunction,SMDPad,CuDef*
G36*
G01*
X125815000Y-92065000D02*
X126185000Y-92065000D01*
G75*
G02*
X126320000Y-92200000I0J-135000D01*
G01*
X126320000Y-92470000D01*
G75*
G02*
X126185000Y-92605000I-135000J0D01*
G01*
X125815000Y-92605000D01*
G75*
G02*
X125680000Y-92470000I0J135000D01*
G01*
X125680000Y-92200000D01*
G75*
G02*
X125815000Y-92065000I135000J0D01*
G01*
G37*
G04 #@! TD.AperFunction*
D10*
X122800000Y-87175000D03*
X122800000Y-87825000D03*
X122800000Y-88475000D03*
X124700000Y-88475000D03*
X124700000Y-87825000D03*
X124700000Y-87175000D03*
G04 #@! TA.AperFunction,SMDPad,CuDef*
G36*
G01*
X125510000Y-89655000D02*
X125510000Y-89995000D01*
G75*
G02*
X125370000Y-90135000I-140000J0D01*
G01*
X125090000Y-90135000D01*
G75*
G02*
X124950000Y-89995000I0J140000D01*
G01*
X124950000Y-89655000D01*
G75*
G02*
X125090000Y-89515000I140000J0D01*
G01*
X125370000Y-89515000D01*
G75*
G02*
X125510000Y-89655000I0J-140000D01*
G01*
G37*
G04 #@! TD.AperFunction*
G04 #@! TA.AperFunction,SMDPad,CuDef*
G36*
G01*
X124550000Y-89655000D02*
X124550000Y-89995000D01*
G75*
G02*
X124410000Y-90135000I-140000J0D01*
G01*
X124130000Y-90135000D01*
G75*
G02*
X123990000Y-89995000I0J140000D01*
G01*
X123990000Y-89655000D01*
G75*
G02*
X124130000Y-89515000I140000J0D01*
G01*
X124410000Y-89515000D01*
G75*
G02*
X124550000Y-89655000I0J-140000D01*
G01*
G37*
G04 #@! TD.AperFunction*
G04 #@! TA.AperFunction,SMDPad,CuDef*
G36*
G01*
X125815000Y-83045000D02*
X126185000Y-83045000D01*
G75*
G02*
X126320000Y-83180000I0J-135000D01*
G01*
X126320000Y-83450000D01*
G75*
G02*
X126185000Y-83585000I-135000J0D01*
G01*
X125815000Y-83585000D01*
G75*
G02*
X125680000Y-83450000I0J135000D01*
G01*
X125680000Y-83180000D01*
G75*
G02*
X125815000Y-83045000I135000J0D01*
G01*
G37*
G04 #@! TD.AperFunction*
G04 #@! TA.AperFunction,SMDPad,CuDef*
G36*
G01*
X125815000Y-84065000D02*
X126185000Y-84065000D01*
G75*
G02*
X126320000Y-84200000I0J-135000D01*
G01*
X126320000Y-84470000D01*
G75*
G02*
X126185000Y-84605000I-135000J0D01*
G01*
X125815000Y-84605000D01*
G75*
G02*
X125680000Y-84470000I0J135000D01*
G01*
X125680000Y-84200000D01*
G75*
G02*
X125815000Y-84065000I135000J0D01*
G01*
G37*
G04 #@! TD.AperFunction*
X122800000Y-83175000D03*
X122800000Y-83825000D03*
X122800000Y-84475000D03*
X124700000Y-84475000D03*
X124700000Y-83825000D03*
X124700000Y-83175000D03*
G04 #@! TA.AperFunction,SMDPad,CuDef*
G36*
G01*
X121990000Y-78060000D02*
X121990000Y-77720000D01*
G75*
G02*
X122130000Y-77580000I140000J0D01*
G01*
X122410000Y-77580000D01*
G75*
G02*
X122550000Y-77720000I0J-140000D01*
G01*
X122550000Y-78060000D01*
G75*
G02*
X122410000Y-78200000I-140000J0D01*
G01*
X122130000Y-78200000D01*
G75*
G02*
X121990000Y-78060000I0J140000D01*
G01*
G37*
G04 #@! TD.AperFunction*
G04 #@! TA.AperFunction,SMDPad,CuDef*
G36*
G01*
X122950000Y-78060000D02*
X122950000Y-77720000D01*
G75*
G02*
X123090000Y-77580000I140000J0D01*
G01*
X123370000Y-77580000D01*
G75*
G02*
X123510000Y-77720000I0J-140000D01*
G01*
X123510000Y-78060000D01*
G75*
G02*
X123370000Y-78200000I-140000J0D01*
G01*
X123090000Y-78200000D01*
G75*
G02*
X122950000Y-78060000I0J140000D01*
G01*
G37*
G04 #@! TD.AperFunction*
G04 #@! TA.AperFunction,SMDPad,CuDef*
G36*
G01*
X118660000Y-83330000D02*
X118660000Y-83670000D01*
G75*
G02*
X118520000Y-83810000I-140000J0D01*
G01*
X118240000Y-83810000D01*
G75*
G02*
X118100000Y-83670000I0J140000D01*
G01*
X118100000Y-83330000D01*
G75*
G02*
X118240000Y-83190000I140000J0D01*
G01*
X118520000Y-83190000D01*
G75*
G02*
X118660000Y-83330000I0J-140000D01*
G01*
G37*
G04 #@! TD.AperFunction*
G04 #@! TA.AperFunction,SMDPad,CuDef*
G36*
G01*
X117700000Y-83330000D02*
X117700000Y-83670000D01*
G75*
G02*
X117560000Y-83810000I-140000J0D01*
G01*
X117280000Y-83810000D01*
G75*
G02*
X117140000Y-83670000I0J140000D01*
G01*
X117140000Y-83330000D01*
G75*
G02*
X117280000Y-83190000I140000J0D01*
G01*
X117560000Y-83190000D01*
G75*
G02*
X117700000Y-83330000I0J-140000D01*
G01*
G37*
G04 #@! TD.AperFunction*
G04 #@! TA.AperFunction,SMDPad,CuDef*
G36*
G01*
X112125000Y-92043750D02*
X112125000Y-92556250D01*
G75*
G02*
X111906250Y-92775000I-218750J0D01*
G01*
X111468750Y-92775000D01*
G75*
G02*
X111250000Y-92556250I0J218750D01*
G01*
X111250000Y-92043750D01*
G75*
G02*
X111468750Y-91825000I218750J0D01*
G01*
X111906250Y-91825000D01*
G75*
G02*
X112125000Y-92043750I0J-218750D01*
G01*
G37*
G04 #@! TD.AperFunction*
G04 #@! TA.AperFunction,SMDPad,CuDef*
G36*
G01*
X110550000Y-92043750D02*
X110550000Y-92556250D01*
G75*
G02*
X110331250Y-92775000I-218750J0D01*
G01*
X109893750Y-92775000D01*
G75*
G02*
X109675000Y-92556250I0J218750D01*
G01*
X109675000Y-92043750D01*
G75*
G02*
X109893750Y-91825000I218750J0D01*
G01*
X110331250Y-91825000D01*
G75*
G02*
X110550000Y-92043750I0J-218750D01*
G01*
G37*
G04 #@! TD.AperFunction*
G04 #@! TA.AperFunction,SMDPad,CuDef*
G36*
G01*
X112880000Y-92485000D02*
X112880000Y-92115000D01*
G75*
G02*
X113015000Y-91980000I135000J0D01*
G01*
X113285000Y-91980000D01*
G75*
G02*
X113420000Y-92115000I0J-135000D01*
G01*
X113420000Y-92485000D01*
G75*
G02*
X113285000Y-92620000I-135000J0D01*
G01*
X113015000Y-92620000D01*
G75*
G02*
X112880000Y-92485000I0J135000D01*
G01*
G37*
G04 #@! TD.AperFunction*
G04 #@! TA.AperFunction,SMDPad,CuDef*
G36*
G01*
X113900000Y-92485000D02*
X113900000Y-92115000D01*
G75*
G02*
X114035000Y-91980000I135000J0D01*
G01*
X114305000Y-91980000D01*
G75*
G02*
X114440000Y-92115000I0J-135000D01*
G01*
X114440000Y-92485000D01*
G75*
G02*
X114305000Y-92620000I-135000J0D01*
G01*
X114035000Y-92620000D01*
G75*
G02*
X113900000Y-92485000I0J135000D01*
G01*
G37*
G04 #@! TD.AperFunction*
G04 #@! TA.AperFunction,SMDPad,CuDef*
G36*
G01*
X121990000Y-89995000D02*
X121990000Y-89655000D01*
G75*
G02*
X122130000Y-89515000I140000J0D01*
G01*
X122410000Y-89515000D01*
G75*
G02*
X122550000Y-89655000I0J-140000D01*
G01*
X122550000Y-89995000D01*
G75*
G02*
X122410000Y-90135000I-140000J0D01*
G01*
X122130000Y-90135000D01*
G75*
G02*
X121990000Y-89995000I0J140000D01*
G01*
G37*
G04 #@! TD.AperFunction*
G04 #@! TA.AperFunction,SMDPad,CuDef*
G36*
G01*
X122950000Y-89995000D02*
X122950000Y-89655000D01*
G75*
G02*
X123090000Y-89515000I140000J0D01*
G01*
X123370000Y-89515000D01*
G75*
G02*
X123510000Y-89655000I0J-140000D01*
G01*
X123510000Y-89995000D01*
G75*
G02*
X123370000Y-90135000I-140000J0D01*
G01*
X123090000Y-90135000D01*
G75*
G02*
X122950000Y-89995000I0J140000D01*
G01*
G37*
G04 #@! TD.AperFunction*
G04 #@! TA.AperFunction,SMDPad,CuDef*
G36*
G01*
X121990000Y-81995000D02*
X121990000Y-81655000D01*
G75*
G02*
X122130000Y-81515000I140000J0D01*
G01*
X122410000Y-81515000D01*
G75*
G02*
X122550000Y-81655000I0J-140000D01*
G01*
X122550000Y-81995000D01*
G75*
G02*
X122410000Y-82135000I-140000J0D01*
G01*
X122130000Y-82135000D01*
G75*
G02*
X121990000Y-81995000I0J140000D01*
G01*
G37*
G04 #@! TD.AperFunction*
G04 #@! TA.AperFunction,SMDPad,CuDef*
G36*
G01*
X122950000Y-81995000D02*
X122950000Y-81655000D01*
G75*
G02*
X123090000Y-81515000I140000J0D01*
G01*
X123370000Y-81515000D01*
G75*
G02*
X123510000Y-81655000I0J-140000D01*
G01*
X123510000Y-81995000D01*
G75*
G02*
X123370000Y-82135000I-140000J0D01*
G01*
X123090000Y-82135000D01*
G75*
G02*
X122950000Y-81995000I0J140000D01*
G01*
G37*
G04 #@! TD.AperFunction*
G04 #@! TA.AperFunction,SMDPad,CuDef*
G36*
G01*
X125530000Y-81655000D02*
X125530000Y-81995000D01*
G75*
G02*
X125390000Y-82135000I-140000J0D01*
G01*
X125110000Y-82135000D01*
G75*
G02*
X124970000Y-81995000I0J140000D01*
G01*
X124970000Y-81655000D01*
G75*
G02*
X125110000Y-81515000I140000J0D01*
G01*
X125390000Y-81515000D01*
G75*
G02*
X125530000Y-81655000I0J-140000D01*
G01*
G37*
G04 #@! TD.AperFunction*
G04 #@! TA.AperFunction,SMDPad,CuDef*
G36*
G01*
X124570000Y-81655000D02*
X124570000Y-81995000D01*
G75*
G02*
X124430000Y-82135000I-140000J0D01*
G01*
X124150000Y-82135000D01*
G75*
G02*
X124010000Y-81995000I0J140000D01*
G01*
X124010000Y-81655000D01*
G75*
G02*
X124150000Y-81515000I140000J0D01*
G01*
X124430000Y-81515000D01*
G75*
G02*
X124570000Y-81655000I0J-140000D01*
G01*
G37*
G04 #@! TD.AperFunction*
G04 #@! TA.AperFunction,SMDPad,CuDef*
G36*
G01*
X121315000Y-79110000D02*
X121685000Y-79110000D01*
G75*
G02*
X121820000Y-79245000I0J-135000D01*
G01*
X121820000Y-79515000D01*
G75*
G02*
X121685000Y-79650000I-135000J0D01*
G01*
X121315000Y-79650000D01*
G75*
G02*
X121180000Y-79515000I0J135000D01*
G01*
X121180000Y-79245000D01*
G75*
G02*
X121315000Y-79110000I135000J0D01*
G01*
G37*
G04 #@! TD.AperFunction*
G04 #@! TA.AperFunction,SMDPad,CuDef*
G36*
G01*
X121315000Y-80130000D02*
X121685000Y-80130000D01*
G75*
G02*
X121820000Y-80265000I0J-135000D01*
G01*
X121820000Y-80535000D01*
G75*
G02*
X121685000Y-80670000I-135000J0D01*
G01*
X121315000Y-80670000D01*
G75*
G02*
X121180000Y-80535000I0J135000D01*
G01*
X121180000Y-80265000D01*
G75*
G02*
X121315000Y-80130000I135000J0D01*
G01*
G37*
G04 #@! TD.AperFunction*
G04 #@! TA.AperFunction,SMDPad,CuDef*
G36*
G01*
X107418750Y-81800000D02*
X108181250Y-81800000D01*
G75*
G02*
X108400000Y-82018750I0J-218750D01*
G01*
X108400000Y-82456250D01*
G75*
G02*
X108181250Y-82675000I-218750J0D01*
G01*
X107418750Y-82675000D01*
G75*
G02*
X107200000Y-82456250I0J218750D01*
G01*
X107200000Y-82018750D01*
G75*
G02*
X107418750Y-81800000I218750J0D01*
G01*
G37*
G04 #@! TD.AperFunction*
G04 #@! TA.AperFunction,SMDPad,CuDef*
G36*
G01*
X107418750Y-83925000D02*
X108181250Y-83925000D01*
G75*
G02*
X108400000Y-84143750I0J-218750D01*
G01*
X108400000Y-84581250D01*
G75*
G02*
X108181250Y-84800000I-218750J0D01*
G01*
X107418750Y-84800000D01*
G75*
G02*
X107200000Y-84581250I0J218750D01*
G01*
X107200000Y-84143750D01*
G75*
G02*
X107418750Y-83925000I218750J0D01*
G01*
G37*
G04 #@! TD.AperFunction*
G04 #@! TA.AperFunction,SMDPad,CuDef*
G36*
G01*
X108975000Y-84150000D02*
X108975000Y-83650000D01*
G75*
G02*
X109200000Y-83425000I225000J0D01*
G01*
X109650000Y-83425000D01*
G75*
G02*
X109875000Y-83650000I0J-225000D01*
G01*
X109875000Y-84150000D01*
G75*
G02*
X109650000Y-84375000I-225000J0D01*
G01*
X109200000Y-84375000D01*
G75*
G02*
X108975000Y-84150000I0J225000D01*
G01*
G37*
G04 #@! TD.AperFunction*
G04 #@! TA.AperFunction,SMDPad,CuDef*
G36*
G01*
X110525000Y-84150000D02*
X110525000Y-83650000D01*
G75*
G02*
X110750000Y-83425000I225000J0D01*
G01*
X111200000Y-83425000D01*
G75*
G02*
X111425000Y-83650000I0J-225000D01*
G01*
X111425000Y-84150000D01*
G75*
G02*
X111200000Y-84375000I-225000J0D01*
G01*
X110750000Y-84375000D01*
G75*
G02*
X110525000Y-84150000I0J225000D01*
G01*
G37*
G04 #@! TD.AperFunction*
D11*
X111000000Y-81000000D03*
D12*
X113540000Y-81000000D03*
X116080000Y-81000000D03*
X118620000Y-81000000D03*
G04 #@! TA.AperFunction,SMDPad,CuDef*
G36*
G01*
X111030000Y-87940000D02*
X111370000Y-87940000D01*
G75*
G02*
X111510000Y-88080000I0J-140000D01*
G01*
X111510000Y-88360000D01*
G75*
G02*
X111370000Y-88500000I-140000J0D01*
G01*
X111030000Y-88500000D01*
G75*
G02*
X110890000Y-88360000I0J140000D01*
G01*
X110890000Y-88080000D01*
G75*
G02*
X111030000Y-87940000I140000J0D01*
G01*
G37*
G04 #@! TD.AperFunction*
G04 #@! TA.AperFunction,SMDPad,CuDef*
G36*
G01*
X111030000Y-88900000D02*
X111370000Y-88900000D01*
G75*
G02*
X111510000Y-89040000I0J-140000D01*
G01*
X111510000Y-89320000D01*
G75*
G02*
X111370000Y-89460000I-140000J0D01*
G01*
X111030000Y-89460000D01*
G75*
G02*
X110890000Y-89320000I0J140000D01*
G01*
X110890000Y-89040000D01*
G75*
G02*
X111030000Y-88900000I140000J0D01*
G01*
G37*
G04 #@! TD.AperFunction*
D13*
X105395000Y-82050000D03*
X105395000Y-82850000D03*
D14*
X105395000Y-84050000D03*
X105395000Y-85050000D03*
X105395000Y-85550000D03*
X105395000Y-86550000D03*
D13*
X105395000Y-87750000D03*
X105395000Y-88550000D03*
X105395000Y-88550000D03*
X105395000Y-87750000D03*
D14*
X105395000Y-87050000D03*
X105395000Y-86050000D03*
X105395000Y-84550000D03*
X105395000Y-83550000D03*
D13*
X105395000Y-82850000D03*
X105395000Y-82050000D03*
D15*
X104480000Y-80980000D03*
D16*
X100300000Y-80980000D03*
D15*
X104480000Y-89620000D03*
D16*
X100300000Y-89620000D03*
G04 #@! TA.AperFunction,SMDPad,CuDef*
G36*
G01*
X121315000Y-83045000D02*
X121685000Y-83045000D01*
G75*
G02*
X121820000Y-83180000I0J-135000D01*
G01*
X121820000Y-83450000D01*
G75*
G02*
X121685000Y-83585000I-135000J0D01*
G01*
X121315000Y-83585000D01*
G75*
G02*
X121180000Y-83450000I0J135000D01*
G01*
X121180000Y-83180000D01*
G75*
G02*
X121315000Y-83045000I135000J0D01*
G01*
G37*
G04 #@! TD.AperFunction*
G04 #@! TA.AperFunction,SMDPad,CuDef*
G36*
G01*
X121315000Y-84065000D02*
X121685000Y-84065000D01*
G75*
G02*
X121820000Y-84200000I0J-135000D01*
G01*
X121820000Y-84470000D01*
G75*
G02*
X121685000Y-84605000I-135000J0D01*
G01*
X121315000Y-84605000D01*
G75*
G02*
X121180000Y-84470000I0J135000D01*
G01*
X121180000Y-84200000D01*
G75*
G02*
X121315000Y-84065000I135000J0D01*
G01*
G37*
G04 #@! TD.AperFunction*
G04 #@! TA.AperFunction,SMDPad,CuDef*
G36*
G01*
X117040000Y-90770000D02*
X117040000Y-90430000D01*
G75*
G02*
X117180000Y-90290000I140000J0D01*
G01*
X117460000Y-90290000D01*
G75*
G02*
X117600000Y-90430000I0J-140000D01*
G01*
X117600000Y-90770000D01*
G75*
G02*
X117460000Y-90910000I-140000J0D01*
G01*
X117180000Y-90910000D01*
G75*
G02*
X117040000Y-90770000I0J140000D01*
G01*
G37*
G04 #@! TD.AperFunction*
G04 #@! TA.AperFunction,SMDPad,CuDef*
G36*
G01*
X118000000Y-90770000D02*
X118000000Y-90430000D01*
G75*
G02*
X118140000Y-90290000I140000J0D01*
G01*
X118420000Y-90290000D01*
G75*
G02*
X118560000Y-90430000I0J-140000D01*
G01*
X118560000Y-90770000D01*
G75*
G02*
X118420000Y-90910000I-140000J0D01*
G01*
X118140000Y-90910000D01*
G75*
G02*
X118000000Y-90770000I0J140000D01*
G01*
G37*
G04 #@! TD.AperFunction*
G04 #@! TA.AperFunction,SMDPad,CuDef*
G36*
G01*
X121315000Y-87045000D02*
X121685000Y-87045000D01*
G75*
G02*
X121820000Y-87180000I0J-135000D01*
G01*
X121820000Y-87450000D01*
G75*
G02*
X121685000Y-87585000I-135000J0D01*
G01*
X121315000Y-87585000D01*
G75*
G02*
X121180000Y-87450000I0J135000D01*
G01*
X121180000Y-87180000D01*
G75*
G02*
X121315000Y-87045000I135000J0D01*
G01*
G37*
G04 #@! TD.AperFunction*
G04 #@! TA.AperFunction,SMDPad,CuDef*
G36*
G01*
X121315000Y-88065000D02*
X121685000Y-88065000D01*
G75*
G02*
X121820000Y-88200000I0J-135000D01*
G01*
X121820000Y-88470000D01*
G75*
G02*
X121685000Y-88605000I-135000J0D01*
G01*
X121315000Y-88605000D01*
G75*
G02*
X121180000Y-88470000I0J135000D01*
G01*
X121180000Y-88200000D01*
G75*
G02*
X121315000Y-88065000I135000J0D01*
G01*
G37*
G04 #@! TD.AperFunction*
G04 #@! TA.AperFunction,SMDPad,CuDef*
G36*
G01*
X111975000Y-88775000D02*
X111975000Y-88225000D01*
G75*
G02*
X112175000Y-88025000I200000J0D01*
G01*
X112575000Y-88025000D01*
G75*
G02*
X112775000Y-88225000I0J-200000D01*
G01*
X112775000Y-88775000D01*
G75*
G02*
X112575000Y-88975000I-200000J0D01*
G01*
X112175000Y-88975000D01*
G75*
G02*
X111975000Y-88775000I0J200000D01*
G01*
G37*
G04 #@! TD.AperFunction*
G04 #@! TA.AperFunction,SMDPad,CuDef*
G36*
G01*
X113625000Y-88775000D02*
X113625000Y-88225000D01*
G75*
G02*
X113825000Y-88025000I200000J0D01*
G01*
X114225000Y-88025000D01*
G75*
G02*
X114425000Y-88225000I0J-200000D01*
G01*
X114425000Y-88775000D01*
G75*
G02*
X114225000Y-88975000I-200000J0D01*
G01*
X113825000Y-88975000D01*
G75*
G02*
X113625000Y-88775000I0J200000D01*
G01*
G37*
G04 #@! TD.AperFunction*
G04 #@! TA.AperFunction,SMDPad,CuDef*
G36*
G01*
X118550000Y-84600000D02*
X118700000Y-84600000D01*
G75*
G02*
X118775000Y-84675000I0J-75000D01*
G01*
X118775000Y-85375000D01*
G75*
G02*
X118700000Y-85450000I-75000J0D01*
G01*
X118550000Y-85450000D01*
G75*
G02*
X118475000Y-85375000I0J75000D01*
G01*
X118475000Y-84675000D01*
G75*
G02*
X118550000Y-84600000I75000J0D01*
G01*
G37*
G04 #@! TD.AperFunction*
G04 #@! TA.AperFunction,SMDPad,CuDef*
G36*
G01*
X117900000Y-84600000D02*
X118050000Y-84600000D01*
G75*
G02*
X118125000Y-84675000I0J-75000D01*
G01*
X118125000Y-85375000D01*
G75*
G02*
X118050000Y-85450000I-75000J0D01*
G01*
X117900000Y-85450000D01*
G75*
G02*
X117825000Y-85375000I0J75000D01*
G01*
X117825000Y-84675000D01*
G75*
G02*
X117900000Y-84600000I75000J0D01*
G01*
G37*
G04 #@! TD.AperFunction*
G04 #@! TA.AperFunction,SMDPad,CuDef*
G36*
G01*
X117250000Y-84600000D02*
X117400000Y-84600000D01*
G75*
G02*
X117475000Y-84675000I0J-75000D01*
G01*
X117475000Y-85375000D01*
G75*
G02*
X117400000Y-85450000I-75000J0D01*
G01*
X117250000Y-85450000D01*
G75*
G02*
X117175000Y-85375000I0J75000D01*
G01*
X117175000Y-84675000D01*
G75*
G02*
X117250000Y-84600000I75000J0D01*
G01*
G37*
G04 #@! TD.AperFunction*
G04 #@! TA.AperFunction,SMDPad,CuDef*
G36*
G01*
X116600000Y-84600000D02*
X116750000Y-84600000D01*
G75*
G02*
X116825000Y-84675000I0J-75000D01*
G01*
X116825000Y-85375000D01*
G75*
G02*
X116750000Y-85450000I-75000J0D01*
G01*
X116600000Y-85450000D01*
G75*
G02*
X116525000Y-85375000I0J75000D01*
G01*
X116525000Y-84675000D01*
G75*
G02*
X116600000Y-84600000I75000J0D01*
G01*
G37*
G04 #@! TD.AperFunction*
G04 #@! TA.AperFunction,SMDPad,CuDef*
G36*
G01*
X115350000Y-85850000D02*
X116050000Y-85850000D01*
G75*
G02*
X116125000Y-85925000I0J-75000D01*
G01*
X116125000Y-86075000D01*
G75*
G02*
X116050000Y-86150000I-75000J0D01*
G01*
X115350000Y-86150000D01*
G75*
G02*
X115275000Y-86075000I0J75000D01*
G01*
X115275000Y-85925000D01*
G75*
G02*
X115350000Y-85850000I75000J0D01*
G01*
G37*
G04 #@! TD.AperFunction*
G04 #@! TA.AperFunction,SMDPad,CuDef*
G36*
G01*
X115350000Y-86500000D02*
X116050000Y-86500000D01*
G75*
G02*
X116125000Y-86575000I0J-75000D01*
G01*
X116125000Y-86725000D01*
G75*
G02*
X116050000Y-86800000I-75000J0D01*
G01*
X115350000Y-86800000D01*
G75*
G02*
X115275000Y-86725000I0J75000D01*
G01*
X115275000Y-86575000D01*
G75*
G02*
X115350000Y-86500000I75000J0D01*
G01*
G37*
G04 #@! TD.AperFunction*
G04 #@! TA.AperFunction,SMDPad,CuDef*
G36*
G01*
X115350000Y-87150000D02*
X116050000Y-87150000D01*
G75*
G02*
X116125000Y-87225000I0J-75000D01*
G01*
X116125000Y-87375000D01*
G75*
G02*
X116050000Y-87450000I-75000J0D01*
G01*
X115350000Y-87450000D01*
G75*
G02*
X115275000Y-87375000I0J75000D01*
G01*
X115275000Y-87225000D01*
G75*
G02*
X115350000Y-87150000I75000J0D01*
G01*
G37*
G04 #@! TD.AperFunction*
G04 #@! TA.AperFunction,SMDPad,CuDef*
G36*
G01*
X115350000Y-87800000D02*
X116050000Y-87800000D01*
G75*
G02*
X116125000Y-87875000I0J-75000D01*
G01*
X116125000Y-88025000D01*
G75*
G02*
X116050000Y-88100000I-75000J0D01*
G01*
X115350000Y-88100000D01*
G75*
G02*
X115275000Y-88025000I0J75000D01*
G01*
X115275000Y-87875000D01*
G75*
G02*
X115350000Y-87800000I75000J0D01*
G01*
G37*
G04 #@! TD.AperFunction*
G04 #@! TA.AperFunction,SMDPad,CuDef*
G36*
G01*
X116600000Y-88500000D02*
X116750000Y-88500000D01*
G75*
G02*
X116825000Y-88575000I0J-75000D01*
G01*
X116825000Y-89275000D01*
G75*
G02*
X116750000Y-89350000I-75000J0D01*
G01*
X116600000Y-89350000D01*
G75*
G02*
X116525000Y-89275000I0J75000D01*
G01*
X116525000Y-88575000D01*
G75*
G02*
X116600000Y-88500000I75000J0D01*
G01*
G37*
G04 #@! TD.AperFunction*
G04 #@! TA.AperFunction,SMDPad,CuDef*
G36*
G01*
X117250000Y-88500000D02*
X117400000Y-88500000D01*
G75*
G02*
X117475000Y-88575000I0J-75000D01*
G01*
X117475000Y-89275000D01*
G75*
G02*
X117400000Y-89350000I-75000J0D01*
G01*
X117250000Y-89350000D01*
G75*
G02*
X117175000Y-89275000I0J75000D01*
G01*
X117175000Y-88575000D01*
G75*
G02*
X117250000Y-88500000I75000J0D01*
G01*
G37*
G04 #@! TD.AperFunction*
G04 #@! TA.AperFunction,SMDPad,CuDef*
G36*
G01*
X117900000Y-88500000D02*
X118050000Y-88500000D01*
G75*
G02*
X118125000Y-88575000I0J-75000D01*
G01*
X118125000Y-89275000D01*
G75*
G02*
X118050000Y-89350000I-75000J0D01*
G01*
X117900000Y-89350000D01*
G75*
G02*
X117825000Y-89275000I0J75000D01*
G01*
X117825000Y-88575000D01*
G75*
G02*
X117900000Y-88500000I75000J0D01*
G01*
G37*
G04 #@! TD.AperFunction*
G04 #@! TA.AperFunction,SMDPad,CuDef*
G36*
G01*
X118550000Y-88500000D02*
X118700000Y-88500000D01*
G75*
G02*
X118775000Y-88575000I0J-75000D01*
G01*
X118775000Y-89275000D01*
G75*
G02*
X118700000Y-89350000I-75000J0D01*
G01*
X118550000Y-89350000D01*
G75*
G02*
X118475000Y-89275000I0J75000D01*
G01*
X118475000Y-88575000D01*
G75*
G02*
X118550000Y-88500000I75000J0D01*
G01*
G37*
G04 #@! TD.AperFunction*
G04 #@! TA.AperFunction,SMDPad,CuDef*
G36*
G01*
X119250000Y-87800000D02*
X119950000Y-87800000D01*
G75*
G02*
X120025000Y-87875000I0J-75000D01*
G01*
X120025000Y-88025000D01*
G75*
G02*
X119950000Y-88100000I-75000J0D01*
G01*
X119250000Y-88100000D01*
G75*
G02*
X119175000Y-88025000I0J75000D01*
G01*
X119175000Y-87875000D01*
G75*
G02*
X119250000Y-87800000I75000J0D01*
G01*
G37*
G04 #@! TD.AperFunction*
G04 #@! TA.AperFunction,SMDPad,CuDef*
G36*
G01*
X119250000Y-87150000D02*
X119950000Y-87150000D01*
G75*
G02*
X120025000Y-87225000I0J-75000D01*
G01*
X120025000Y-87375000D01*
G75*
G02*
X119950000Y-87450000I-75000J0D01*
G01*
X119250000Y-87450000D01*
G75*
G02*
X119175000Y-87375000I0J75000D01*
G01*
X119175000Y-87225000D01*
G75*
G02*
X119250000Y-87150000I75000J0D01*
G01*
G37*
G04 #@! TD.AperFunction*
G04 #@! TA.AperFunction,SMDPad,CuDef*
G36*
G01*
X119250000Y-86500000D02*
X119950000Y-86500000D01*
G75*
G02*
X120025000Y-86575000I0J-75000D01*
G01*
X120025000Y-86725000D01*
G75*
G02*
X119950000Y-86800000I-75000J0D01*
G01*
X119250000Y-86800000D01*
G75*
G02*
X119175000Y-86725000I0J75000D01*
G01*
X119175000Y-86575000D01*
G75*
G02*
X119250000Y-86500000I75000J0D01*
G01*
G37*
G04 #@! TD.AperFunction*
G04 #@! TA.AperFunction,SMDPad,CuDef*
G36*
G01*
X119250000Y-85850000D02*
X119950000Y-85850000D01*
G75*
G02*
X120025000Y-85925000I0J-75000D01*
G01*
X120025000Y-86075000D01*
G75*
G02*
X119950000Y-86150000I-75000J0D01*
G01*
X119250000Y-86150000D01*
G75*
G02*
X119175000Y-86075000I0J75000D01*
G01*
X119175000Y-85925000D01*
G75*
G02*
X119250000Y-85850000I75000J0D01*
G01*
G37*
G04 #@! TD.AperFunction*
D17*
X117650000Y-86975000D03*
G04 #@! TA.AperFunction,SMDPad,CuDef*
G36*
G01*
X111370000Y-87460000D02*
X111030000Y-87460000D01*
G75*
G02*
X110890000Y-87320000I0J140000D01*
G01*
X110890000Y-87040000D01*
G75*
G02*
X111030000Y-86900000I140000J0D01*
G01*
X111370000Y-86900000D01*
G75*
G02*
X111510000Y-87040000I0J-140000D01*
G01*
X111510000Y-87320000D01*
G75*
G02*
X111370000Y-87460000I-140000J0D01*
G01*
G37*
G04 #@! TD.AperFunction*
G04 #@! TA.AperFunction,SMDPad,CuDef*
G36*
G01*
X111370000Y-86500000D02*
X111030000Y-86500000D01*
G75*
G02*
X110890000Y-86360000I0J140000D01*
G01*
X110890000Y-86080000D01*
G75*
G02*
X111030000Y-85940000I140000J0D01*
G01*
X111370000Y-85940000D01*
G75*
G02*
X111510000Y-86080000I0J-140000D01*
G01*
X111510000Y-86360000D01*
G75*
G02*
X111370000Y-86500000I-140000J0D01*
G01*
G37*
G04 #@! TD.AperFunction*
G04 #@! TA.AperFunction,SMDPad,CuDef*
G36*
G01*
X125815000Y-79110000D02*
X126185000Y-79110000D01*
G75*
G02*
X126320000Y-79245000I0J-135000D01*
G01*
X126320000Y-79515000D01*
G75*
G02*
X126185000Y-79650000I-135000J0D01*
G01*
X125815000Y-79650000D01*
G75*
G02*
X125680000Y-79515000I0J135000D01*
G01*
X125680000Y-79245000D01*
G75*
G02*
X125815000Y-79110000I135000J0D01*
G01*
G37*
G04 #@! TD.AperFunction*
G04 #@! TA.AperFunction,SMDPad,CuDef*
G36*
G01*
X125815000Y-80130000D02*
X126185000Y-80130000D01*
G75*
G02*
X126320000Y-80265000I0J-135000D01*
G01*
X126320000Y-80535000D01*
G75*
G02*
X126185000Y-80670000I-135000J0D01*
G01*
X125815000Y-80670000D01*
G75*
G02*
X125680000Y-80535000I0J135000D01*
G01*
X125680000Y-80265000D01*
G75*
G02*
X125815000Y-80130000I135000J0D01*
G01*
G37*
G04 #@! TD.AperFunction*
G04 #@! TA.AperFunction,SMDPad,CuDef*
G36*
G01*
X108585000Y-81280000D02*
X108215000Y-81280000D01*
G75*
G02*
X108080000Y-81145000I0J135000D01*
G01*
X108080000Y-80875000D01*
G75*
G02*
X108215000Y-80740000I135000J0D01*
G01*
X108585000Y-80740000D01*
G75*
G02*
X108720000Y-80875000I0J-135000D01*
G01*
X108720000Y-81145000D01*
G75*
G02*
X108585000Y-81280000I-135000J0D01*
G01*
G37*
G04 #@! TD.AperFunction*
G04 #@! TA.AperFunction,SMDPad,CuDef*
G36*
G01*
X108585000Y-80260000D02*
X108215000Y-80260000D01*
G75*
G02*
X108080000Y-80125000I0J135000D01*
G01*
X108080000Y-79855000D01*
G75*
G02*
X108215000Y-79720000I135000J0D01*
G01*
X108585000Y-79720000D01*
G75*
G02*
X108720000Y-79855000I0J-135000D01*
G01*
X108720000Y-80125000D01*
G75*
G02*
X108585000Y-80260000I-135000J0D01*
G01*
G37*
G04 #@! TD.AperFunction*
G04 #@! TA.AperFunction,SMDPad,CuDef*
G36*
G01*
X107570000Y-81260000D02*
X107230000Y-81260000D01*
G75*
G02*
X107090000Y-81120000I0J140000D01*
G01*
X107090000Y-80840000D01*
G75*
G02*
X107230000Y-80700000I140000J0D01*
G01*
X107570000Y-80700000D01*
G75*
G02*
X107710000Y-80840000I0J-140000D01*
G01*
X107710000Y-81120000D01*
G75*
G02*
X107570000Y-81260000I-140000J0D01*
G01*
G37*
G04 #@! TD.AperFunction*
G04 #@! TA.AperFunction,SMDPad,CuDef*
G36*
G01*
X107570000Y-80300000D02*
X107230000Y-80300000D01*
G75*
G02*
X107090000Y-80160000I0J140000D01*
G01*
X107090000Y-79880000D01*
G75*
G02*
X107230000Y-79740000I140000J0D01*
G01*
X107570000Y-79740000D01*
G75*
G02*
X107710000Y-79880000I0J-140000D01*
G01*
X107710000Y-80160000D01*
G75*
G02*
X107570000Y-80300000I-140000J0D01*
G01*
G37*
G04 #@! TD.AperFunction*
G04 #@! TA.AperFunction,SMDPad,CuDef*
G36*
G01*
X125815000Y-87045000D02*
X126185000Y-87045000D01*
G75*
G02*
X126320000Y-87180000I0J-135000D01*
G01*
X126320000Y-87450000D01*
G75*
G02*
X126185000Y-87585000I-135000J0D01*
G01*
X125815000Y-87585000D01*
G75*
G02*
X125680000Y-87450000I0J135000D01*
G01*
X125680000Y-87180000D01*
G75*
G02*
X125815000Y-87045000I135000J0D01*
G01*
G37*
G04 #@! TD.AperFunction*
G04 #@! TA.AperFunction,SMDPad,CuDef*
G36*
G01*
X125815000Y-88065000D02*
X126185000Y-88065000D01*
G75*
G02*
X126320000Y-88200000I0J-135000D01*
G01*
X126320000Y-88470000D01*
G75*
G02*
X126185000Y-88605000I-135000J0D01*
G01*
X125815000Y-88605000D01*
G75*
G02*
X125680000Y-88470000I0J135000D01*
G01*
X125680000Y-88200000D01*
G75*
G02*
X125815000Y-88065000I135000J0D01*
G01*
G37*
G04 #@! TD.AperFunction*
G04 #@! TA.AperFunction,SMDPad,CuDef*
G36*
G01*
X108100000Y-89300000D02*
X107800000Y-89300000D01*
G75*
G02*
X107650000Y-89150000I0J150000D01*
G01*
X107650000Y-88125000D01*
G75*
G02*
X107800000Y-87975000I150000J0D01*
G01*
X108100000Y-87975000D01*
G75*
G02*
X108250000Y-88125000I0J-150000D01*
G01*
X108250000Y-89150000D01*
G75*
G02*
X108100000Y-89300000I-150000J0D01*
G01*
G37*
G04 #@! TD.AperFunction*
G04 #@! TA.AperFunction,SMDPad,CuDef*
G36*
G01*
X109050000Y-89300000D02*
X108750000Y-89300000D01*
G75*
G02*
X108600000Y-89150000I0J150000D01*
G01*
X108600000Y-88125000D01*
G75*
G02*
X108750000Y-87975000I150000J0D01*
G01*
X109050000Y-87975000D01*
G75*
G02*
X109200000Y-88125000I0J-150000D01*
G01*
X109200000Y-89150000D01*
G75*
G02*
X109050000Y-89300000I-150000J0D01*
G01*
G37*
G04 #@! TD.AperFunction*
G04 #@! TA.AperFunction,SMDPad,CuDef*
G36*
G01*
X110000000Y-89300000D02*
X109700000Y-89300000D01*
G75*
G02*
X109550000Y-89150000I0J150000D01*
G01*
X109550000Y-88125000D01*
G75*
G02*
X109700000Y-87975000I150000J0D01*
G01*
X110000000Y-87975000D01*
G75*
G02*
X110150000Y-88125000I0J-150000D01*
G01*
X110150000Y-89150000D01*
G75*
G02*
X110000000Y-89300000I-150000J0D01*
G01*
G37*
G04 #@! TD.AperFunction*
G04 #@! TA.AperFunction,SMDPad,CuDef*
G36*
G01*
X110000000Y-87025000D02*
X109700000Y-87025000D01*
G75*
G02*
X109550000Y-86875000I0J150000D01*
G01*
X109550000Y-85850000D01*
G75*
G02*
X109700000Y-85700000I150000J0D01*
G01*
X110000000Y-85700000D01*
G75*
G02*
X110150000Y-85850000I0J-150000D01*
G01*
X110150000Y-86875000D01*
G75*
G02*
X110000000Y-87025000I-150000J0D01*
G01*
G37*
G04 #@! TD.AperFunction*
G04 #@! TA.AperFunction,SMDPad,CuDef*
G36*
G01*
X109050000Y-87025000D02*
X108750000Y-87025000D01*
G75*
G02*
X108600000Y-86875000I0J150000D01*
G01*
X108600000Y-85850000D01*
G75*
G02*
X108750000Y-85700000I150000J0D01*
G01*
X109050000Y-85700000D01*
G75*
G02*
X109200000Y-85850000I0J-150000D01*
G01*
X109200000Y-86875000D01*
G75*
G02*
X109050000Y-87025000I-150000J0D01*
G01*
G37*
G04 #@! TD.AperFunction*
G04 #@! TA.AperFunction,SMDPad,CuDef*
G36*
G01*
X108100000Y-87025000D02*
X107800000Y-87025000D01*
G75*
G02*
X107650000Y-86875000I0J150000D01*
G01*
X107650000Y-85850000D01*
G75*
G02*
X107800000Y-85700000I150000J0D01*
G01*
X108100000Y-85700000D01*
G75*
G02*
X108250000Y-85850000I0J-150000D01*
G01*
X108250000Y-86875000D01*
G75*
G02*
X108100000Y-87025000I-150000J0D01*
G01*
G37*
G04 #@! TD.AperFunction*
D18*
X114700000Y-84900000D03*
X116675000Y-90425000D03*
X103050000Y-88600000D03*
X119800000Y-92300000D03*
X103050000Y-82050000D03*
X123750000Y-92500000D03*
X112400000Y-89700000D03*
X123750000Y-83150000D03*
X112000000Y-85600000D03*
X115100000Y-83800000D03*
X123750000Y-79250000D03*
X123750000Y-87200000D03*
X107400000Y-79050000D03*
X123750000Y-91150000D03*
X106450000Y-81250000D03*
X127600000Y-90200000D03*
X108100000Y-91600000D03*
X114300000Y-89600000D03*
X123750000Y-84500000D03*
X108400000Y-79050000D03*
X110950000Y-82950000D03*
X111950000Y-83900000D03*
X132450000Y-77900000D03*
X119700000Y-89200000D03*
X116800000Y-82900000D03*
X109200000Y-89600000D03*
X106300000Y-89500000D03*
X126100000Y-77900000D03*
X120150000Y-77900000D03*
X126000000Y-81000000D03*
X126000000Y-85000000D03*
X126000000Y-89000000D03*
X118000000Y-89700000D03*
X117900000Y-92300000D03*
X121550000Y-81150000D03*
X120000000Y-83500000D03*
X121500000Y-86595000D03*
X119600000Y-85400000D03*
X117975000Y-84214054D03*
X121500000Y-85100000D03*
X121500000Y-90595000D03*
X116300000Y-84000000D03*
D19*
X114700000Y-84900000D02*
X109600000Y-84900000D01*
X109425000Y-83900000D02*
X109425000Y-85075000D01*
X109425000Y-82575000D02*
X111000000Y-81000000D01*
X108262500Y-83900000D02*
X107800000Y-84362500D01*
X108900000Y-85600000D02*
X108900000Y-86362500D01*
X109425000Y-83900000D02*
X108262500Y-83900000D01*
X116850000Y-90600000D02*
X117320000Y-90600000D01*
X109425000Y-83900000D02*
X109425000Y-82575000D01*
D20*
X117325000Y-90595000D02*
X117320000Y-90600000D01*
D19*
X116675000Y-90425000D02*
X116850000Y-90600000D01*
X109600000Y-84900000D02*
X109425000Y-85075000D01*
X109425000Y-85075000D02*
X108900000Y-85600000D01*
D20*
X117325000Y-88925000D02*
X117325000Y-90595000D01*
X117325000Y-85025000D02*
X117325000Y-83595000D01*
X117325000Y-83595000D02*
X117420000Y-83500000D01*
D19*
X125250000Y-81825000D02*
X125250000Y-82250000D01*
X125210000Y-86340000D02*
X124700000Y-86850000D01*
X115100000Y-77900000D02*
X120150000Y-77900000D01*
X126850000Y-83350000D02*
X126035000Y-83350000D01*
X126090000Y-77890000D02*
X126100000Y-77900000D01*
X126000000Y-79380000D02*
X126720000Y-79380000D01*
X124700000Y-86850000D02*
X124700000Y-87175000D01*
X125230000Y-90220000D02*
X124700000Y-90750000D01*
X113540000Y-79460000D02*
X113540000Y-81000000D01*
X126850000Y-78850000D02*
X126850000Y-78650000D01*
X126535000Y-91315000D02*
X126850000Y-91000000D01*
X125230000Y-89825000D02*
X126825000Y-89825000D01*
X125210000Y-85825000D02*
X125210000Y-86340000D01*
X126850000Y-85850000D02*
X126850000Y-83350000D01*
X126015000Y-87300000D02*
X126000000Y-87315000D01*
X126850000Y-85850000D02*
X125235000Y-85850000D01*
X125230000Y-89825000D02*
X125230000Y-90220000D01*
X124700000Y-78915000D02*
X124700000Y-79240000D01*
X126850000Y-83350000D02*
X126850000Y-81800000D01*
X126850000Y-87300000D02*
X126015000Y-87300000D01*
X125250000Y-81825000D02*
X126825000Y-81825000D01*
X126850000Y-89850000D02*
X126850000Y-87300000D01*
X115100000Y-77900000D02*
X113540000Y-79460000D01*
X125230000Y-77890000D02*
X126090000Y-77890000D01*
X126000000Y-91315000D02*
X126535000Y-91315000D01*
X126850000Y-78650000D02*
X126100000Y-77900000D01*
X126850000Y-87300000D02*
X126850000Y-85850000D01*
X129975000Y-78950000D02*
X126950000Y-78950000D01*
X124700000Y-82800000D02*
X124700000Y-83175000D01*
X125230000Y-78385000D02*
X124700000Y-78915000D01*
X125230000Y-77890000D02*
X125230000Y-78385000D01*
X126850000Y-81800000D02*
X126850000Y-79250000D01*
X126850000Y-79250000D02*
X126850000Y-78850000D01*
X124700000Y-90750000D02*
X124700000Y-91175000D01*
X125235000Y-85850000D02*
X125210000Y-85825000D01*
X126825000Y-89825000D02*
X126850000Y-89850000D01*
X126035000Y-83350000D02*
X126000000Y-83315000D01*
X125250000Y-82250000D02*
X124700000Y-82800000D01*
X126850000Y-91000000D02*
X126850000Y-89850000D01*
X126825000Y-81825000D02*
X126850000Y-81800000D01*
X126950000Y-78950000D02*
X126850000Y-78850000D01*
X126720000Y-79380000D02*
X126850000Y-79250000D01*
X118400000Y-82500000D02*
X118380000Y-82520000D01*
X122800000Y-79240000D02*
X122800000Y-78915000D01*
X122800000Y-78915000D02*
X122270000Y-78385000D01*
D21*
X124175000Y-79890000D02*
X124700000Y-79890000D01*
D19*
X110112500Y-91487500D02*
X110125000Y-91475000D01*
X118400000Y-82500000D02*
X117580000Y-82500000D01*
D21*
X122270000Y-81380000D02*
X122385000Y-81265000D01*
D19*
X120800000Y-86900000D02*
X120800000Y-85700000D01*
X122270000Y-81825000D02*
X120875000Y-81825000D01*
X122270000Y-89825000D02*
X120825000Y-89825000D01*
D21*
X122550000Y-89100000D02*
X122270000Y-89380000D01*
D19*
X110125000Y-91475000D02*
X115825000Y-91475000D01*
X120800000Y-87200000D02*
X120800000Y-86900000D01*
X110112500Y-90600000D02*
X110112500Y-91487500D01*
X120800000Y-78815000D02*
X120800000Y-79315000D01*
X120800000Y-91300000D02*
X120815000Y-91315000D01*
D21*
X124700000Y-87825000D02*
X124175000Y-87825000D01*
D19*
X115925000Y-88925000D02*
X116675000Y-88925000D01*
X121500000Y-87315000D02*
X120915000Y-87315000D01*
X122270000Y-90120000D02*
X122270000Y-89825000D01*
X122800000Y-86800000D02*
X122270000Y-86270000D01*
D21*
X123900000Y-88100000D02*
X123900000Y-88700000D01*
X122270000Y-89380000D02*
X122270000Y-89825000D01*
D19*
X115900000Y-88900000D02*
X115925000Y-88925000D01*
X122270000Y-81825000D02*
X122270000Y-82320000D01*
X115825000Y-91475000D02*
X115700000Y-91350000D01*
X120815000Y-91315000D02*
X120655000Y-91475000D01*
X120800000Y-81900000D02*
X120800000Y-79315000D01*
X120875000Y-81825000D02*
X120800000Y-81900000D01*
X120800000Y-82500000D02*
X118400000Y-82500000D01*
D20*
X118625000Y-83745000D02*
X118380000Y-83500000D01*
D19*
X120815000Y-91315000D02*
X121500000Y-91315000D01*
D21*
X123500000Y-89100000D02*
X122550000Y-89100000D01*
D19*
X110112500Y-91487500D02*
X110112500Y-92300000D01*
D21*
X123100000Y-81265000D02*
X123950000Y-80415000D01*
D19*
X121500000Y-83315000D02*
X120915000Y-83315000D01*
D21*
X122385000Y-81265000D02*
X123100000Y-81265000D01*
X123900000Y-88700000D02*
X123500000Y-89100000D01*
D19*
X121725000Y-77890000D02*
X120800000Y-78815000D01*
D21*
X124175000Y-87825000D02*
X123900000Y-88100000D01*
D19*
X120800000Y-89800000D02*
X120800000Y-91300000D01*
D20*
X118625000Y-85025000D02*
X118625000Y-83745000D01*
D19*
X120825000Y-89825000D02*
X120800000Y-89800000D01*
X120800000Y-88700000D02*
X120800000Y-87200000D01*
X122270000Y-85825000D02*
X120925000Y-85825000D01*
X120800000Y-89800000D02*
X120800000Y-88700000D01*
X122270000Y-78385000D02*
X122270000Y-77890000D01*
X122800000Y-82850000D02*
X122800000Y-83175000D01*
X122270000Y-82320000D02*
X122800000Y-82850000D01*
D21*
X123950000Y-80115000D02*
X124175000Y-79890000D01*
D19*
X118380000Y-82520000D02*
X118380000Y-83500000D01*
X122800000Y-91175000D02*
X122800000Y-90650000D01*
X120800000Y-85700000D02*
X120800000Y-85350000D01*
X122270000Y-86270000D02*
X122270000Y-85825000D01*
X122800000Y-87175000D02*
X122800000Y-86800000D01*
D21*
X123950000Y-80415000D02*
X123950000Y-80115000D01*
D19*
X117580000Y-82500000D02*
X116080000Y-81000000D01*
X120865000Y-79380000D02*
X120800000Y-79315000D01*
X120655000Y-91475000D02*
X115825000Y-91475000D01*
X122270000Y-77890000D02*
X121725000Y-77890000D01*
X122800000Y-90650000D02*
X122270000Y-90120000D01*
X120915000Y-83315000D02*
X120800000Y-83200000D01*
X121500000Y-79380000D02*
X120865000Y-79380000D01*
X120915000Y-87315000D02*
X120800000Y-87200000D01*
D21*
X122270000Y-81825000D02*
X122270000Y-81380000D01*
D19*
X120925000Y-85825000D02*
X120800000Y-85700000D01*
X120800000Y-83200000D02*
X120800000Y-82500000D01*
X115700000Y-91350000D02*
X115700000Y-87950000D01*
X120800000Y-84900000D02*
X120800000Y-83200000D01*
X120800000Y-85350000D02*
X120800000Y-84900000D01*
X120800000Y-82500000D02*
X120800000Y-81900000D01*
D22*
X104650000Y-82850000D02*
X103800000Y-83700000D01*
X107187500Y-82850000D02*
X107800000Y-82237500D01*
X103800000Y-86900000D02*
X104650000Y-87750000D01*
D19*
X107400000Y-81500000D02*
X107400000Y-80980000D01*
D22*
X105395000Y-82850000D02*
X107187500Y-82850000D01*
D19*
X107800000Y-82237500D02*
X107800000Y-81900000D01*
D22*
X105395000Y-82850000D02*
X104650000Y-82850000D01*
X104650000Y-87750000D02*
X105395000Y-87750000D01*
D19*
X107800000Y-81900000D02*
X107400000Y-81500000D01*
D22*
X103800000Y-83700000D02*
X103800000Y-86900000D01*
D21*
X111687500Y-92300000D02*
X113150000Y-92300000D01*
X111687500Y-90600000D02*
X113140000Y-90600000D01*
X108700000Y-82900000D02*
X108700000Y-81700000D01*
X106650000Y-84050000D02*
X107400000Y-83300000D01*
X108700000Y-81700000D02*
X108400000Y-81400000D01*
X108300000Y-83300000D02*
X108700000Y-82900000D01*
X107400000Y-83300000D02*
X108300000Y-83300000D01*
X108400000Y-81400000D02*
X108400000Y-81010000D01*
X105395000Y-84050000D02*
X106650000Y-84050000D01*
X107200000Y-88559921D02*
X107200000Y-90290000D01*
X107250000Y-90240000D02*
X107300000Y-90290000D01*
X106320000Y-87050000D02*
X106400000Y-87130000D01*
X105395000Y-87050000D02*
X106320000Y-87050000D01*
X106400000Y-87130000D02*
X106400000Y-87759921D01*
X106400000Y-87759921D02*
X107200000Y-88559921D01*
X124700000Y-80540000D02*
X125225000Y-80540000D01*
X126000000Y-80400000D02*
X126000000Y-81000000D01*
X125365000Y-80400000D02*
X126000000Y-80400000D01*
X125225000Y-80540000D02*
X125365000Y-80400000D01*
X125175000Y-84475000D02*
X125315000Y-84335000D01*
X126000000Y-84335000D02*
X126000000Y-85000000D01*
X125315000Y-84335000D02*
X126000000Y-84335000D01*
X124700000Y-84475000D02*
X125175000Y-84475000D01*
X125415000Y-88335000D02*
X125275000Y-88475000D01*
X126000000Y-88335000D02*
X126000000Y-89000000D01*
X125275000Y-88475000D02*
X124700000Y-88475000D01*
X126000000Y-88335000D02*
X125415000Y-88335000D01*
X127850000Y-91650000D02*
X129975000Y-91650000D01*
X125415000Y-92335000D02*
X125275000Y-92475000D01*
X126000000Y-92335000D02*
X125415000Y-92335000D01*
X126000000Y-92335000D02*
X127165000Y-92335000D01*
X125275000Y-92475000D02*
X124700000Y-92475000D01*
X127165000Y-92335000D02*
X127850000Y-91650000D01*
X115000000Y-87300000D02*
X114600000Y-86900000D01*
X115700000Y-87300000D02*
X115000000Y-87300000D01*
X114600000Y-86900000D02*
X114025000Y-86900000D01*
X115050000Y-86650000D02*
X114525000Y-86125000D01*
X115700000Y-86650000D02*
X115050000Y-86650000D01*
X113375000Y-87850000D02*
X114025000Y-88500000D01*
X114525000Y-86125000D02*
X113375000Y-86125000D01*
X113375000Y-86125000D02*
X113375000Y-87850000D01*
X117975000Y-89675000D02*
X118000000Y-89700000D01*
X117975000Y-88925000D02*
X117975000Y-89675000D01*
X114170000Y-92300000D02*
X117900000Y-92300000D01*
X113150000Y-85775000D02*
X113025000Y-85900000D01*
X114160000Y-90600000D02*
X114160000Y-90460000D01*
X114675000Y-85775000D02*
X113150000Y-85775000D01*
X114160000Y-90460000D02*
X113025000Y-89325000D01*
X114900000Y-86000000D02*
X114675000Y-85775000D01*
X113025000Y-89325000D02*
X113025000Y-85900000D01*
X115700000Y-86000000D02*
X114900000Y-86000000D01*
X122800000Y-80540000D02*
X122225000Y-80540000D01*
X121500000Y-81100000D02*
X121550000Y-81150000D01*
X122225000Y-80540000D02*
X122085000Y-80400000D01*
X121500000Y-80400000D02*
X121500000Y-81100000D01*
X120275000Y-83775000D02*
X120275000Y-86425000D01*
X120275000Y-86425000D02*
X120050000Y-86650000D01*
X120050000Y-86650000D02*
X119600000Y-86650000D01*
X122085000Y-80400000D02*
X121500000Y-80400000D01*
X120000000Y-83500000D02*
X120275000Y-83775000D01*
X121500000Y-88335000D02*
X122185000Y-88335000D01*
X121958604Y-86595000D02*
X121500000Y-86595000D01*
X122225000Y-88375000D02*
X122225000Y-86861396D01*
X119600000Y-86000000D02*
X119600000Y-85400000D01*
X122325000Y-88475000D02*
X122225000Y-88375000D01*
X122225000Y-86861396D02*
X121958604Y-86595000D01*
X122800000Y-88475000D02*
X122325000Y-88475000D01*
X122185000Y-88335000D02*
X122225000Y-88375000D01*
X122185000Y-84335000D02*
X121500000Y-84335000D01*
X122325000Y-84475000D02*
X122185000Y-84335000D01*
X117975000Y-84214054D02*
X117975000Y-85025000D01*
X121500000Y-85100000D02*
X121500000Y-84335000D01*
X122800000Y-84475000D02*
X122325000Y-84475000D01*
X116675000Y-84575000D02*
X116675000Y-85025000D01*
X122185000Y-91131786D02*
X121648214Y-90595000D01*
X122800000Y-92475000D02*
X122325000Y-92475000D01*
X121648214Y-90595000D02*
X121500000Y-90595000D01*
X122185000Y-92335000D02*
X121500000Y-92335000D01*
X122325000Y-92475000D02*
X122185000Y-92335000D01*
X122185000Y-92335000D02*
X122185000Y-91131786D01*
X116300000Y-84000000D02*
X116300000Y-84200000D01*
X116300000Y-84200000D02*
X116675000Y-84575000D01*
X105395000Y-86050000D02*
X106350000Y-86050000D01*
X107900000Y-88587500D02*
X107950000Y-88637500D01*
X107900000Y-87700000D02*
X110500000Y-87700000D01*
X111020000Y-88220000D02*
X111200000Y-88220000D01*
X106800000Y-87500000D02*
X107000000Y-87700000D01*
X105395000Y-85050000D02*
X104470000Y-85050000D01*
X111800000Y-88500000D02*
X112375000Y-88500000D01*
X110500000Y-87700000D02*
X111020000Y-88220000D01*
X106800000Y-86500000D02*
X106800000Y-87500000D01*
X104420000Y-85100000D02*
X104420000Y-86000000D01*
X104470000Y-85050000D02*
X104420000Y-85100000D01*
X107000000Y-87700000D02*
X107900000Y-87700000D01*
X111520000Y-88220000D02*
X111800000Y-88500000D01*
X106350000Y-86050000D02*
X106800000Y-86500000D01*
X104470000Y-86050000D02*
X105395000Y-86050000D01*
X104420000Y-86000000D02*
X104470000Y-86050000D01*
X111200000Y-88220000D02*
X111520000Y-88220000D01*
X107900000Y-87700000D02*
X107900000Y-88587500D01*
X106420000Y-85550000D02*
X105395000Y-85550000D01*
X107925000Y-87275000D02*
X111105000Y-87275000D01*
X106420000Y-84700000D02*
X106270000Y-84550000D01*
X112375000Y-86900000D02*
X112000000Y-86900000D01*
X111105000Y-87275000D02*
X111200000Y-87180000D01*
X107149501Y-86279501D02*
X107149501Y-87049501D01*
X111700000Y-87200000D02*
X111220000Y-87200000D01*
X107925000Y-87275000D02*
X107925000Y-86387500D01*
X112000000Y-86900000D02*
X111700000Y-87200000D01*
X106420000Y-85550000D02*
X106420000Y-84700000D01*
X106420000Y-85550000D02*
X107149501Y-86279501D01*
X107925000Y-86387500D02*
X107950000Y-86362500D01*
X106270000Y-84550000D02*
X105395000Y-84550000D01*
X111220000Y-87200000D02*
X111200000Y-87180000D01*
X107925000Y-87275000D02*
X107375000Y-87275000D01*
X107375000Y-87275000D02*
X107149501Y-87049501D01*
G04 #@! TA.AperFunction,Conductor*
G36*
X122057645Y-77317813D02*
G01*
X122082955Y-77361650D01*
X122074165Y-77411500D01*
X122039969Y-77442195D01*
X121962983Y-77476187D01*
X121921345Y-77517826D01*
X121875469Y-77539218D01*
X121869019Y-77539500D01*
X121769026Y-77539500D01*
X121753841Y-77537925D01*
X121739686Y-77534957D01*
X121707798Y-77538932D01*
X121698645Y-77539500D01*
X121695953Y-77539500D01*
X121675968Y-77542835D01*
X121672946Y-77543275D01*
X121623610Y-77549426D01*
X121617729Y-77551177D01*
X121617627Y-77550836D01*
X121615299Y-77551581D01*
X121615415Y-77551919D01*
X121609612Y-77553910D01*
X121565889Y-77577571D01*
X121563172Y-77578970D01*
X121518515Y-77600801D01*
X121513530Y-77604361D01*
X121513325Y-77604074D01*
X121511365Y-77605535D01*
X121511582Y-77605814D01*
X121506741Y-77609582D01*
X121473072Y-77646154D01*
X121470957Y-77648359D01*
X120583286Y-78536030D01*
X120571438Y-78545652D01*
X120559333Y-78553561D01*
X120559325Y-78553568D01*
X120539591Y-78578921D01*
X120533536Y-78585780D01*
X120531629Y-78587687D01*
X120531624Y-78587693D01*
X120519849Y-78604185D01*
X120518023Y-78606634D01*
X120487483Y-78645873D01*
X120484567Y-78651262D01*
X120484255Y-78651093D01*
X120483133Y-78653272D01*
X120483452Y-78653428D01*
X120480759Y-78658936D01*
X120466577Y-78706568D01*
X120465645Y-78709476D01*
X120449500Y-78756509D01*
X120448491Y-78762558D01*
X120448139Y-78762499D01*
X120447787Y-78764916D01*
X120448142Y-78764961D01*
X120447383Y-78771045D01*
X120447383Y-78771046D01*
X120448972Y-78809477D01*
X120449437Y-78820707D01*
X120449500Y-78823765D01*
X120449500Y-79270974D01*
X120447925Y-79286159D01*
X120444957Y-79300311D01*
X120444957Y-79300316D01*
X120448932Y-79332202D01*
X120449500Y-79341355D01*
X120449500Y-81838153D01*
X120447787Y-81849916D01*
X120448142Y-81849961D01*
X120447383Y-81856047D01*
X120449437Y-81905707D01*
X120449500Y-81908765D01*
X120449500Y-82075500D01*
X120432187Y-82123066D01*
X120388350Y-82148376D01*
X120375500Y-82149500D01*
X118444021Y-82149500D01*
X118428836Y-82147925D01*
X118414685Y-82144958D01*
X118390883Y-82147925D01*
X118382804Y-82148932D01*
X118373651Y-82149500D01*
X117755834Y-82149500D01*
X117708268Y-82132187D01*
X117703508Y-82127826D01*
X117028910Y-81453228D01*
X117007518Y-81407352D01*
X117010422Y-81379424D01*
X117066024Y-81196132D01*
X117070568Y-81150000D01*
X117629935Y-81150000D01*
X117634469Y-81196035D01*
X117691651Y-81384539D01*
X117784504Y-81558252D01*
X117784513Y-81558266D01*
X117909471Y-81710526D01*
X117909473Y-81710528D01*
X118061733Y-81835486D01*
X118061747Y-81835495D01*
X118235460Y-81928348D01*
X118423964Y-81985530D01*
X118470000Y-81990064D01*
X118470000Y-81481170D01*
X118477685Y-81484680D01*
X118584237Y-81500000D01*
X118655763Y-81500000D01*
X118762315Y-81484680D01*
X118770000Y-81481170D01*
X118770000Y-81990064D01*
X118816035Y-81985530D01*
X119004539Y-81928348D01*
X119178252Y-81835495D01*
X119178266Y-81835486D01*
X119330526Y-81710528D01*
X119330528Y-81710526D01*
X119455486Y-81558266D01*
X119455495Y-81558252D01*
X119548348Y-81384539D01*
X119605530Y-81196035D01*
X119610065Y-81150000D01*
X119097065Y-81150000D01*
X119120000Y-81071889D01*
X119120000Y-80928111D01*
X119097065Y-80850000D01*
X119610064Y-80850000D01*
X119605530Y-80803964D01*
X119548348Y-80615460D01*
X119455495Y-80441747D01*
X119455486Y-80441733D01*
X119330528Y-80289473D01*
X119330526Y-80289471D01*
X119178266Y-80164513D01*
X119178252Y-80164504D01*
X119004539Y-80071651D01*
X118816037Y-80014469D01*
X118770000Y-80009934D01*
X118770000Y-80518829D01*
X118762315Y-80515320D01*
X118655763Y-80500000D01*
X118584237Y-80500000D01*
X118477685Y-80515320D01*
X118470000Y-80518829D01*
X118470000Y-80009934D01*
X118423962Y-80014469D01*
X118235460Y-80071651D01*
X118061747Y-80164504D01*
X118061733Y-80164513D01*
X117909473Y-80289471D01*
X117909471Y-80289473D01*
X117784513Y-80441733D01*
X117784504Y-80441747D01*
X117691651Y-80615460D01*
X117634469Y-80803964D01*
X117629935Y-80850000D01*
X118142935Y-80850000D01*
X118120000Y-80928111D01*
X118120000Y-81071889D01*
X118142935Y-81150000D01*
X117629935Y-81150000D01*
X117070568Y-81150000D01*
X117085341Y-81000000D01*
X117066024Y-80803868D01*
X117008814Y-80615273D01*
X117008812Y-80615270D01*
X117008812Y-80615268D01*
X116929604Y-80467082D01*
X116915910Y-80441462D01*
X116790883Y-80289117D01*
X116638538Y-80164090D01*
X116602060Y-80144592D01*
X116464731Y-80071187D01*
X116276133Y-80013976D01*
X116080000Y-79994659D01*
X115883866Y-80013976D01*
X115695268Y-80071187D01*
X115521463Y-80164089D01*
X115369117Y-80289117D01*
X115244089Y-80441463D01*
X115151187Y-80615268D01*
X115093976Y-80803866D01*
X115074659Y-81000000D01*
X115093976Y-81196133D01*
X115151187Y-81384731D01*
X115238776Y-81548597D01*
X115244090Y-81558538D01*
X115369117Y-81710883D01*
X115521462Y-81835910D01*
X115559134Y-81856046D01*
X115695268Y-81928812D01*
X115695270Y-81928812D01*
X115695273Y-81928814D01*
X115883868Y-81986024D01*
X116080000Y-82005341D01*
X116276132Y-81986024D01*
X116459422Y-81930423D01*
X116509964Y-81933182D01*
X116533228Y-81948910D01*
X117301030Y-82716712D01*
X117310652Y-82728561D01*
X117318563Y-82740669D01*
X117338320Y-82756046D01*
X117343915Y-82760401D01*
X117350789Y-82766471D01*
X117352692Y-82768374D01*
X117369191Y-82780154D01*
X117371644Y-82781983D01*
X117410870Y-82812514D01*
X117410874Y-82812517D01*
X117410878Y-82812518D01*
X117416264Y-82815433D01*
X117416093Y-82815748D01*
X117418270Y-82816869D01*
X117418428Y-82816547D01*
X117423931Y-82819237D01*
X117423934Y-82819239D01*
X117471576Y-82833422D01*
X117474476Y-82834351D01*
X117521512Y-82850500D01*
X117521514Y-82850500D01*
X117527562Y-82851510D01*
X117527503Y-82851861D01*
X117529916Y-82852213D01*
X117529961Y-82851858D01*
X117536039Y-82852615D01*
X117536046Y-82852617D01*
X117585708Y-82850563D01*
X117588766Y-82850500D01*
X117955500Y-82850500D01*
X118003066Y-82867813D01*
X118028376Y-82911650D01*
X118029500Y-82924500D01*
X118029500Y-83099019D01*
X118012187Y-83146585D01*
X118007826Y-83151345D01*
X117996186Y-83162984D01*
X117967420Y-83228132D01*
X117932369Y-83264652D01*
X117882044Y-83270097D01*
X117839992Y-83241921D01*
X117832031Y-83228131D01*
X117803392Y-83163271D01*
X117726727Y-83086606D01*
X117627549Y-83042814D01*
X117627542Y-83042812D01*
X117603298Y-83040000D01*
X117570000Y-83040000D01*
X117570000Y-83981336D01*
X117572750Y-83987234D01*
X117566345Y-84024424D01*
X117538302Y-84085828D01*
X117519867Y-84214054D01*
X117538302Y-84342277D01*
X117538302Y-84342278D01*
X117538303Y-84342280D01*
X117539073Y-84343967D01*
X117543950Y-84354644D01*
X117547961Y-84405104D01*
X117518600Y-84446337D01*
X117480098Y-84456326D01*
X117475000Y-84460510D01*
X117475000Y-85589489D01*
X117487788Y-85586946D01*
X117562215Y-85537216D01*
X117588168Y-85498374D01*
X117628989Y-85468442D01*
X117679500Y-85471751D01*
X117711226Y-85498372D01*
X117737421Y-85537575D01*
X117737422Y-85537576D01*
X117737423Y-85537577D01*
X117812014Y-85587417D01*
X117877789Y-85600500D01*
X118072210Y-85600499D01*
X118137986Y-85587417D01*
X118212577Y-85537577D01*
X118238471Y-85498824D01*
X118279292Y-85468892D01*
X118329802Y-85472202D01*
X118361529Y-85498824D01*
X118387420Y-85537574D01*
X118387422Y-85537576D01*
X118387423Y-85537577D01*
X118462014Y-85587417D01*
X118527789Y-85600500D01*
X118722210Y-85600499D01*
X118787986Y-85587417D01*
X118862577Y-85537577D01*
X118912417Y-85462986D01*
X118925500Y-85397211D01*
X118925500Y-85025304D01*
X118925500Y-83806089D01*
X118927454Y-83794115D01*
X118926826Y-83794028D01*
X118927773Y-83787237D01*
X118925579Y-83739774D01*
X118925500Y-83736356D01*
X118925500Y-83717159D01*
X118925500Y-83717156D01*
X118925158Y-83715332D01*
X118923977Y-83705145D01*
X118923762Y-83700500D01*
X118922585Y-83675008D01*
X118917442Y-83663360D01*
X118912398Y-83647069D01*
X118912061Y-83645268D01*
X118910061Y-83634567D01*
X118894170Y-83608902D01*
X118889398Y-83599847D01*
X118885192Y-83590322D01*
X118877206Y-83572234D01*
X118868206Y-83563234D01*
X118857616Y-83549864D01*
X118850919Y-83539048D01*
X118850916Y-83539045D01*
X118839903Y-83530728D01*
X118812378Y-83488247D01*
X118810499Y-83471676D01*
X118810499Y-83286627D01*
X118807682Y-83262340D01*
X118807682Y-83262338D01*
X118763813Y-83162984D01*
X118752174Y-83151345D01*
X118730782Y-83105469D01*
X118730500Y-83099019D01*
X118730500Y-82924500D01*
X118747813Y-82876934D01*
X118791650Y-82851624D01*
X118804500Y-82850500D01*
X120375500Y-82850500D01*
X120423066Y-82867813D01*
X120448376Y-82911650D01*
X120449500Y-82924500D01*
X120449500Y-83132415D01*
X120432187Y-83179981D01*
X120388350Y-83205291D01*
X120338500Y-83196501D01*
X120319575Y-83180875D01*
X120298053Y-83156037D01*
X120298051Y-83156035D01*
X120298049Y-83156033D01*
X120210443Y-83099732D01*
X120189068Y-83085995D01*
X120064772Y-83049500D01*
X119935228Y-83049500D01*
X119810931Y-83085995D01*
X119701954Y-83156031D01*
X119701950Y-83156034D01*
X119617119Y-83253935D01*
X119617118Y-83253936D01*
X119617118Y-83253937D01*
X119613230Y-83262450D01*
X119563302Y-83371776D01*
X119544867Y-83500000D01*
X119563302Y-83628223D01*
X119563302Y-83628224D01*
X119563303Y-83628226D01*
X119617118Y-83746063D01*
X119701951Y-83843967D01*
X119810931Y-83914004D01*
X119935228Y-83950500D01*
X119950500Y-83950500D01*
X119998066Y-83967813D01*
X120023376Y-84011650D01*
X120024500Y-84024500D01*
X120024500Y-85003566D01*
X120007187Y-85051132D01*
X119963350Y-85076442D01*
X119913500Y-85067652D01*
X119902041Y-85059492D01*
X119898049Y-85056033D01*
X119789068Y-84985995D01*
X119664772Y-84949500D01*
X119535228Y-84949500D01*
X119410931Y-84985995D01*
X119301954Y-85056031D01*
X119301950Y-85056034D01*
X119217119Y-85153935D01*
X119163302Y-85271776D01*
X119144867Y-85400000D01*
X119163302Y-85528223D01*
X119163302Y-85528224D01*
X119163303Y-85528226D01*
X119201392Y-85611628D01*
X119202040Y-85613047D01*
X119206051Y-85663507D01*
X119176689Y-85704740D01*
X119163050Y-85712153D01*
X119162017Y-85712580D01*
X119087423Y-85762422D01*
X119087422Y-85762423D01*
X119037582Y-85837014D01*
X119024500Y-85902789D01*
X119024500Y-86097205D01*
X119037582Y-86162985D01*
X119087422Y-86237576D01*
X119087423Y-86237577D01*
X119126176Y-86263471D01*
X119156108Y-86304293D01*
X119152797Y-86354803D01*
X119126176Y-86386529D01*
X119087423Y-86412422D01*
X119087422Y-86412423D01*
X119037582Y-86487014D01*
X119024500Y-86552789D01*
X119024500Y-86747205D01*
X119037582Y-86812985D01*
X119087422Y-86887576D01*
X119087423Y-86887577D01*
X119126176Y-86913471D01*
X119156108Y-86954293D01*
X119152797Y-87004803D01*
X119126176Y-87036529D01*
X119087423Y-87062422D01*
X119087422Y-87062423D01*
X119037582Y-87137014D01*
X119024500Y-87202789D01*
X119024500Y-87397205D01*
X119037582Y-87462985D01*
X119087422Y-87537576D01*
X119087423Y-87537577D01*
X119126626Y-87563772D01*
X119156558Y-87604594D01*
X119153247Y-87655104D01*
X119126627Y-87686829D01*
X119087785Y-87712782D01*
X119087783Y-87712784D01*
X119038053Y-87787211D01*
X119035510Y-87799999D01*
X119035511Y-87800000D01*
X120164489Y-87800000D01*
X120164489Y-87799999D01*
X120161946Y-87787211D01*
X120112216Y-87712784D01*
X120112215Y-87712783D01*
X120073373Y-87686830D01*
X120043441Y-87646009D01*
X120046752Y-87595498D01*
X120073373Y-87563772D01*
X120112577Y-87537577D01*
X120162417Y-87462986D01*
X120175500Y-87397211D01*
X120175499Y-87202790D01*
X120162417Y-87137014D01*
X120112577Y-87062423D01*
X120100989Y-87054680D01*
X120073823Y-87036528D01*
X120043891Y-86995706D01*
X120047202Y-86945195D01*
X120073820Y-86913472D01*
X120088866Y-86903418D01*
X120115540Y-86892370D01*
X120147741Y-86885966D01*
X120184512Y-86861396D01*
X120230601Y-86830601D01*
X120240533Y-86815734D01*
X120249727Y-86804531D01*
X120323174Y-86731085D01*
X120369051Y-86709693D01*
X120417945Y-86722794D01*
X120446979Y-86764259D01*
X120449500Y-86783411D01*
X120449500Y-87155974D01*
X120447925Y-87171159D01*
X120444957Y-87185311D01*
X120444957Y-87185316D01*
X120448932Y-87217202D01*
X120449500Y-87226355D01*
X120449500Y-89755974D01*
X120447925Y-89771159D01*
X120444957Y-89785311D01*
X120444957Y-89785316D01*
X120448932Y-89817202D01*
X120449500Y-89826355D01*
X120449500Y-91050500D01*
X120432187Y-91098066D01*
X120388350Y-91123376D01*
X120375500Y-91124500D01*
X118654273Y-91124500D01*
X118606707Y-91107187D01*
X118581397Y-91063350D01*
X118590187Y-91013500D01*
X118601947Y-90998174D01*
X118663393Y-90936727D01*
X118707185Y-90837549D01*
X118707187Y-90837542D01*
X118710000Y-90813297D01*
X118710000Y-90750000D01*
X118204000Y-90750000D01*
X118156434Y-90732687D01*
X118131124Y-90688850D01*
X118130000Y-90676000D01*
X118130000Y-90524000D01*
X118147313Y-90476434D01*
X118191150Y-90451124D01*
X118204000Y-90450000D01*
X118710000Y-90450000D01*
X118710000Y-90386702D01*
X118707187Y-90362457D01*
X118707185Y-90362450D01*
X118663393Y-90263272D01*
X118586727Y-90186606D01*
X118487549Y-90142814D01*
X118487542Y-90142812D01*
X118463298Y-90140000D01*
X118376873Y-90140000D01*
X118329307Y-90122687D01*
X118303997Y-90078850D01*
X118312787Y-90029000D01*
X118320943Y-90017545D01*
X118382882Y-89946063D01*
X118436697Y-89828226D01*
X118455133Y-89700000D01*
X118438348Y-89583258D01*
X118448715Y-89533713D01*
X118488504Y-89502423D01*
X118524162Y-89500263D01*
X118524174Y-89500144D01*
X118524919Y-89500217D01*
X118526030Y-89500150D01*
X118527789Y-89500500D01*
X118722210Y-89500499D01*
X118787986Y-89487417D01*
X118862577Y-89437577D01*
X118912417Y-89362986D01*
X118925500Y-89297211D01*
X118925499Y-88552790D01*
X118925499Y-88552789D01*
X118925499Y-88552785D01*
X118912418Y-88487016D01*
X118908470Y-88481108D01*
X118862577Y-88412423D01*
X118849032Y-88403372D01*
X118787985Y-88362582D01*
X118735293Y-88352102D01*
X118722211Y-88349500D01*
X118722210Y-88349500D01*
X118527794Y-88349500D01*
X118462014Y-88362582D01*
X118387423Y-88412422D01*
X118387422Y-88412423D01*
X118361529Y-88451176D01*
X118320707Y-88481108D01*
X118270197Y-88477797D01*
X118238471Y-88451176D01*
X118212577Y-88412423D01*
X118212576Y-88412422D01*
X118137985Y-88362582D01*
X118085293Y-88352102D01*
X118072211Y-88349500D01*
X118072210Y-88349500D01*
X117877794Y-88349500D01*
X117812014Y-88362582D01*
X117737423Y-88412422D01*
X117737422Y-88412423D01*
X117711529Y-88451176D01*
X117670707Y-88481108D01*
X117620197Y-88477797D01*
X117588471Y-88451176D01*
X117562577Y-88412423D01*
X117562576Y-88412422D01*
X117487985Y-88362582D01*
X117435293Y-88352102D01*
X117422211Y-88349500D01*
X117422210Y-88349500D01*
X117227794Y-88349500D01*
X117162014Y-88362582D01*
X117087423Y-88412422D01*
X117087422Y-88412423D01*
X117061529Y-88451176D01*
X117020707Y-88481108D01*
X116970197Y-88477797D01*
X116938471Y-88451176D01*
X116912577Y-88412423D01*
X116912576Y-88412422D01*
X116837985Y-88362582D01*
X116785293Y-88352102D01*
X116772211Y-88349500D01*
X116772210Y-88349500D01*
X116577794Y-88349500D01*
X116512014Y-88362582D01*
X116437423Y-88412422D01*
X116437422Y-88412423D01*
X116387583Y-88487013D01*
X116382029Y-88514937D01*
X116355769Y-88558211D01*
X116309451Y-88574500D01*
X116124500Y-88574500D01*
X116076934Y-88557187D01*
X116051624Y-88513350D01*
X116050500Y-88500500D01*
X116050500Y-88315549D01*
X116067813Y-88267983D01*
X116110065Y-88242971D01*
X116137983Y-88237418D01*
X116137983Y-88237417D01*
X116137986Y-88237417D01*
X116212577Y-88187577D01*
X116262417Y-88112986D01*
X116275500Y-88047211D01*
X116275499Y-87852790D01*
X116262417Y-87787014D01*
X116212577Y-87712423D01*
X116212574Y-87712420D01*
X116173824Y-87686529D01*
X116143892Y-87645708D01*
X116147202Y-87595198D01*
X116173824Y-87563471D01*
X116212574Y-87537579D01*
X116212573Y-87537579D01*
X116212577Y-87537577D01*
X116262417Y-87462986D01*
X116275500Y-87397211D01*
X116275499Y-87202790D01*
X116262417Y-87137014D01*
X116254390Y-87125000D01*
X116450001Y-87125000D01*
X116450001Y-88039778D01*
X116458701Y-88083524D01*
X116491855Y-88133143D01*
X116491856Y-88133144D01*
X116541472Y-88166296D01*
X116585226Y-88174999D01*
X117500000Y-88174999D01*
X117500000Y-87125000D01*
X117800000Y-87125000D01*
X117800000Y-88174999D01*
X118714779Y-88174999D01*
X118758524Y-88166298D01*
X118808143Y-88133144D01*
X118808144Y-88133143D01*
X118830289Y-88100000D01*
X119035510Y-88100000D01*
X119038053Y-88112788D01*
X119087783Y-88187215D01*
X119087784Y-88187216D01*
X119162208Y-88236944D01*
X119227842Y-88250000D01*
X119450000Y-88250000D01*
X119450000Y-88100000D01*
X119750000Y-88100000D01*
X119750000Y-88250000D01*
X119972158Y-88250000D01*
X120037791Y-88236944D01*
X120112215Y-88187216D01*
X120112216Y-88187215D01*
X120161946Y-88112788D01*
X120164489Y-88100000D01*
X119750000Y-88100000D01*
X119450000Y-88100000D01*
X119035510Y-88100000D01*
X118830289Y-88100000D01*
X118841296Y-88083527D01*
X118850000Y-88039773D01*
X118850000Y-87125000D01*
X117800000Y-87125000D01*
X117500000Y-87125000D01*
X116450001Y-87125000D01*
X116254390Y-87125000D01*
X116212577Y-87062423D01*
X116212576Y-87062422D01*
X116212574Y-87062420D01*
X116173824Y-87036529D01*
X116143892Y-86995708D01*
X116147202Y-86945198D01*
X116173824Y-86913471D01*
X116212574Y-86887579D01*
X116212573Y-86887579D01*
X116212577Y-86887577D01*
X116254390Y-86825000D01*
X116450000Y-86825000D01*
X117500000Y-86825000D01*
X117500000Y-85775000D01*
X117800000Y-85775000D01*
X117800000Y-86825000D01*
X118849999Y-86825000D01*
X118849999Y-85910221D01*
X118841298Y-85866475D01*
X118808144Y-85816856D01*
X118808143Y-85816855D01*
X118758527Y-85783703D01*
X118714773Y-85775000D01*
X117800000Y-85775000D01*
X117500000Y-85775000D01*
X116585229Y-85775000D01*
X116541473Y-85783703D01*
X116491856Y-85816855D01*
X116491855Y-85816856D01*
X116458703Y-85866472D01*
X116450000Y-85910226D01*
X116450000Y-86825000D01*
X116254390Y-86825000D01*
X116262417Y-86812986D01*
X116275500Y-86747211D01*
X116275499Y-86552790D01*
X116262417Y-86487014D01*
X116212577Y-86412423D01*
X116212576Y-86412422D01*
X116212574Y-86412420D01*
X116173824Y-86386529D01*
X116143892Y-86345708D01*
X116147202Y-86295198D01*
X116173824Y-86263471D01*
X116212574Y-86237579D01*
X116212573Y-86237579D01*
X116212577Y-86237577D01*
X116262417Y-86162986D01*
X116275500Y-86097211D01*
X116275499Y-85902790D01*
X116262417Y-85837014D01*
X116212577Y-85762423D01*
X116193237Y-85749500D01*
X116137985Y-85712582D01*
X116085293Y-85702102D01*
X116072211Y-85699500D01*
X116072210Y-85699500D01*
X115327785Y-85699500D01*
X115262016Y-85712581D01*
X115225428Y-85737029D01*
X115184316Y-85749500D01*
X115034412Y-85749500D01*
X114986846Y-85732187D01*
X114982086Y-85727826D01*
X114874732Y-85620472D01*
X114865530Y-85609259D01*
X114855601Y-85594399D01*
X114845211Y-85587457D01*
X114792918Y-85552516D01*
X114792916Y-85552513D01*
X114772742Y-85539034D01*
X114675000Y-85519592D01*
X114657475Y-85523078D01*
X114643038Y-85524500D01*
X113181967Y-85524500D01*
X113167530Y-85523078D01*
X113150001Y-85519591D01*
X113150000Y-85519591D01*
X113106607Y-85528223D01*
X113052260Y-85539034D01*
X113004479Y-85570960D01*
X112969397Y-85594400D01*
X112959468Y-85609259D01*
X112950268Y-85620469D01*
X112870470Y-85700268D01*
X112859258Y-85709469D01*
X112844401Y-85719396D01*
X112844396Y-85719401D01*
X112815652Y-85762423D01*
X112812920Y-85766512D01*
X112803900Y-85780011D01*
X112789034Y-85802258D01*
X112769592Y-85900000D01*
X112773078Y-85917525D01*
X112774500Y-85931962D01*
X112774500Y-86214423D01*
X112757187Y-86261989D01*
X112713350Y-86287299D01*
X112678662Y-86285127D01*
X112676400Y-86284428D01*
X112608264Y-86274500D01*
X112608260Y-86274500D01*
X112141740Y-86274500D01*
X112141735Y-86274500D01*
X112073606Y-86284427D01*
X112073605Y-86284427D01*
X111968517Y-86335801D01*
X111885801Y-86418517D01*
X111834427Y-86523605D01*
X111834427Y-86523606D01*
X111824500Y-86591735D01*
X111824500Y-86689315D01*
X111812027Y-86730430D01*
X111809467Y-86734261D01*
X111800266Y-86745472D01*
X111695610Y-86850129D01*
X111649734Y-86871521D01*
X111600840Y-86858420D01*
X111590958Y-86850129D01*
X111537017Y-86796188D01*
X111537016Y-86796187D01*
X111471866Y-86767420D01*
X111435347Y-86732370D01*
X111429901Y-86682045D01*
X111458078Y-86639993D01*
X111471868Y-86632031D01*
X111536728Y-86603392D01*
X111613393Y-86526727D01*
X111657185Y-86427549D01*
X111657187Y-86427542D01*
X111660000Y-86403297D01*
X111660000Y-86370000D01*
X110740000Y-86370000D01*
X110740000Y-86403297D01*
X110742812Y-86427542D01*
X110742814Y-86427549D01*
X110786606Y-86526727D01*
X110863271Y-86603392D01*
X110928131Y-86632031D01*
X110964652Y-86667082D01*
X110970098Y-86717407D01*
X110941921Y-86759459D01*
X110928132Y-86767420D01*
X110862984Y-86796186D01*
X110786187Y-86872983D01*
X110773906Y-86900798D01*
X110748925Y-86957376D01*
X110740070Y-86977430D01*
X110738244Y-86976623D01*
X110713788Y-87011275D01*
X110671570Y-87024500D01*
X110371443Y-87024500D01*
X110323877Y-87007187D01*
X110298567Y-86963350D01*
X110297936Y-86941975D01*
X110299876Y-86925240D01*
X110300500Y-86919865D01*
X110300499Y-86070000D01*
X110740000Y-86070000D01*
X111050000Y-86070000D01*
X111050000Y-85790000D01*
X111350000Y-85790000D01*
X111350000Y-86070000D01*
X111660000Y-86070000D01*
X111660000Y-86036702D01*
X111657187Y-86012457D01*
X111657185Y-86012450D01*
X111613393Y-85913272D01*
X111536727Y-85836606D01*
X111437549Y-85792814D01*
X111437542Y-85792812D01*
X111413298Y-85790000D01*
X111350000Y-85790000D01*
X111050000Y-85790000D01*
X110986702Y-85790000D01*
X110962457Y-85792812D01*
X110962450Y-85792814D01*
X110863272Y-85836606D01*
X110786606Y-85913272D01*
X110742814Y-86012450D01*
X110742812Y-86012457D01*
X110740000Y-86036702D01*
X110740000Y-86070000D01*
X110300499Y-86070000D01*
X110300499Y-85805136D01*
X110297585Y-85780009D01*
X110252206Y-85677235D01*
X110172765Y-85597794D01*
X110069991Y-85552415D01*
X110069990Y-85552414D01*
X110069988Y-85552414D01*
X110048451Y-85549916D01*
X110044865Y-85549500D01*
X110044864Y-85549500D01*
X109655142Y-85549500D01*
X109629939Y-85552423D01*
X109580696Y-85540703D01*
X109550506Y-85500072D01*
X109553496Y-85449542D01*
X109569088Y-85426592D01*
X109641715Y-85353965D01*
X109653561Y-85344346D01*
X109665669Y-85336437D01*
X109685406Y-85311077D01*
X109691470Y-85304210D01*
X109693375Y-85302307D01*
X109723509Y-85272173D01*
X109769386Y-85250781D01*
X109775834Y-85250500D01*
X114390389Y-85250500D01*
X114430394Y-85262246D01*
X114510931Y-85314004D01*
X114635228Y-85350500D01*
X114764772Y-85350500D01*
X114889069Y-85314004D01*
X114998049Y-85243967D01*
X115082882Y-85146063D01*
X115136697Y-85028226D01*
X115155133Y-84900000D01*
X115136697Y-84771774D01*
X115082882Y-84653937D01*
X114998049Y-84556033D01*
X114925575Y-84509457D01*
X114889068Y-84485995D01*
X114764772Y-84449500D01*
X114635228Y-84449500D01*
X114510933Y-84485995D01*
X114510931Y-84485995D01*
X114510931Y-84485996D01*
X114430394Y-84537753D01*
X114390389Y-84549500D01*
X111509482Y-84549500D01*
X111461916Y-84532187D01*
X111436606Y-84488350D01*
X111445396Y-84438500D01*
X111457156Y-84423174D01*
X111509412Y-84370917D01*
X111564379Y-84258482D01*
X111574999Y-84185592D01*
X111575000Y-84185581D01*
X111575000Y-84050000D01*
X110375000Y-84050000D01*
X110375000Y-84185592D01*
X110385620Y-84258482D01*
X110440587Y-84370917D01*
X110492844Y-84423174D01*
X110514236Y-84469050D01*
X110501135Y-84517945D01*
X110459671Y-84546979D01*
X110440518Y-84549500D01*
X109960189Y-84549500D01*
X109912623Y-84532187D01*
X109887313Y-84488350D01*
X109896103Y-84438500D01*
X109907863Y-84423174D01*
X109925933Y-84405104D01*
X109959826Y-84371211D01*
X110014866Y-84258625D01*
X110025500Y-84185636D01*
X110025500Y-84000000D01*
X115844867Y-84000000D01*
X115863302Y-84128223D01*
X115863302Y-84128224D01*
X115863303Y-84128226D01*
X115917118Y-84246063D01*
X116001951Y-84343967D01*
X116110931Y-84414004D01*
X116161909Y-84428971D01*
X116193388Y-84447648D01*
X116352826Y-84607086D01*
X116374218Y-84652962D01*
X116374500Y-84659412D01*
X116374500Y-85397214D01*
X116387581Y-85462983D01*
X116437421Y-85537575D01*
X116437423Y-85537577D01*
X116512014Y-85587417D01*
X116577789Y-85600500D01*
X116772210Y-85600499D01*
X116837986Y-85587417D01*
X116912577Y-85537577D01*
X116938772Y-85498372D01*
X116979593Y-85468441D01*
X117030104Y-85471752D01*
X117061830Y-85498373D01*
X117087783Y-85537215D01*
X117087784Y-85537216D01*
X117162212Y-85586946D01*
X117162209Y-85586946D01*
X117174999Y-85589489D01*
X117175000Y-85589489D01*
X117175000Y-84460510D01*
X117174999Y-84460509D01*
X117162210Y-84463054D01*
X117162209Y-84463054D01*
X117087784Y-84512783D01*
X117087783Y-84512784D01*
X117061830Y-84551627D01*
X117021009Y-84581559D01*
X116970498Y-84578248D01*
X116938773Y-84551628D01*
X116928420Y-84536134D01*
X116917370Y-84509457D01*
X116915219Y-84498642D01*
X116910966Y-84477259D01*
X116889138Y-84444592D01*
X116878701Y-84428971D01*
X116855603Y-84394401D01*
X116855601Y-84394400D01*
X116855601Y-84394399D01*
X116840735Y-84384466D01*
X116829527Y-84375267D01*
X116724679Y-84270419D01*
X116703287Y-84224543D01*
X116709691Y-84187356D01*
X116736697Y-84128226D01*
X116755133Y-84000000D01*
X116736697Y-83871774D01*
X116682882Y-83753937D01*
X116598049Y-83656033D01*
X116588661Y-83650000D01*
X116990000Y-83650000D01*
X116990000Y-83713297D01*
X116992812Y-83737542D01*
X116992814Y-83737549D01*
X117036606Y-83836727D01*
X117113272Y-83913393D01*
X117212450Y-83957185D01*
X117212457Y-83957187D01*
X117236702Y-83960000D01*
X117270000Y-83960000D01*
X117270000Y-83650000D01*
X116990000Y-83650000D01*
X116588661Y-83650000D01*
X116524732Y-83608915D01*
X116489068Y-83585995D01*
X116364772Y-83549500D01*
X116235228Y-83549500D01*
X116110931Y-83585995D01*
X116001954Y-83656031D01*
X116001950Y-83656034D01*
X115917119Y-83753935D01*
X115917118Y-83753936D01*
X115917118Y-83753937D01*
X115901911Y-83787235D01*
X115863302Y-83871776D01*
X115844867Y-84000000D01*
X110025500Y-84000000D01*
X110025500Y-83750000D01*
X110375000Y-83750000D01*
X110825000Y-83750000D01*
X110825000Y-83275000D01*
X111125000Y-83275000D01*
X111125000Y-83750000D01*
X111575000Y-83750000D01*
X111575000Y-83614418D01*
X111574999Y-83614407D01*
X111564379Y-83541517D01*
X111509412Y-83429082D01*
X111430330Y-83350000D01*
X116990000Y-83350000D01*
X117270000Y-83350000D01*
X117270000Y-83040000D01*
X117236702Y-83040000D01*
X117212457Y-83042812D01*
X117212450Y-83042814D01*
X117113272Y-83086606D01*
X117036606Y-83163272D01*
X116992814Y-83262450D01*
X116992812Y-83262457D01*
X116990000Y-83286702D01*
X116990000Y-83350000D01*
X111430330Y-83350000D01*
X111420917Y-83340587D01*
X111308482Y-83285620D01*
X111235592Y-83275000D01*
X111125000Y-83275000D01*
X110825000Y-83275000D01*
X110714407Y-83275000D01*
X110641517Y-83285620D01*
X110529082Y-83340587D01*
X110440587Y-83429082D01*
X110385620Y-83541517D01*
X110375000Y-83614407D01*
X110375000Y-83750000D01*
X110025500Y-83750000D01*
X110025500Y-83614364D01*
X110014866Y-83541375D01*
X109959826Y-83428789D01*
X109871211Y-83340174D01*
X109871210Y-83340173D01*
X109871208Y-83340172D01*
X109816998Y-83313669D01*
X109781870Y-83277224D01*
X109775500Y-83247189D01*
X109775500Y-82750834D01*
X109792813Y-82703268D01*
X109797174Y-82698508D01*
X110473508Y-82022174D01*
X110519384Y-82000782D01*
X110525834Y-82000500D01*
X111864819Y-82000500D01*
X111864820Y-82000500D01*
X111908722Y-81991767D01*
X111958504Y-81958504D01*
X111991767Y-81908722D01*
X112000500Y-81864820D01*
X112000500Y-81000000D01*
X112534659Y-81000000D01*
X112553976Y-81196133D01*
X112611187Y-81384731D01*
X112698776Y-81548597D01*
X112704090Y-81558538D01*
X112829117Y-81710883D01*
X112981462Y-81835910D01*
X113019134Y-81856046D01*
X113155268Y-81928812D01*
X113155270Y-81928812D01*
X113155273Y-81928814D01*
X113343868Y-81986024D01*
X113540000Y-82005341D01*
X113736132Y-81986024D01*
X113924727Y-81928814D01*
X114098538Y-81835910D01*
X114250883Y-81710883D01*
X114375910Y-81558538D01*
X114468814Y-81384727D01*
X114526024Y-81196132D01*
X114545341Y-81000000D01*
X114526024Y-80803868D01*
X114468814Y-80615273D01*
X114468812Y-80615270D01*
X114468812Y-80615268D01*
X114389604Y-80467082D01*
X114375910Y-80441462D01*
X114250883Y-80289117D01*
X114098538Y-80164090D01*
X114038852Y-80132187D01*
X113929616Y-80073799D01*
X113895828Y-80036108D01*
X113890500Y-80008537D01*
X113890500Y-79635834D01*
X113907813Y-79588268D01*
X113912174Y-79583508D01*
X115223508Y-78272174D01*
X115269384Y-78250782D01*
X115275834Y-78250500D01*
X119840389Y-78250500D01*
X119880394Y-78262246D01*
X119960931Y-78314004D01*
X120085228Y-78350500D01*
X120214772Y-78350500D01*
X120339069Y-78314004D01*
X120448049Y-78243967D01*
X120532882Y-78146063D01*
X120586697Y-78028226D01*
X120605133Y-77900000D01*
X120586697Y-77771774D01*
X120532882Y-77653937D01*
X120448049Y-77556033D01*
X120381032Y-77512964D01*
X120339068Y-77485995D01*
X120214772Y-77449500D01*
X120085228Y-77449500D01*
X119960933Y-77485995D01*
X119960931Y-77485995D01*
X119960931Y-77485996D01*
X119880394Y-77537753D01*
X119840389Y-77549500D01*
X115144021Y-77549500D01*
X115128836Y-77547925D01*
X115114685Y-77544958D01*
X115090883Y-77547925D01*
X115082804Y-77548932D01*
X115073651Y-77549500D01*
X115070960Y-77549500D01*
X115070959Y-77549500D01*
X115070948Y-77549501D01*
X115050963Y-77552835D01*
X115047943Y-77553275D01*
X114998606Y-77559426D01*
X114992729Y-77561176D01*
X114992628Y-77560837D01*
X114990300Y-77561583D01*
X114990415Y-77561918D01*
X114984621Y-77563906D01*
X114940898Y-77587568D01*
X114938179Y-77588967D01*
X114893516Y-77610801D01*
X114888529Y-77614362D01*
X114888324Y-77614075D01*
X114886365Y-77615535D01*
X114886582Y-77615814D01*
X114881741Y-77619582D01*
X114848072Y-77656154D01*
X114845957Y-77658359D01*
X113323286Y-79181030D01*
X113311438Y-79190652D01*
X113299333Y-79198561D01*
X113299325Y-79198568D01*
X113279591Y-79223921D01*
X113273536Y-79230780D01*
X113271629Y-79232687D01*
X113271624Y-79232693D01*
X113259849Y-79249185D01*
X113258023Y-79251634D01*
X113227483Y-79290873D01*
X113224567Y-79296262D01*
X113224255Y-79296093D01*
X113223133Y-79298272D01*
X113223452Y-79298428D01*
X113220759Y-79303936D01*
X113206577Y-79351568D01*
X113205645Y-79354476D01*
X113189500Y-79401509D01*
X113188491Y-79407558D01*
X113188139Y-79407499D01*
X113187787Y-79409916D01*
X113188142Y-79409961D01*
X113187383Y-79416047D01*
X113189437Y-79465707D01*
X113189500Y-79468765D01*
X113189500Y-80008537D01*
X113172187Y-80056103D01*
X113150384Y-80073799D01*
X112981461Y-80164090D01*
X112829117Y-80289117D01*
X112704089Y-80441463D01*
X112611187Y-80615268D01*
X112553976Y-80803866D01*
X112534659Y-81000000D01*
X112000500Y-81000000D01*
X112000500Y-80135180D01*
X111991767Y-80091278D01*
X111958504Y-80041496D01*
X111956265Y-80040000D01*
X111908722Y-80008233D01*
X111864820Y-79999500D01*
X110135180Y-79999500D01*
X110113229Y-80003866D01*
X110091277Y-80008233D01*
X110041496Y-80041495D01*
X110041495Y-80041496D01*
X110008233Y-80091277D01*
X109999500Y-80135180D01*
X109999500Y-81474165D01*
X109982187Y-81521731D01*
X109977826Y-81526491D01*
X109208286Y-82296030D01*
X109196438Y-82305652D01*
X109184333Y-82313561D01*
X109184325Y-82313568D01*
X109164591Y-82338921D01*
X109158536Y-82345780D01*
X109156629Y-82347687D01*
X109156624Y-82347693D01*
X109144849Y-82364185D01*
X109143023Y-82366634D01*
X109112483Y-82405873D01*
X109109567Y-82411262D01*
X109109255Y-82411093D01*
X109108133Y-82413272D01*
X109108452Y-82413428D01*
X109105758Y-82418937D01*
X109095423Y-82453652D01*
X109065257Y-82494301D01*
X109016020Y-82506049D01*
X108970751Y-82483399D01*
X108950632Y-82436950D01*
X108950500Y-82432536D01*
X108950500Y-81731961D01*
X108951922Y-81717523D01*
X108953125Y-81711476D01*
X108955408Y-81700000D01*
X108935966Y-81602259D01*
X108916057Y-81572463D01*
X108900394Y-81549021D01*
X108880602Y-81519400D01*
X108879300Y-81518530D01*
X108865735Y-81509466D01*
X108854527Y-81500267D01*
X108796334Y-81442074D01*
X108774942Y-81396198D01*
X108788043Y-81347303D01*
X108796329Y-81337427D01*
X108824616Y-81309141D01*
X108867730Y-81211498D01*
X108870500Y-81187623D01*
X108870499Y-80832378D01*
X108867730Y-80808502D01*
X108824616Y-80710859D01*
X108749141Y-80635384D01*
X108651498Y-80592270D01*
X108627623Y-80589500D01*
X108627619Y-80589500D01*
X108172377Y-80589500D01*
X108148504Y-80592269D01*
X108050858Y-80635384D01*
X107975383Y-80710859D01*
X107970654Y-80721570D01*
X107935603Y-80758090D01*
X107885278Y-80763535D01*
X107843226Y-80735358D01*
X107835265Y-80721569D01*
X107813813Y-80672984D01*
X107737016Y-80596187D01*
X107671866Y-80567420D01*
X107635347Y-80532370D01*
X107629901Y-80482045D01*
X107658078Y-80439993D01*
X107671868Y-80432031D01*
X107736728Y-80403392D01*
X107813392Y-80326728D01*
X107835264Y-80277194D01*
X107870315Y-80240674D01*
X107920640Y-80235227D01*
X107962692Y-80263404D01*
X107970653Y-80277191D01*
X107975803Y-80288854D01*
X108051144Y-80364195D01*
X108148621Y-80407236D01*
X108172444Y-80410000D01*
X108250000Y-80410000D01*
X108250000Y-80140000D01*
X108550000Y-80140000D01*
X108550000Y-80410000D01*
X108627556Y-80410000D01*
X108651377Y-80407236D01*
X108651379Y-80407236D01*
X108748855Y-80364195D01*
X108824195Y-80288855D01*
X108867236Y-80191379D01*
X108867236Y-80191377D01*
X108870000Y-80167555D01*
X108870000Y-80140000D01*
X108550000Y-80140000D01*
X108250000Y-80140000D01*
X107930000Y-80140000D01*
X107921674Y-80148326D01*
X107875798Y-80169718D01*
X107869348Y-80170000D01*
X106940000Y-80170000D01*
X106940000Y-80203297D01*
X106942812Y-80227542D01*
X106942814Y-80227549D01*
X106986606Y-80326727D01*
X107063271Y-80403392D01*
X107128131Y-80432031D01*
X107164652Y-80467082D01*
X107170098Y-80517407D01*
X107141921Y-80559459D01*
X107128132Y-80567420D01*
X107062984Y-80596186D01*
X106986187Y-80672983D01*
X106946205Y-80763535D01*
X106942318Y-80772338D01*
X106939632Y-80795495D01*
X106939500Y-80796630D01*
X106939500Y-81163372D01*
X106942317Y-81187659D01*
X106942317Y-81187661D01*
X106942318Y-81187662D01*
X106965200Y-81239484D01*
X106986187Y-81287016D01*
X107027826Y-81328655D01*
X107049218Y-81374531D01*
X107049500Y-81380981D01*
X107049500Y-81455974D01*
X107047925Y-81471159D01*
X107044957Y-81485311D01*
X107044957Y-81485316D01*
X107048932Y-81517202D01*
X107049500Y-81526355D01*
X107049500Y-81529048D01*
X107052833Y-81549021D01*
X107053273Y-81552042D01*
X107059425Y-81601387D01*
X107061176Y-81607265D01*
X107060834Y-81607366D01*
X107061580Y-81609695D01*
X107061916Y-81609580D01*
X107063907Y-81615380D01*
X107087567Y-81659100D01*
X107088967Y-81661820D01*
X107110801Y-81706483D01*
X107114366Y-81711476D01*
X107112260Y-81712979D01*
X107129252Y-81749418D01*
X107116151Y-81798313D01*
X107115766Y-81798858D01*
X107114082Y-81801216D01*
X107059957Y-81911931D01*
X107059957Y-81911932D01*
X107049500Y-81983700D01*
X107049500Y-82400500D01*
X107032187Y-82448066D01*
X106988350Y-82473376D01*
X106975500Y-82474500D01*
X106338343Y-82474500D01*
X106290777Y-82457187D01*
X106265467Y-82413350D01*
X106265765Y-82386063D01*
X106270000Y-82364773D01*
X106270000Y-82200000D01*
X104535377Y-82200000D01*
X104487811Y-82182687D01*
X104467010Y-82154319D01*
X104463335Y-82145446D01*
X104452698Y-82119767D01*
X104360451Y-81999549D01*
X104240233Y-81907302D01*
X104222605Y-81900000D01*
X104100235Y-81849312D01*
X104013897Y-81837946D01*
X103987720Y-81834500D01*
X103912280Y-81834500D01*
X103886102Y-81837946D01*
X103799765Y-81849312D01*
X103799764Y-81849312D01*
X103659766Y-81907302D01*
X103539549Y-81999549D01*
X103447302Y-82119766D01*
X103389312Y-82259764D01*
X103389312Y-82259765D01*
X103369534Y-82410000D01*
X103389312Y-82560234D01*
X103389312Y-82560235D01*
X103421701Y-82638428D01*
X103447302Y-82700233D01*
X103539549Y-82820451D01*
X103659767Y-82912698D01*
X103799764Y-82970687D01*
X103826405Y-82974194D01*
X103871305Y-82997566D01*
X103890677Y-83044331D01*
X103875457Y-83092608D01*
X103869074Y-83099887D01*
X103567440Y-83401520D01*
X103555592Y-83411142D01*
X103542163Y-83419916D01*
X103520815Y-83447343D01*
X103514758Y-83454203D01*
X103512483Y-83456478D01*
X103512478Y-83456484D01*
X103499796Y-83474246D01*
X103497970Y-83476694D01*
X103465194Y-83518805D01*
X103462273Y-83524204D01*
X103462026Y-83524070D01*
X103460430Y-83527171D01*
X103460682Y-83527295D01*
X103457988Y-83532804D01*
X103442768Y-83583926D01*
X103441836Y-83586836D01*
X103424499Y-83637339D01*
X103423491Y-83643386D01*
X103423213Y-83643339D01*
X103422711Y-83646790D01*
X103422990Y-83646825D01*
X103422232Y-83652908D01*
X103422232Y-83652911D01*
X103422232Y-83652912D01*
X103423146Y-83675008D01*
X103424437Y-83706232D01*
X103424500Y-83709289D01*
X103424500Y-86853381D01*
X103422925Y-86868566D01*
X103419633Y-86884264D01*
X103419633Y-86884269D01*
X103423932Y-86918755D01*
X103424500Y-86927908D01*
X103424500Y-86931118D01*
X103428089Y-86952626D01*
X103428530Y-86955650D01*
X103435134Y-87008627D01*
X103436884Y-87014504D01*
X103436615Y-87014584D01*
X103437679Y-87017904D01*
X103437945Y-87017813D01*
X103439935Y-87023610D01*
X103465333Y-87070543D01*
X103466731Y-87073260D01*
X103490175Y-87121214D01*
X103493738Y-87126204D01*
X103493510Y-87126366D01*
X103495595Y-87129162D01*
X103495817Y-87128990D01*
X103499578Y-87133823D01*
X103499580Y-87133825D01*
X103499581Y-87133826D01*
X103538863Y-87169988D01*
X103541045Y-87172082D01*
X103869075Y-87500112D01*
X103890467Y-87545988D01*
X103877366Y-87594883D01*
X103835902Y-87623917D01*
X103826408Y-87625805D01*
X103799765Y-87629312D01*
X103799764Y-87629312D01*
X103659766Y-87687302D01*
X103539549Y-87779549D01*
X103447302Y-87899766D01*
X103389312Y-88039764D01*
X103389312Y-88039765D01*
X103369534Y-88190000D01*
X103389312Y-88340234D01*
X103389312Y-88340235D01*
X103446293Y-88477797D01*
X103447302Y-88480233D01*
X103539549Y-88600451D01*
X103659767Y-88692698D01*
X103799764Y-88750687D01*
X103912280Y-88765500D01*
X103912282Y-88765500D01*
X103987718Y-88765500D01*
X103987720Y-88765500D01*
X104100236Y-88750687D01*
X104240233Y-88692698D01*
X104360451Y-88600451D01*
X104452698Y-88480233D01*
X104467010Y-88445681D01*
X104501208Y-88408361D01*
X104535377Y-88400000D01*
X105245000Y-88400000D01*
X105245000Y-88274500D01*
X105262313Y-88226934D01*
X105306150Y-88201624D01*
X105319000Y-88200500D01*
X105471000Y-88200500D01*
X105518566Y-88217813D01*
X105543876Y-88261650D01*
X105545000Y-88274500D01*
X105545000Y-88400000D01*
X106269999Y-88400000D01*
X106269999Y-88235221D01*
X106261298Y-88191473D01*
X106258509Y-88184741D01*
X106259578Y-88184298D01*
X106249324Y-88142392D01*
X106261352Y-88109342D01*
X106261767Y-88108722D01*
X106261767Y-88108718D01*
X106264851Y-88104104D01*
X106305671Y-88074171D01*
X106356182Y-88077480D01*
X106378707Y-88092888D01*
X106927826Y-88642007D01*
X106949218Y-88687883D01*
X106949500Y-88694333D01*
X106949500Y-89823611D01*
X106932187Y-89871177D01*
X106905392Y-89891304D01*
X106850859Y-89915384D01*
X106850857Y-89915385D01*
X106775385Y-89990857D01*
X106732270Y-90088501D01*
X106729500Y-90112380D01*
X106729500Y-90467622D01*
X106732269Y-90491495D01*
X106732269Y-90491497D01*
X106732270Y-90491498D01*
X106775384Y-90589141D01*
X106850859Y-90664616D01*
X106948502Y-90707730D01*
X106972377Y-90710500D01*
X107427622Y-90710499D01*
X107451498Y-90707730D01*
X107549141Y-90664616D01*
X107624616Y-90589141D01*
X107667730Y-90491498D01*
X107670500Y-90467623D01*
X107670499Y-90112378D01*
X107667730Y-90088502D01*
X107624616Y-89990859D01*
X107549141Y-89915384D01*
X107494608Y-89891305D01*
X107458089Y-89856255D01*
X107450500Y-89823611D01*
X107450500Y-89404123D01*
X107467813Y-89356557D01*
X107511650Y-89331247D01*
X107561500Y-89340037D01*
X107576826Y-89351797D01*
X107627235Y-89402206D01*
X107730009Y-89447585D01*
X107755135Y-89450500D01*
X108144864Y-89450499D01*
X108169991Y-89447585D01*
X108272765Y-89402206D01*
X108352206Y-89322765D01*
X108357577Y-89310599D01*
X108392625Y-89274079D01*
X108442950Y-89268630D01*
X108485003Y-89296805D01*
X108492966Y-89310596D01*
X108498212Y-89322477D01*
X108577521Y-89401786D01*
X108680124Y-89447089D01*
X108680123Y-89447089D01*
X108705210Y-89449999D01*
X108749999Y-89449998D01*
X108750000Y-89449998D01*
X108750000Y-88561500D01*
X108767313Y-88513934D01*
X108811150Y-88488624D01*
X108824000Y-88487500D01*
X108976000Y-88487500D01*
X109023566Y-88504813D01*
X109048876Y-88548650D01*
X109050000Y-88561500D01*
X109050000Y-89449999D01*
X109094792Y-89449999D01*
X109119868Y-89447091D01*
X109119874Y-89447089D01*
X109222478Y-89401786D01*
X109301787Y-89322477D01*
X109307032Y-89310599D01*
X109342082Y-89274078D01*
X109392407Y-89268631D01*
X109434459Y-89296807D01*
X109442420Y-89310596D01*
X109447794Y-89322765D01*
X109527235Y-89402206D01*
X109630009Y-89447585D01*
X109655135Y-89450500D01*
X110044864Y-89450499D01*
X110069991Y-89447585D01*
X110172765Y-89402206D01*
X110244971Y-89330000D01*
X110740000Y-89330000D01*
X110740000Y-89363297D01*
X110742812Y-89387542D01*
X110742814Y-89387549D01*
X110786606Y-89486727D01*
X110863272Y-89563393D01*
X110962450Y-89607185D01*
X110962457Y-89607187D01*
X110986702Y-89610000D01*
X111050000Y-89610000D01*
X111050000Y-89330000D01*
X111350000Y-89330000D01*
X111350000Y-89610000D01*
X111413298Y-89610000D01*
X111437542Y-89607187D01*
X111437549Y-89607185D01*
X111536727Y-89563393D01*
X111613393Y-89486727D01*
X111657185Y-89387549D01*
X111657187Y-89387542D01*
X111660000Y-89363297D01*
X111660000Y-89330000D01*
X111350000Y-89330000D01*
X111050000Y-89330000D01*
X110740000Y-89330000D01*
X110244971Y-89330000D01*
X110252206Y-89322765D01*
X110297585Y-89219991D01*
X110300500Y-89194865D01*
X110300499Y-88080136D01*
X110297585Y-88055009D01*
X110297312Y-88054392D01*
X110297279Y-88053886D01*
X110296123Y-88049637D01*
X110296979Y-88049404D01*
X110293935Y-88003887D01*
X110323812Y-87963026D01*
X110365006Y-87950500D01*
X110365588Y-87950500D01*
X110413154Y-87967813D01*
X110417914Y-87972174D01*
X110717826Y-88272086D01*
X110739218Y-88317962D01*
X110739500Y-88324411D01*
X110739500Y-88403372D01*
X110742317Y-88427659D01*
X110742317Y-88427661D01*
X110742318Y-88427662D01*
X110786187Y-88527016D01*
X110862984Y-88603813D01*
X110928131Y-88632578D01*
X110964652Y-88667629D01*
X110970098Y-88717954D01*
X110941921Y-88760006D01*
X110928132Y-88767967D01*
X110863272Y-88796606D01*
X110786606Y-88873272D01*
X110742814Y-88972450D01*
X110742812Y-88972457D01*
X110740000Y-88996702D01*
X110740000Y-89030000D01*
X111660000Y-89030000D01*
X111660000Y-88996702D01*
X111657187Y-88972457D01*
X111657185Y-88972450D01*
X111613393Y-88873272D01*
X111551924Y-88811803D01*
X111530532Y-88765927D01*
X111543633Y-88717032D01*
X111585097Y-88687998D01*
X111635524Y-88692410D01*
X111645353Y-88697943D01*
X111702260Y-88735966D01*
X111766046Y-88748654D01*
X111809320Y-88774914D01*
X111824835Y-88810562D01*
X111834427Y-88876393D01*
X111834427Y-88876394D01*
X111885801Y-88981482D01*
X111885802Y-88981483D01*
X111968517Y-89064198D01*
X112073607Y-89115573D01*
X112141740Y-89125500D01*
X112141746Y-89125500D01*
X112608254Y-89125500D01*
X112608260Y-89125500D01*
X112676393Y-89115573D01*
X112676398Y-89115570D01*
X112678654Y-89114874D01*
X112680545Y-89114967D01*
X112682080Y-89114744D01*
X112682123Y-89115045D01*
X112729211Y-89117373D01*
X112766334Y-89151784D01*
X112774500Y-89185576D01*
X112774500Y-89293037D01*
X112773078Y-89307473D01*
X112770037Y-89322765D01*
X112769592Y-89325000D01*
X112789034Y-89422741D01*
X112799919Y-89439031D01*
X112799920Y-89439034D01*
X112799921Y-89439034D01*
X112842275Y-89502423D01*
X112844399Y-89505601D01*
X112859260Y-89515531D01*
X112870472Y-89524732D01*
X113348914Y-90003174D01*
X113370306Y-90049050D01*
X113357205Y-90097945D01*
X113315741Y-90126979D01*
X113296588Y-90129500D01*
X112962377Y-90129500D01*
X112938504Y-90132269D01*
X112840858Y-90175384D01*
X112765385Y-90250857D01*
X112765384Y-90250858D01*
X112765384Y-90250859D01*
X112745110Y-90296776D01*
X112741306Y-90305391D01*
X112706255Y-90341911D01*
X112673611Y-90349500D01*
X112345443Y-90349500D01*
X112297877Y-90332187D01*
X112272567Y-90288350D01*
X112272216Y-90286168D01*
X112265044Y-90236937D01*
X112265042Y-90236932D01*
X112210919Y-90126220D01*
X112123780Y-90039081D01*
X112123779Y-90039080D01*
X112013068Y-89984957D01*
X111977181Y-89979728D01*
X111941295Y-89974500D01*
X111941294Y-89974500D01*
X111433705Y-89974500D01*
X111361938Y-89984955D01*
X111361931Y-89984957D01*
X111251220Y-90039080D01*
X111164080Y-90126220D01*
X111109957Y-90236931D01*
X111109957Y-90236932D01*
X111099500Y-90308700D01*
X111099500Y-90891294D01*
X111109955Y-90963061D01*
X111109957Y-90963068D01*
X111136812Y-91018000D01*
X111142149Y-91068336D01*
X111113882Y-91110327D01*
X111070331Y-91124500D01*
X110729669Y-91124500D01*
X110682103Y-91107187D01*
X110656793Y-91063350D01*
X110663188Y-91018000D01*
X110672880Y-90998174D01*
X110690043Y-90963067D01*
X110700500Y-90891295D01*
X110700499Y-90308706D01*
X110697216Y-90286168D01*
X110690044Y-90236938D01*
X110690042Y-90236932D01*
X110635919Y-90126220D01*
X110548780Y-90039081D01*
X110548779Y-90039080D01*
X110438068Y-89984957D01*
X110402181Y-89979728D01*
X110366295Y-89974500D01*
X110366294Y-89974500D01*
X109858705Y-89974500D01*
X109786938Y-89984955D01*
X109786931Y-89984957D01*
X109676220Y-90039080D01*
X109589080Y-90126220D01*
X109534957Y-90236931D01*
X109534957Y-90236932D01*
X109524500Y-90308700D01*
X109524500Y-90891294D01*
X109534955Y-90963061D01*
X109534957Y-90963068D01*
X109589080Y-91073779D01*
X109676220Y-91160919D01*
X109720500Y-91182566D01*
X109755630Y-91219010D01*
X109762000Y-91249047D01*
X109762000Y-91425653D01*
X109760287Y-91437416D01*
X109760642Y-91437461D01*
X109759883Y-91443547D01*
X109761937Y-91493207D01*
X109762000Y-91496265D01*
X109762000Y-91650951D01*
X109744687Y-91698517D01*
X109720502Y-91717431D01*
X109676222Y-91739079D01*
X109676221Y-91739080D01*
X109589080Y-91826220D01*
X109534957Y-91936931D01*
X109534957Y-91936932D01*
X109524500Y-92008700D01*
X109524500Y-92591294D01*
X109534955Y-92663061D01*
X109534957Y-92663068D01*
X109589080Y-92773779D01*
X109589081Y-92773780D01*
X109676220Y-92860919D01*
X109786933Y-92915043D01*
X109858705Y-92925500D01*
X110366294Y-92925499D01*
X110438061Y-92915044D01*
X110438061Y-92915043D01*
X110438067Y-92915043D01*
X110548780Y-92860919D01*
X110635919Y-92773780D01*
X110690043Y-92663067D01*
X110700500Y-92591295D01*
X110700499Y-92008706D01*
X110693460Y-91960385D01*
X110690044Y-91936938D01*
X110690043Y-91936936D01*
X110690043Y-91936933D01*
X110687631Y-91932000D01*
X110682293Y-91881666D01*
X110710559Y-91839674D01*
X110754112Y-91825500D01*
X111045888Y-91825500D01*
X111093454Y-91842813D01*
X111118764Y-91886650D01*
X111112368Y-91932000D01*
X111111292Y-91934201D01*
X111109957Y-91936932D01*
X111099500Y-92008700D01*
X111099500Y-92591294D01*
X111109955Y-92663061D01*
X111109957Y-92663068D01*
X111164080Y-92773779D01*
X111164081Y-92773780D01*
X111251220Y-92860919D01*
X111361933Y-92915043D01*
X111433705Y-92925500D01*
X111941294Y-92925499D01*
X112013061Y-92915044D01*
X112013061Y-92915043D01*
X112013067Y-92915043D01*
X112123780Y-92860919D01*
X112210919Y-92773780D01*
X112265043Y-92663067D01*
X112272216Y-92613829D01*
X112296206Y-92569258D01*
X112343234Y-92550533D01*
X112345443Y-92550500D01*
X112683611Y-92550500D01*
X112731177Y-92567813D01*
X112751304Y-92594607D01*
X112775384Y-92649141D01*
X112850859Y-92724616D01*
X112948502Y-92767730D01*
X112972377Y-92770500D01*
X113327622Y-92770499D01*
X113351498Y-92767730D01*
X113449141Y-92724616D01*
X113524616Y-92649141D01*
X113567730Y-92551498D01*
X113570500Y-92527623D01*
X113570499Y-92072378D01*
X113567730Y-92048502D01*
X113524616Y-91950859D01*
X113524615Y-91950858D01*
X113524614Y-91950855D01*
X113520741Y-91945201D01*
X113522069Y-91944291D01*
X113504191Y-91905950D01*
X113517292Y-91857055D01*
X113558756Y-91828021D01*
X113577909Y-91825500D01*
X113742091Y-91825500D01*
X113789657Y-91842813D01*
X113814967Y-91886650D01*
X113806177Y-91936500D01*
X113797249Y-91948134D01*
X113795386Y-91950853D01*
X113752270Y-92048501D01*
X113749500Y-92072380D01*
X113749500Y-92527622D01*
X113752269Y-92551495D01*
X113752269Y-92551497D01*
X113752270Y-92551498D01*
X113795384Y-92649141D01*
X113870859Y-92724616D01*
X113968502Y-92767730D01*
X113992377Y-92770500D01*
X114347622Y-92770499D01*
X114371498Y-92767730D01*
X114469141Y-92724616D01*
X114544616Y-92649141D01*
X114568694Y-92594608D01*
X114603745Y-92558089D01*
X114636389Y-92550500D01*
X117487168Y-92550500D01*
X117534734Y-92567813D01*
X117543094Y-92576041D01*
X117601947Y-92643963D01*
X117601948Y-92643964D01*
X117601951Y-92643967D01*
X117710931Y-92714004D01*
X117835228Y-92750500D01*
X117964772Y-92750500D01*
X118089069Y-92714004D01*
X118198049Y-92643967D01*
X118282882Y-92546063D01*
X118336697Y-92428226D01*
X118355133Y-92300000D01*
X118336697Y-92171774D01*
X118282882Y-92053937D01*
X118198049Y-91956033D01*
X118198045Y-91956030D01*
X118197349Y-91955427D01*
X118197036Y-91954865D01*
X118194583Y-91952034D01*
X118195175Y-91951520D01*
X118172737Y-91911195D01*
X118182315Y-91861490D01*
X118221601Y-91829571D01*
X118245807Y-91825500D01*
X120610975Y-91825500D01*
X120626159Y-91827074D01*
X120640315Y-91830043D01*
X120670983Y-91826220D01*
X120672203Y-91826068D01*
X120681356Y-91825500D01*
X120684034Y-91825500D01*
X120684040Y-91825500D01*
X120704069Y-91822157D01*
X120707027Y-91821726D01*
X120756393Y-91815573D01*
X120756399Y-91815569D01*
X120762268Y-91813823D01*
X120762371Y-91814170D01*
X120764696Y-91813425D01*
X120764579Y-91813084D01*
X120770377Y-91811093D01*
X120770377Y-91811092D01*
X120770381Y-91811092D01*
X120814143Y-91787407D01*
X120816804Y-91786039D01*
X120861484Y-91764198D01*
X120866476Y-91760634D01*
X120866684Y-91760926D01*
X120868640Y-91759468D01*
X120868419Y-91759184D01*
X120873258Y-91755418D01*
X120879166Y-91749000D01*
X120906950Y-91718817D01*
X120908997Y-91716683D01*
X120938510Y-91687171D01*
X120984386Y-91665781D01*
X120990833Y-91665500D01*
X121096091Y-91665500D01*
X121143657Y-91682813D01*
X121148415Y-91687172D01*
X121150859Y-91689616D01*
X121248502Y-91732730D01*
X121272377Y-91735500D01*
X121727622Y-91735499D01*
X121751498Y-91732730D01*
X121830610Y-91697797D01*
X121881116Y-91694423D01*
X121921976Y-91724302D01*
X121934500Y-91765493D01*
X121934500Y-91884506D01*
X121917187Y-91932072D01*
X121873350Y-91957382D01*
X121830610Y-91952201D01*
X121751500Y-91917270D01*
X121743539Y-91916346D01*
X121727623Y-91914500D01*
X121727619Y-91914500D01*
X121272377Y-91914500D01*
X121248504Y-91917269D01*
X121150858Y-91960384D01*
X121075385Y-92035857D01*
X121075384Y-92035858D01*
X121075384Y-92035859D01*
X121069361Y-92049500D01*
X121032270Y-92133501D01*
X121029500Y-92157380D01*
X121029500Y-92512622D01*
X121032269Y-92536495D01*
X121032269Y-92536497D01*
X121032270Y-92536498D01*
X121075384Y-92634141D01*
X121150859Y-92709616D01*
X121248502Y-92752730D01*
X121272377Y-92755500D01*
X121727622Y-92755499D01*
X121751498Y-92752730D01*
X121849141Y-92709616D01*
X121924616Y-92634141D01*
X121926616Y-92629610D01*
X121961665Y-92593091D01*
X121994311Y-92585500D01*
X122050588Y-92585500D01*
X122098154Y-92602813D01*
X122102914Y-92607174D01*
X122125267Y-92629527D01*
X122134466Y-92640735D01*
X122144399Y-92655601D01*
X122225235Y-92709612D01*
X122225240Y-92709619D01*
X122225241Y-92709617D01*
X122227260Y-92710966D01*
X122301878Y-92725808D01*
X122345152Y-92752067D01*
X122348967Y-92757271D01*
X122366496Y-92783504D01*
X122416278Y-92816767D01*
X122460180Y-92825500D01*
X122460181Y-92825500D01*
X123139819Y-92825500D01*
X123139820Y-92825500D01*
X123183722Y-92816767D01*
X123233504Y-92783504D01*
X123266767Y-92733722D01*
X123275500Y-92689820D01*
X124224500Y-92689820D01*
X124232285Y-92728958D01*
X124233233Y-92733722D01*
X124259998Y-92773780D01*
X124266496Y-92783504D01*
X124316278Y-92816767D01*
X124360180Y-92825500D01*
X124360181Y-92825500D01*
X125039819Y-92825500D01*
X125039820Y-92825500D01*
X125083722Y-92816767D01*
X125133504Y-92783504D01*
X125150286Y-92758388D01*
X125191107Y-92728456D01*
X125211815Y-92725500D01*
X125243038Y-92725500D01*
X125257474Y-92726921D01*
X125275000Y-92730408D01*
X125372741Y-92710966D01*
X125404388Y-92689820D01*
X125455601Y-92655601D01*
X125462077Y-92645907D01*
X125502897Y-92615974D01*
X125553408Y-92619282D01*
X125575934Y-92634691D01*
X125650859Y-92709616D01*
X125748502Y-92752730D01*
X125772377Y-92755500D01*
X126227622Y-92755499D01*
X126251498Y-92752730D01*
X126349141Y-92709616D01*
X126424616Y-92634141D01*
X126426616Y-92629610D01*
X126461665Y-92593091D01*
X126494311Y-92585500D01*
X127133038Y-92585500D01*
X127147474Y-92586921D01*
X127165000Y-92590408D01*
X127262741Y-92570966D01*
X127278055Y-92560733D01*
X127293369Y-92550501D01*
X127293370Y-92550500D01*
X127300009Y-92546064D01*
X127345601Y-92515601D01*
X127355533Y-92500734D01*
X127364727Y-92489531D01*
X127932086Y-91922174D01*
X127977963Y-91900782D01*
X127984412Y-91900500D01*
X128950587Y-91900500D01*
X128998153Y-91917813D01*
X129021398Y-91953015D01*
X129042615Y-92022956D01*
X129046187Y-92034731D01*
X129129535Y-92190662D01*
X129139090Y-92208538D01*
X129264117Y-92360883D01*
X129416462Y-92485910D01*
X129466437Y-92512622D01*
X129590268Y-92578812D01*
X129590270Y-92578812D01*
X129590273Y-92578814D01*
X129778868Y-92636024D01*
X129975000Y-92655341D01*
X130171132Y-92636024D01*
X130359727Y-92578814D01*
X130374412Y-92570965D01*
X130380308Y-92567813D01*
X130533538Y-92485910D01*
X130685883Y-92360883D01*
X130810910Y-92208538D01*
X130903814Y-92034727D01*
X130961024Y-91846132D01*
X130980341Y-91650000D01*
X130961024Y-91453868D01*
X130903814Y-91265273D01*
X130903812Y-91265270D01*
X130903812Y-91265268D01*
X130845442Y-91156066D01*
X130810910Y-91091462D01*
X130685883Y-90939117D01*
X130533538Y-90814090D01*
X130498164Y-90795182D01*
X130359731Y-90721187D01*
X130171133Y-90663976D01*
X129975000Y-90644659D01*
X129778866Y-90663976D01*
X129590268Y-90721187D01*
X129416463Y-90814089D01*
X129264117Y-90939117D01*
X129139089Y-91091463D01*
X129046187Y-91265268D01*
X129044951Y-91269343D01*
X129021398Y-91346983D01*
X128991026Y-91387473D01*
X128950587Y-91399500D01*
X127881962Y-91399500D01*
X127867525Y-91398078D01*
X127850000Y-91394592D01*
X127752258Y-91414034D01*
X127729843Y-91429012D01*
X127669399Y-91469398D01*
X127669397Y-91469400D01*
X127659466Y-91484262D01*
X127650266Y-91495472D01*
X127082914Y-92062826D01*
X127037038Y-92084218D01*
X127030588Y-92084500D01*
X126494311Y-92084500D01*
X126446745Y-92067187D01*
X126426616Y-92040390D01*
X126424616Y-92035859D01*
X126349141Y-91960384D01*
X126251498Y-91917270D01*
X126227623Y-91914500D01*
X126227619Y-91914500D01*
X125772377Y-91914500D01*
X125748504Y-91917269D01*
X125650858Y-91960384D01*
X125575385Y-92035857D01*
X125575384Y-92035858D01*
X125575384Y-92035859D01*
X125573383Y-92040389D01*
X125538335Y-92076909D01*
X125505689Y-92084500D01*
X125446962Y-92084500D01*
X125432525Y-92083078D01*
X125415000Y-92079592D01*
X125390326Y-92084500D01*
X125317259Y-92099034D01*
X125288143Y-92118489D01*
X125238974Y-92130520D01*
X125193576Y-92108131D01*
X125173189Y-92061799D01*
X125174453Y-92042523D01*
X125175000Y-92039773D01*
X125175000Y-91975000D01*
X124225001Y-91975000D01*
X124225001Y-92039778D01*
X124233701Y-92083524D01*
X124250348Y-92108438D01*
X124262379Y-92157606D01*
X124250349Y-92190661D01*
X124233234Y-92216277D01*
X124233233Y-92216278D01*
X124224500Y-92260180D01*
X124224500Y-92689820D01*
X123275500Y-92689820D01*
X123275500Y-92260180D01*
X123266767Y-92216278D01*
X123249650Y-92190661D01*
X123237620Y-92141493D01*
X123249652Y-92108437D01*
X123266296Y-92083527D01*
X123275000Y-92039773D01*
X123275000Y-91975000D01*
X122724000Y-91975000D01*
X122676434Y-91957687D01*
X122651124Y-91913850D01*
X122650000Y-91901000D01*
X122650000Y-91749000D01*
X122667313Y-91701434D01*
X122711150Y-91676124D01*
X122724000Y-91675000D01*
X123274999Y-91675000D01*
X123274999Y-91610221D01*
X123266298Y-91566474D01*
X123249651Y-91541560D01*
X123237620Y-91492391D01*
X123249651Y-91459338D01*
X123266767Y-91433722D01*
X123275500Y-91389820D01*
X123275500Y-90960180D01*
X123266767Y-90916278D01*
X123233504Y-90866496D01*
X123233503Y-90866495D01*
X123183388Y-90833009D01*
X123153456Y-90792187D01*
X123150500Y-90771480D01*
X123150500Y-90694020D01*
X123152075Y-90678834D01*
X123153704Y-90671064D01*
X123155042Y-90664685D01*
X123151068Y-90632802D01*
X123150500Y-90623650D01*
X123150500Y-90620964D01*
X123150499Y-90620955D01*
X123147165Y-90600978D01*
X123146723Y-90597949D01*
X123145517Y-90588272D01*
X123140573Y-90548607D01*
X123140571Y-90548604D01*
X123138822Y-90542725D01*
X123139166Y-90542622D01*
X123138422Y-90540300D01*
X123138082Y-90540417D01*
X123136091Y-90534617D01*
X123112431Y-90490897D01*
X123111031Y-90488177D01*
X123100981Y-90467619D01*
X123089198Y-90443516D01*
X123089193Y-90443511D01*
X123085632Y-90438522D01*
X123085923Y-90438313D01*
X123084465Y-90436358D01*
X123084183Y-90436579D01*
X123080421Y-90431745D01*
X123073094Y-90425000D01*
X123060535Y-90413438D01*
X123037266Y-90368487D01*
X123048335Y-90319093D01*
X123058330Y-90306669D01*
X123080000Y-90284999D01*
X123080000Y-89975000D01*
X123380000Y-89975000D01*
X123380000Y-90285000D01*
X123413298Y-90285000D01*
X123437542Y-90282187D01*
X123437549Y-90282185D01*
X123536727Y-90238393D01*
X123613393Y-90161727D01*
X123657185Y-90062549D01*
X123657187Y-90062542D01*
X123660000Y-90038297D01*
X123660000Y-89975000D01*
X123840000Y-89975000D01*
X123840000Y-90038297D01*
X123842812Y-90062542D01*
X123842814Y-90062549D01*
X123886606Y-90161727D01*
X123963272Y-90238393D01*
X124062450Y-90282185D01*
X124062457Y-90282187D01*
X124086702Y-90285000D01*
X124120000Y-90285000D01*
X124120000Y-89975000D01*
X123840000Y-89975000D01*
X123660000Y-89975000D01*
X123380000Y-89975000D01*
X123080000Y-89975000D01*
X123080000Y-89749000D01*
X123097313Y-89701434D01*
X123141150Y-89676124D01*
X123154000Y-89675000D01*
X123660000Y-89675000D01*
X123840000Y-89675000D01*
X124120000Y-89675000D01*
X124120000Y-89365000D01*
X124086702Y-89365000D01*
X124062457Y-89367812D01*
X124062450Y-89367814D01*
X123963272Y-89411606D01*
X123886606Y-89488272D01*
X123842814Y-89587450D01*
X123842812Y-89587457D01*
X123840000Y-89611702D01*
X123840000Y-89675000D01*
X123660000Y-89675000D01*
X123660000Y-89611702D01*
X123657187Y-89587457D01*
X123657185Y-89587450D01*
X123613393Y-89488272D01*
X123579423Y-89454302D01*
X123558031Y-89408426D01*
X123571132Y-89359531D01*
X123593001Y-89341991D01*
X123591681Y-89340016D01*
X123630084Y-89314355D01*
X123630085Y-89314354D01*
X123651081Y-89300325D01*
X123680601Y-89280601D01*
X123690533Y-89265734D01*
X123699727Y-89254531D01*
X124054531Y-88899727D01*
X124065734Y-88890533D01*
X124080601Y-88880601D01*
X124135966Y-88797740D01*
X124135967Y-88797734D01*
X124136575Y-88796268D01*
X124137958Y-88794758D01*
X124140015Y-88791680D01*
X124140488Y-88791996D01*
X124170770Y-88758946D01*
X124220955Y-88752335D01*
X124263649Y-88779529D01*
X124266472Y-88783469D01*
X124266494Y-88783502D01*
X124266495Y-88783503D01*
X124266496Y-88783504D01*
X124316278Y-88816767D01*
X124360180Y-88825500D01*
X124360181Y-88825500D01*
X125039819Y-88825500D01*
X125039820Y-88825500D01*
X125083722Y-88816767D01*
X125133504Y-88783504D01*
X125150286Y-88758388D01*
X125191107Y-88728456D01*
X125211815Y-88725500D01*
X125243038Y-88725500D01*
X125257474Y-88726921D01*
X125275000Y-88730408D01*
X125372741Y-88710966D01*
X125411242Y-88685240D01*
X125455601Y-88655601D01*
X125462077Y-88645907D01*
X125502897Y-88615974D01*
X125553408Y-88619282D01*
X125575934Y-88634691D01*
X125605491Y-88664248D01*
X125626883Y-88710124D01*
X125617473Y-88748281D01*
X125619317Y-88749123D01*
X125617118Y-88753935D01*
X125617118Y-88753937D01*
X125591258Y-88810562D01*
X125563302Y-88871776D01*
X125544867Y-88999999D01*
X125563302Y-89128223D01*
X125563302Y-89128224D01*
X125563303Y-89128226D01*
X125617118Y-89246063D01*
X125701951Y-89343967D01*
X125701954Y-89343969D01*
X125702651Y-89344573D01*
X125702963Y-89345134D01*
X125705417Y-89347966D01*
X125704824Y-89348479D01*
X125727263Y-89388805D01*
X125717685Y-89438510D01*
X125678399Y-89470429D01*
X125654193Y-89474500D01*
X125630981Y-89474500D01*
X125583415Y-89457187D01*
X125578655Y-89452826D01*
X125537016Y-89411187D01*
X125522417Y-89404741D01*
X125437662Y-89367318D01*
X125437663Y-89367318D01*
X125432804Y-89366754D01*
X125413373Y-89364500D01*
X125413369Y-89364500D01*
X125046627Y-89364500D01*
X125022340Y-89367317D01*
X124922983Y-89411187D01*
X124846186Y-89487984D01*
X124817420Y-89553132D01*
X124782369Y-89589652D01*
X124732044Y-89595097D01*
X124689992Y-89566921D01*
X124682031Y-89553131D01*
X124653392Y-89488271D01*
X124576727Y-89411606D01*
X124477549Y-89367814D01*
X124477542Y-89367812D01*
X124453298Y-89365000D01*
X124420000Y-89365000D01*
X124420000Y-90285000D01*
X124453298Y-90285000D01*
X124483077Y-90281546D01*
X124483258Y-90283106D01*
X124526744Y-90286738D01*
X124562678Y-90322389D01*
X124567290Y-90372797D01*
X124548062Y-90406254D01*
X124483286Y-90471030D01*
X124471438Y-90480652D01*
X124459333Y-90488561D01*
X124459325Y-90488568D01*
X124439591Y-90513921D01*
X124433536Y-90520780D01*
X124431629Y-90522687D01*
X124431624Y-90522693D01*
X124419849Y-90539185D01*
X124418023Y-90541634D01*
X124387483Y-90580873D01*
X124384567Y-90586262D01*
X124384255Y-90586093D01*
X124383133Y-90588272D01*
X124383452Y-90588428D01*
X124380759Y-90593936D01*
X124366577Y-90641568D01*
X124365645Y-90644476D01*
X124349500Y-90691509D01*
X124348491Y-90697558D01*
X124348139Y-90697499D01*
X124347787Y-90699916D01*
X124348142Y-90699961D01*
X124347383Y-90706047D01*
X124349437Y-90755707D01*
X124349500Y-90758765D01*
X124349500Y-90771480D01*
X124332187Y-90819046D01*
X124316612Y-90833009D01*
X124266496Y-90866495D01*
X124266495Y-90866496D01*
X124233233Y-90916277D01*
X124224500Y-90960180D01*
X124224500Y-91389819D01*
X124233233Y-91433723D01*
X124250348Y-91459338D01*
X124262379Y-91508506D01*
X124250349Y-91541560D01*
X124233703Y-91566473D01*
X124225000Y-91610226D01*
X124225000Y-91675000D01*
X125174999Y-91675000D01*
X125174999Y-91610221D01*
X125166298Y-91566474D01*
X125149651Y-91541560D01*
X125137620Y-91492391D01*
X125149651Y-91459338D01*
X125166767Y-91433722D01*
X125175500Y-91389820D01*
X125175500Y-90960180D01*
X125166767Y-90916278D01*
X125145485Y-90884428D01*
X125133455Y-90835261D01*
X125154688Y-90790992D01*
X125446715Y-90498965D01*
X125458561Y-90489346D01*
X125470669Y-90481437D01*
X125490408Y-90456075D01*
X125496467Y-90449213D01*
X125498375Y-90447307D01*
X125510181Y-90430769D01*
X125511944Y-90428404D01*
X125542517Y-90389126D01*
X125542520Y-90389115D01*
X125545435Y-90383732D01*
X125545753Y-90383904D01*
X125546871Y-90381732D01*
X125546546Y-90381574D01*
X125549240Y-90376064D01*
X125560494Y-90338258D01*
X125563423Y-90328417D01*
X125564352Y-90325520D01*
X125565427Y-90322389D01*
X125580500Y-90278488D01*
X125580500Y-90278480D01*
X125581509Y-90272439D01*
X125581862Y-90272498D01*
X125582214Y-90270085D01*
X125581858Y-90270041D01*
X125582615Y-90263959D01*
X125582617Y-90263954D01*
X125582145Y-90252557D01*
X125597477Y-90204318D01*
X125640230Y-90177218D01*
X125656082Y-90175500D01*
X126425500Y-90175500D01*
X126473066Y-90192813D01*
X126498376Y-90236650D01*
X126499500Y-90249500D01*
X126499500Y-90824166D01*
X126482187Y-90871732D01*
X126477825Y-90876492D01*
X126429931Y-90924385D01*
X126384055Y-90945777D01*
X126347716Y-90939754D01*
X126251500Y-90897270D01*
X126243539Y-90896346D01*
X126227623Y-90894500D01*
X126227619Y-90894500D01*
X125772377Y-90894500D01*
X125748504Y-90897269D01*
X125650858Y-90940384D01*
X125575385Y-91015857D01*
X125533672Y-91110327D01*
X125532270Y-91113502D01*
X125530073Y-91132444D01*
X125529500Y-91137380D01*
X125529500Y-91492622D01*
X125532269Y-91516495D01*
X125532269Y-91516497D01*
X125532270Y-91516498D01*
X125575384Y-91614141D01*
X125650859Y-91689616D01*
X125748502Y-91732730D01*
X125772377Y-91735500D01*
X126227622Y-91735499D01*
X126251498Y-91732730D01*
X126349141Y-91689616D01*
X126351583Y-91687174D01*
X126397459Y-91665782D01*
X126403909Y-91665500D01*
X126490975Y-91665500D01*
X126506159Y-91667074D01*
X126520315Y-91670043D01*
X126550519Y-91666277D01*
X126552203Y-91666068D01*
X126561356Y-91665500D01*
X126564034Y-91665500D01*
X126564040Y-91665500D01*
X126584069Y-91662157D01*
X126587027Y-91661726D01*
X126636393Y-91655573D01*
X126636399Y-91655569D01*
X126642268Y-91653823D01*
X126642371Y-91654170D01*
X126644696Y-91653425D01*
X126644579Y-91653084D01*
X126650377Y-91651093D01*
X126650377Y-91651092D01*
X126650381Y-91651092D01*
X126694143Y-91627407D01*
X126696804Y-91626039D01*
X126741484Y-91604198D01*
X126746476Y-91600634D01*
X126746684Y-91600926D01*
X126748640Y-91599468D01*
X126748419Y-91599184D01*
X126753258Y-91595418D01*
X126756629Y-91591756D01*
X126786938Y-91558830D01*
X126789008Y-91556672D01*
X127066715Y-91278965D01*
X127078561Y-91269346D01*
X127090669Y-91261437D01*
X127110408Y-91236075D01*
X127116467Y-91229213D01*
X127118375Y-91227307D01*
X127130181Y-91210769D01*
X127131944Y-91208404D01*
X127162517Y-91169126D01*
X127162520Y-91169115D01*
X127165435Y-91163732D01*
X127165753Y-91163904D01*
X127166871Y-91161732D01*
X127166546Y-91161574D01*
X127169240Y-91156064D01*
X127178971Y-91123376D01*
X127183423Y-91108417D01*
X127184352Y-91105520D01*
X127200500Y-91058488D01*
X127200500Y-91058480D01*
X127201509Y-91052439D01*
X127201862Y-91052498D01*
X127202214Y-91050085D01*
X127201858Y-91050041D01*
X127202615Y-91043959D01*
X127202617Y-91043954D01*
X127200563Y-90994291D01*
X127200500Y-90991234D01*
X127200500Y-89894020D01*
X127202075Y-89878834D01*
X127205042Y-89864685D01*
X127201068Y-89832802D01*
X127200500Y-89823650D01*
X127200500Y-89110000D01*
X128969659Y-89110000D01*
X128988976Y-89306133D01*
X129046187Y-89494731D01*
X129108670Y-89611627D01*
X129139090Y-89668538D01*
X129264117Y-89820883D01*
X129416462Y-89945910D01*
X129469950Y-89974500D01*
X129590268Y-90038812D01*
X129590270Y-90038812D01*
X129590273Y-90038814D01*
X129778868Y-90096024D01*
X129975000Y-90115341D01*
X130171132Y-90096024D01*
X130359727Y-90038814D01*
X130533538Y-89945910D01*
X130685883Y-89820883D01*
X130810910Y-89668538D01*
X130903814Y-89494727D01*
X130961024Y-89306132D01*
X130980341Y-89110000D01*
X130961024Y-88913868D01*
X130903814Y-88725273D01*
X130903812Y-88725270D01*
X130903812Y-88725268D01*
X130837095Y-88600451D01*
X130810910Y-88551462D01*
X130685883Y-88399117D01*
X130533538Y-88274090D01*
X130522113Y-88267983D01*
X130359731Y-88181187D01*
X130171133Y-88123976D01*
X129975000Y-88104659D01*
X129778866Y-88123976D01*
X129590268Y-88181187D01*
X129416463Y-88274089D01*
X129264117Y-88399117D01*
X129139089Y-88551463D01*
X129046187Y-88725268D01*
X128988976Y-88913866D01*
X128969659Y-89110000D01*
X127200500Y-89110000D01*
X127200500Y-87317548D01*
X127200753Y-87311436D01*
X127204132Y-87270656D01*
X127204132Y-87270654D01*
X127202764Y-87265251D01*
X127200500Y-87247088D01*
X127200500Y-86720000D01*
X128984935Y-86720000D01*
X128989469Y-86766035D01*
X129046651Y-86954539D01*
X129139504Y-87128252D01*
X129139513Y-87128266D01*
X129264471Y-87280526D01*
X129264473Y-87280528D01*
X129416733Y-87405486D01*
X129416747Y-87405495D01*
X129590460Y-87498348D01*
X129778964Y-87555530D01*
X129825000Y-87560064D01*
X129825000Y-87051170D01*
X129832685Y-87054680D01*
X129939237Y-87070000D01*
X130010763Y-87070000D01*
X130117315Y-87054680D01*
X130125000Y-87051170D01*
X130125000Y-87560064D01*
X130171035Y-87555530D01*
X130359539Y-87498348D01*
X130533252Y-87405495D01*
X130533266Y-87405486D01*
X130685526Y-87280528D01*
X130685528Y-87280526D01*
X130810486Y-87128266D01*
X130810495Y-87128252D01*
X130903348Y-86954539D01*
X130960530Y-86766035D01*
X130965065Y-86720000D01*
X130452065Y-86720000D01*
X130475000Y-86641889D01*
X130475000Y-86498111D01*
X130452065Y-86420000D01*
X130965064Y-86420000D01*
X130960530Y-86373964D01*
X130903348Y-86185460D01*
X130810495Y-86011747D01*
X130810486Y-86011733D01*
X130685528Y-85859473D01*
X130685526Y-85859471D01*
X130533266Y-85734513D01*
X130533252Y-85734504D01*
X130359539Y-85641651D01*
X130171037Y-85584469D01*
X130125000Y-85579934D01*
X130125000Y-86088829D01*
X130117315Y-86085320D01*
X130010763Y-86070000D01*
X129939237Y-86070000D01*
X129832685Y-86085320D01*
X129825000Y-86088829D01*
X129825000Y-85579934D01*
X129778962Y-85584469D01*
X129590460Y-85641651D01*
X129416747Y-85734504D01*
X129416733Y-85734513D01*
X129264473Y-85859471D01*
X129264471Y-85859473D01*
X129139513Y-86011733D01*
X129139504Y-86011747D01*
X129046651Y-86185460D01*
X128989469Y-86373964D01*
X128984935Y-86420000D01*
X129497935Y-86420000D01*
X129475000Y-86498111D01*
X129475000Y-86641889D01*
X129497935Y-86720000D01*
X128984935Y-86720000D01*
X127200500Y-86720000D01*
X127200500Y-85867548D01*
X127200753Y-85861436D01*
X127204132Y-85820656D01*
X127204132Y-85820654D01*
X127202764Y-85815251D01*
X127200500Y-85797088D01*
X127200500Y-84030000D01*
X128969659Y-84030000D01*
X128988976Y-84226133D01*
X129046187Y-84414731D01*
X129121716Y-84556033D01*
X129139090Y-84588538D01*
X129264117Y-84740883D01*
X129416462Y-84865910D01*
X129478678Y-84899165D01*
X129590268Y-84958812D01*
X129590270Y-84958812D01*
X129590273Y-84958814D01*
X129778868Y-85016024D01*
X129975000Y-85035341D01*
X130171132Y-85016024D01*
X130359727Y-84958814D01*
X130533538Y-84865910D01*
X130685883Y-84740883D01*
X130810910Y-84588538D01*
X130903814Y-84414727D01*
X130961024Y-84226132D01*
X130980341Y-84030000D01*
X130961024Y-83833868D01*
X130903814Y-83645273D01*
X130903812Y-83645270D01*
X130903812Y-83645268D01*
X130847105Y-83539178D01*
X130810910Y-83471462D01*
X130685883Y-83319117D01*
X130533538Y-83194090D01*
X130517121Y-83185315D01*
X130359731Y-83101187D01*
X130171133Y-83043976D01*
X129975000Y-83024659D01*
X129778866Y-83043976D01*
X129590268Y-83101187D01*
X129416463Y-83194089D01*
X129264117Y-83319117D01*
X129139089Y-83471463D01*
X129046187Y-83645268D01*
X128988976Y-83833866D01*
X128969659Y-84030000D01*
X127200500Y-84030000D01*
X127200500Y-83367548D01*
X127200753Y-83361436D01*
X127202424Y-83341276D01*
X127204132Y-83320656D01*
X127204132Y-83320654D01*
X127202764Y-83315251D01*
X127200500Y-83297088D01*
X127200500Y-81861847D01*
X127202214Y-81850085D01*
X127201858Y-81850041D01*
X127202615Y-81843959D01*
X127202617Y-81843954D01*
X127200563Y-81794291D01*
X127200500Y-81791234D01*
X127200500Y-81490000D01*
X128969659Y-81490000D01*
X128988976Y-81686133D01*
X129046187Y-81874731D01*
X129124998Y-82022174D01*
X129139090Y-82048538D01*
X129264117Y-82200883D01*
X129416462Y-82325910D01*
X129490414Y-82365438D01*
X129590268Y-82418812D01*
X129590270Y-82418812D01*
X129590273Y-82418814D01*
X129778868Y-82476024D01*
X129975000Y-82495341D01*
X130171132Y-82476024D01*
X130359727Y-82418814D01*
X130369804Y-82413428D01*
X130395861Y-82399500D01*
X130533538Y-82325910D01*
X130685883Y-82200883D01*
X130810910Y-82048538D01*
X130903814Y-81874727D01*
X130961024Y-81686132D01*
X130980341Y-81490000D01*
X130961024Y-81293868D01*
X130903814Y-81105273D01*
X130903812Y-81105270D01*
X130903812Y-81105268D01*
X130821802Y-80951840D01*
X130810910Y-80931462D01*
X130685883Y-80779117D01*
X130533538Y-80654090D01*
X130523597Y-80648776D01*
X130359731Y-80561187D01*
X130171133Y-80503976D01*
X129975000Y-80484659D01*
X129778866Y-80503976D01*
X129590268Y-80561187D01*
X129416463Y-80654089D01*
X129264117Y-80779117D01*
X129139089Y-80931463D01*
X129046187Y-81105268D01*
X128988976Y-81293866D01*
X128969659Y-81490000D01*
X127200500Y-81490000D01*
X127200500Y-79374500D01*
X127217813Y-79326934D01*
X127261650Y-79301624D01*
X127274500Y-79300500D01*
X128900500Y-79300500D01*
X128948066Y-79317813D01*
X128973376Y-79361650D01*
X128974500Y-79374500D01*
X128974500Y-79814820D01*
X128983233Y-79858722D01*
X129016496Y-79908504D01*
X129066278Y-79941767D01*
X129110180Y-79950500D01*
X129110181Y-79950500D01*
X130839819Y-79950500D01*
X130839820Y-79950500D01*
X130883722Y-79941767D01*
X130933504Y-79908504D01*
X130966767Y-79858722D01*
X130975500Y-79814820D01*
X130975500Y-78085180D01*
X130966767Y-78041278D01*
X130933504Y-77991496D01*
X130883722Y-77958233D01*
X130839820Y-77949500D01*
X129110180Y-77949500D01*
X129088229Y-77953866D01*
X129066277Y-77958233D01*
X129016496Y-77991495D01*
X129016495Y-77991496D01*
X128983233Y-78041277D01*
X128974500Y-78085180D01*
X128974500Y-78525500D01*
X128957187Y-78573066D01*
X128913350Y-78598376D01*
X128900500Y-78599500D01*
X127260904Y-78599500D01*
X127213338Y-78582187D01*
X127194515Y-78553522D01*
X127193274Y-78554130D01*
X127192056Y-78551640D01*
X127190889Y-78547999D01*
X127189981Y-78546616D01*
X127188824Y-78542730D01*
X127189168Y-78542627D01*
X127188422Y-78540300D01*
X127188082Y-78540417D01*
X127186091Y-78534617D01*
X127162431Y-78490897D01*
X127161031Y-78488177D01*
X127152472Y-78470670D01*
X127139198Y-78443516D01*
X127139193Y-78443511D01*
X127135632Y-78438522D01*
X127135923Y-78438313D01*
X127134465Y-78436358D01*
X127134183Y-78436579D01*
X127130421Y-78431745D01*
X127111197Y-78414048D01*
X127093832Y-78398062D01*
X127091649Y-78395967D01*
X126565739Y-77870057D01*
X126544818Y-77828261D01*
X126536697Y-77771777D01*
X126536697Y-77771776D01*
X126536697Y-77771774D01*
X126482882Y-77653937D01*
X126398049Y-77556033D01*
X126331032Y-77512964D01*
X126289068Y-77485995D01*
X126164772Y-77449500D01*
X126035228Y-77449500D01*
X125910931Y-77485995D01*
X125845956Y-77527753D01*
X125805949Y-77539500D01*
X125630981Y-77539500D01*
X125583415Y-77522187D01*
X125578655Y-77517826D01*
X125537016Y-77476187D01*
X125460030Y-77442194D01*
X125423510Y-77407144D01*
X125418064Y-77356819D01*
X125446241Y-77314767D01*
X125489921Y-77300500D01*
X133275500Y-77300500D01*
X133323066Y-77317813D01*
X133348376Y-77361650D01*
X133349500Y-77374500D01*
X133349500Y-93225500D01*
X133332187Y-93273066D01*
X133288350Y-93298376D01*
X133275500Y-93299500D01*
X107780859Y-93299500D01*
X107733293Y-93282187D01*
X107728533Y-93277826D01*
X106372881Y-91922174D01*
X105910708Y-91460000D01*
X106730000Y-91460000D01*
X106730000Y-91487555D01*
X106732763Y-91511377D01*
X106732763Y-91511379D01*
X106775804Y-91608855D01*
X106851144Y-91684195D01*
X106948621Y-91727236D01*
X106972444Y-91730000D01*
X107050000Y-91730000D01*
X107050000Y-91460000D01*
X107350000Y-91460000D01*
X107350000Y-91730000D01*
X107427556Y-91730000D01*
X107451377Y-91727236D01*
X107451379Y-91727236D01*
X107548855Y-91684195D01*
X107624195Y-91608855D01*
X107667236Y-91511379D01*
X107667236Y-91511377D01*
X107670000Y-91487555D01*
X107670000Y-91460000D01*
X107350000Y-91460000D01*
X107050000Y-91460000D01*
X106730000Y-91460000D01*
X105910708Y-91460000D01*
X105610708Y-91160000D01*
X106730000Y-91160000D01*
X107050000Y-91160000D01*
X107050000Y-90890000D01*
X107350000Y-90890000D01*
X107350000Y-91160000D01*
X107670000Y-91160000D01*
X107670000Y-91132444D01*
X107667236Y-91108622D01*
X107667236Y-91108620D01*
X107624195Y-91011144D01*
X107548855Y-90935804D01*
X107451378Y-90892763D01*
X107427556Y-90890000D01*
X107350000Y-90890000D01*
X107050000Y-90890000D01*
X106972444Y-90890000D01*
X106948622Y-90892763D01*
X106948620Y-90892763D01*
X106851144Y-90935804D01*
X106775804Y-91011144D01*
X106732763Y-91108620D01*
X106732763Y-91108622D01*
X106730000Y-91132444D01*
X106730000Y-91160000D01*
X105610708Y-91160000D01*
X105010971Y-90560263D01*
X105010866Y-90560093D01*
X105010836Y-90560123D01*
X105000384Y-90549618D01*
X105000383Y-90549617D01*
X105000284Y-90549576D01*
X105000101Y-90549500D01*
X104999999Y-90549457D01*
X104985326Y-90549459D01*
X104985126Y-90549500D01*
X99074500Y-90549500D01*
X99026934Y-90532187D01*
X99001624Y-90488350D01*
X99000500Y-90475500D01*
X99000500Y-89770000D01*
X99365287Y-89770000D01*
X99407185Y-89898949D01*
X99407189Y-89898958D01*
X99495182Y-90037614D01*
X99495187Y-90037620D01*
X99614901Y-90150038D01*
X99758816Y-90229157D01*
X99917881Y-90269998D01*
X99917889Y-90270000D01*
X100150000Y-90270000D01*
X100150000Y-89920000D01*
X100450000Y-89920000D01*
X100450000Y-90270000D01*
X100640890Y-90270000D01*
X100762933Y-90254582D01*
X100762938Y-90254581D01*
X100915622Y-90194129D01*
X100915633Y-90194123D01*
X101048490Y-90097596D01*
X101153172Y-89971059D01*
X101153175Y-89971053D01*
X101223101Y-89822453D01*
X101233107Y-89770001D01*
X101233106Y-89770000D01*
X103295287Y-89770000D01*
X103337185Y-89898949D01*
X103337189Y-89898958D01*
X103425182Y-90037614D01*
X103425187Y-90037620D01*
X103544901Y-90150038D01*
X103688816Y-90229157D01*
X103847881Y-90269998D01*
X103847889Y-90270000D01*
X104330000Y-90270000D01*
X104330000Y-89920000D01*
X104630000Y-89920000D01*
X104630000Y-90270000D01*
X105070890Y-90270000D01*
X105192933Y-90254582D01*
X105192938Y-90254581D01*
X105345622Y-90194129D01*
X105345633Y-90194123D01*
X105478490Y-90097596D01*
X105583172Y-89971059D01*
X105583175Y-89971053D01*
X105653101Y-89822453D01*
X105663107Y-89770001D01*
X105663106Y-89770000D01*
X105292657Y-89770000D01*
X105303201Y-89756038D01*
X105333895Y-89648160D01*
X105323546Y-89536479D01*
X105290443Y-89470000D01*
X105664712Y-89470000D01*
X105664712Y-89469999D01*
X105622814Y-89341050D01*
X105622810Y-89341041D01*
X105534817Y-89202385D01*
X105534815Y-89202383D01*
X105455545Y-89127943D01*
X105432723Y-89082761D01*
X105444281Y-89033479D01*
X105484814Y-89003157D01*
X105506202Y-88999999D01*
X106134779Y-88999999D01*
X106178524Y-88991298D01*
X106228143Y-88958144D01*
X106228144Y-88958143D01*
X106261296Y-88908527D01*
X106270000Y-88864773D01*
X106270000Y-88700000D01*
X104520001Y-88700000D01*
X104520001Y-88864778D01*
X104528700Y-88908521D01*
X104528702Y-88908524D01*
X104541047Y-88927000D01*
X104556000Y-88927000D01*
X104603566Y-88944313D01*
X104628876Y-88988150D01*
X104630000Y-89001000D01*
X104630000Y-89320000D01*
X104330000Y-89320000D01*
X104330000Y-88970000D01*
X103889110Y-88970000D01*
X103767066Y-88985417D01*
X103767061Y-88985418D01*
X103614377Y-89045870D01*
X103614366Y-89045876D01*
X103481509Y-89142403D01*
X103376827Y-89268940D01*
X103376824Y-89268946D01*
X103306898Y-89417546D01*
X103296892Y-89469998D01*
X103296894Y-89470000D01*
X103667343Y-89470000D01*
X103656799Y-89483962D01*
X103626105Y-89591840D01*
X103636454Y-89703521D01*
X103669557Y-89770000D01*
X103295287Y-89770000D01*
X101233106Y-89770000D01*
X100862657Y-89770000D01*
X100873201Y-89756038D01*
X100903895Y-89648160D01*
X100893546Y-89536479D01*
X100860443Y-89470000D01*
X101234712Y-89470000D01*
X101234712Y-89469999D01*
X101192814Y-89341050D01*
X101192810Y-89341041D01*
X101104817Y-89202385D01*
X101104812Y-89202379D01*
X100985098Y-89089961D01*
X100841183Y-89010842D01*
X100682118Y-88970001D01*
X100682111Y-88970000D01*
X100450000Y-88970000D01*
X100450000Y-89320000D01*
X100150000Y-89320000D01*
X100150000Y-88970000D01*
X99959110Y-88970000D01*
X99837066Y-88985417D01*
X99837061Y-88985418D01*
X99684377Y-89045870D01*
X99684366Y-89045876D01*
X99551509Y-89142403D01*
X99446827Y-89268940D01*
X99446824Y-89268946D01*
X99376898Y-89417546D01*
X99366892Y-89469998D01*
X99366894Y-89470000D01*
X99737343Y-89470000D01*
X99726799Y-89483962D01*
X99696105Y-89591840D01*
X99706454Y-89703521D01*
X99739557Y-89770000D01*
X99365287Y-89770000D01*
X99000500Y-89770000D01*
X99000500Y-81130000D01*
X99365287Y-81130000D01*
X99407185Y-81258949D01*
X99407189Y-81258958D01*
X99495182Y-81397614D01*
X99495187Y-81397620D01*
X99614901Y-81510038D01*
X99758816Y-81589157D01*
X99917881Y-81629998D01*
X99917889Y-81630000D01*
X100150000Y-81630000D01*
X100150000Y-81280000D01*
X100450000Y-81280000D01*
X100450000Y-81630000D01*
X100640890Y-81630000D01*
X100762933Y-81614582D01*
X100762938Y-81614581D01*
X100915622Y-81554129D01*
X100915633Y-81554123D01*
X101048490Y-81457596D01*
X101153172Y-81331059D01*
X101153175Y-81331053D01*
X101223101Y-81182453D01*
X101233107Y-81130001D01*
X101233106Y-81130000D01*
X103295287Y-81130000D01*
X103337185Y-81258949D01*
X103337189Y-81258958D01*
X103425182Y-81397614D01*
X103425187Y-81397620D01*
X103544901Y-81510038D01*
X103688816Y-81589157D01*
X103847881Y-81629998D01*
X103847889Y-81630000D01*
X104330000Y-81630000D01*
X104330000Y-81280000D01*
X104630000Y-81280000D01*
X104630000Y-81599000D01*
X104612687Y-81646566D01*
X104568850Y-81671876D01*
X104556000Y-81673000D01*
X104541046Y-81673000D01*
X104528703Y-81691472D01*
X104520000Y-81735226D01*
X104520000Y-81900000D01*
X105245000Y-81900000D01*
X105245000Y-81631000D01*
X105256283Y-81600000D01*
X105545000Y-81600000D01*
X105545000Y-81900000D01*
X106269999Y-81900000D01*
X106269999Y-81735221D01*
X106261298Y-81691475D01*
X106228144Y-81641856D01*
X106228143Y-81641855D01*
X106178527Y-81608703D01*
X106134773Y-81600000D01*
X105545000Y-81600000D01*
X105256283Y-81600000D01*
X105262313Y-81583434D01*
X105306150Y-81558124D01*
X105319000Y-81557000D01*
X105338369Y-81557000D01*
X105338370Y-81556999D01*
X105345629Y-81554125D01*
X105345633Y-81554123D01*
X105478490Y-81457596D01*
X105583172Y-81331059D01*
X105583175Y-81331053D01*
X105653101Y-81182453D01*
X105663107Y-81130001D01*
X105663106Y-81130000D01*
X105292657Y-81130000D01*
X105303201Y-81116038D01*
X105333895Y-81008160D01*
X105323546Y-80896479D01*
X105290443Y-80830000D01*
X105664712Y-80830000D01*
X105664712Y-80829999D01*
X105622814Y-80701050D01*
X105622810Y-80701041D01*
X105534817Y-80562385D01*
X105534812Y-80562379D01*
X105415098Y-80449961D01*
X105271183Y-80370842D01*
X105112118Y-80330001D01*
X105112111Y-80330000D01*
X104630000Y-80330000D01*
X104630000Y-80680000D01*
X104330000Y-80680000D01*
X104330000Y-80330000D01*
X103889110Y-80330000D01*
X103767066Y-80345417D01*
X103767061Y-80345418D01*
X103614377Y-80405870D01*
X103614366Y-80405876D01*
X103481509Y-80502403D01*
X103376827Y-80628940D01*
X103376824Y-80628946D01*
X103306898Y-80777546D01*
X103296892Y-80829998D01*
X103296894Y-80830000D01*
X103667343Y-80830000D01*
X103656799Y-80843962D01*
X103626105Y-80951840D01*
X103636454Y-81063521D01*
X103669557Y-81130000D01*
X103295287Y-81130000D01*
X101233106Y-81130000D01*
X100862657Y-81130000D01*
X100873201Y-81116038D01*
X100903895Y-81008160D01*
X100893546Y-80896479D01*
X100860443Y-80830000D01*
X101234712Y-80830000D01*
X101234712Y-80829999D01*
X101192814Y-80701050D01*
X101192810Y-80701041D01*
X101104817Y-80562385D01*
X101104812Y-80562379D01*
X100985098Y-80449961D01*
X100841183Y-80370842D01*
X100682118Y-80330001D01*
X100682111Y-80330000D01*
X100450000Y-80330000D01*
X100450000Y-80680000D01*
X100150000Y-80680000D01*
X100150000Y-80330000D01*
X99959110Y-80330000D01*
X99837066Y-80345417D01*
X99837061Y-80345418D01*
X99684377Y-80405870D01*
X99684366Y-80405876D01*
X99551509Y-80502403D01*
X99446827Y-80628940D01*
X99446824Y-80628946D01*
X99376898Y-80777546D01*
X99366892Y-80829998D01*
X99366894Y-80830000D01*
X99737343Y-80830000D01*
X99726799Y-80843962D01*
X99696105Y-80951840D01*
X99706454Y-81063521D01*
X99739557Y-81130000D01*
X99365287Y-81130000D01*
X99000500Y-81130000D01*
X99000500Y-80124500D01*
X99017813Y-80076934D01*
X99061650Y-80051624D01*
X99074500Y-80050500D01*
X104985126Y-80050500D01*
X104985326Y-80050540D01*
X104999997Y-80050541D01*
X104999997Y-80050540D01*
X105000000Y-80050542D01*
X105000209Y-80050455D01*
X105000717Y-80050247D01*
X105001715Y-80049843D01*
X105005342Y-80045423D01*
X105010951Y-80039814D01*
X105011065Y-80039641D01*
X105180706Y-79870000D01*
X106940000Y-79870000D01*
X107250000Y-79870000D01*
X107550000Y-79870000D01*
X107860000Y-79870000D01*
X107868326Y-79861674D01*
X107914202Y-79840282D01*
X107920652Y-79840000D01*
X108250000Y-79840000D01*
X108250000Y-79570000D01*
X108550000Y-79570000D01*
X108550000Y-79840000D01*
X108870000Y-79840000D01*
X108870000Y-79812444D01*
X108867236Y-79788622D01*
X108867236Y-79788620D01*
X108824195Y-79691144D01*
X108748855Y-79615804D01*
X108651378Y-79572763D01*
X108627556Y-79570000D01*
X108550000Y-79570000D01*
X108250000Y-79570000D01*
X108172444Y-79570000D01*
X108148622Y-79572763D01*
X108148620Y-79572763D01*
X108051144Y-79615804D01*
X107975802Y-79691146D01*
X107957407Y-79732806D01*
X107922356Y-79769326D01*
X107872031Y-79774771D01*
X107829979Y-79746594D01*
X107822019Y-79732806D01*
X107813393Y-79713272D01*
X107736727Y-79636606D01*
X107637549Y-79592814D01*
X107637542Y-79592812D01*
X107613298Y-79590000D01*
X107550000Y-79590000D01*
X107550000Y-79870000D01*
X107250000Y-79870000D01*
X107250000Y-79590000D01*
X107186702Y-79590000D01*
X107162457Y-79592812D01*
X107162450Y-79592814D01*
X107063272Y-79636606D01*
X106986606Y-79713272D01*
X106942814Y-79812450D01*
X106942812Y-79812457D01*
X106940000Y-79836702D01*
X106940000Y-79870000D01*
X105180706Y-79870000D01*
X107728533Y-77322174D01*
X107774409Y-77300782D01*
X107780859Y-77300500D01*
X122010079Y-77300500D01*
X122057645Y-77317813D01*
G37*
G04 #@! TD.AperFunction*
G04 #@! TA.AperFunction,Conductor*
G36*
X114657431Y-87311691D02*
G01*
X114800267Y-87454527D01*
X114809466Y-87465735D01*
X114819399Y-87480601D01*
X114819400Y-87480602D01*
X114840044Y-87494395D01*
X114902260Y-87535966D01*
X114975326Y-87550500D01*
X114975327Y-87550500D01*
X115000000Y-87555408D01*
X115015841Y-87552256D01*
X115017525Y-87551922D01*
X115031962Y-87550500D01*
X115184316Y-87550500D01*
X115225383Y-87562941D01*
X115226131Y-87563441D01*
X115256092Y-87604239D01*
X115252819Y-87654752D01*
X115226177Y-87686527D01*
X115187424Y-87712421D01*
X115187422Y-87712423D01*
X115137582Y-87787014D01*
X115124500Y-87852789D01*
X115124500Y-88047205D01*
X115137582Y-88112985D01*
X115187182Y-88187216D01*
X115187423Y-88187577D01*
X115262014Y-88237417D01*
X115289937Y-88242971D01*
X115333211Y-88269231D01*
X115349500Y-88315549D01*
X115349500Y-91050500D01*
X115332187Y-91098066D01*
X115288350Y-91123376D01*
X115275500Y-91124500D01*
X114537909Y-91124500D01*
X114490343Y-91107187D01*
X114465033Y-91063350D01*
X114473823Y-91013500D01*
X114485583Y-90998174D01*
X114492523Y-90991234D01*
X114534616Y-90949141D01*
X114577730Y-90851498D01*
X114580500Y-90827623D01*
X114580499Y-90372378D01*
X114580234Y-90370097D01*
X114577730Y-90348504D01*
X114577730Y-90348502D01*
X114534616Y-90250859D01*
X114459141Y-90175384D01*
X114361498Y-90132270D01*
X114337623Y-90129500D01*
X114337619Y-90129500D01*
X114214412Y-90129500D01*
X114166846Y-90112187D01*
X114162086Y-90107826D01*
X113297174Y-89242914D01*
X113275782Y-89197038D01*
X113275500Y-89190588D01*
X113275500Y-88283412D01*
X113292813Y-88235846D01*
X113336650Y-88210536D01*
X113386500Y-88219326D01*
X113401826Y-88231086D01*
X113452826Y-88282086D01*
X113474218Y-88327962D01*
X113474500Y-88334412D01*
X113474500Y-88808264D01*
X113484427Y-88876393D01*
X113484427Y-88876394D01*
X113535801Y-88981482D01*
X113535802Y-88981483D01*
X113618517Y-89064198D01*
X113723607Y-89115573D01*
X113791740Y-89125500D01*
X113791746Y-89125500D01*
X114258254Y-89125500D01*
X114258260Y-89125500D01*
X114326393Y-89115573D01*
X114431483Y-89064198D01*
X114514198Y-88981483D01*
X114565573Y-88876393D01*
X114575500Y-88808260D01*
X114575500Y-88191740D01*
X114565573Y-88123607D01*
X114514198Y-88018517D01*
X114431483Y-87935802D01*
X114431482Y-87935801D01*
X114326394Y-87884427D01*
X114258264Y-87874500D01*
X114258260Y-87874500D01*
X113791740Y-87874500D01*
X113791737Y-87874500D01*
X113790072Y-87874621D01*
X113789646Y-87874500D01*
X113789063Y-87874500D01*
X113789063Y-87874334D01*
X113741379Y-87860789D01*
X113732401Y-87853140D01*
X113647174Y-87767913D01*
X113625782Y-87722037D01*
X113625500Y-87715587D01*
X113625500Y-87585576D01*
X113642813Y-87538010D01*
X113686650Y-87512700D01*
X113721346Y-87514874D01*
X113723603Y-87515571D01*
X113723607Y-87515573D01*
X113791740Y-87525500D01*
X113791746Y-87525500D01*
X114258254Y-87525500D01*
X114258260Y-87525500D01*
X114326393Y-87515573D01*
X114431483Y-87464198D01*
X114514198Y-87381483D01*
X114538625Y-87331515D01*
X114575068Y-87296387D01*
X114625566Y-87292902D01*
X114657431Y-87311691D01*
G37*
G04 #@! TD.AperFunction*
G04 #@! TA.AperFunction,Conductor*
G36*
X124192945Y-80612794D02*
G01*
X124221979Y-80654258D01*
X124224500Y-80673411D01*
X124224500Y-80754820D01*
X124233233Y-80798722D01*
X124266496Y-80848504D01*
X124316278Y-80881767D01*
X124360180Y-80890500D01*
X124360181Y-80890500D01*
X125039819Y-80890500D01*
X125039820Y-80890500D01*
X125083722Y-80881767D01*
X125133504Y-80848504D01*
X125148083Y-80826684D01*
X125188900Y-80796753D01*
X125217712Y-80795495D01*
X125217712Y-80795408D01*
X125219722Y-80795408D01*
X125224050Y-80795219D01*
X125225000Y-80795408D01*
X125322741Y-80775966D01*
X125355708Y-80753938D01*
X125355710Y-80753937D01*
X125405598Y-80720603D01*
X125405597Y-80720603D01*
X125405601Y-80720601D01*
X125415535Y-80705731D01*
X125424726Y-80694532D01*
X125447088Y-80672171D01*
X125492965Y-80650781D01*
X125499411Y-80650500D01*
X125505689Y-80650500D01*
X125553255Y-80667813D01*
X125573383Y-80694609D01*
X125575384Y-80699141D01*
X125575385Y-80699142D01*
X125584882Y-80708639D01*
X125606274Y-80754515D01*
X125599869Y-80791706D01*
X125563302Y-80871776D01*
X125544867Y-81000000D01*
X125563302Y-81128223D01*
X125563302Y-81128224D01*
X125563303Y-81128226D01*
X125617118Y-81246063D01*
X125701951Y-81343967D01*
X125701954Y-81343969D01*
X125702651Y-81344573D01*
X125702963Y-81345134D01*
X125705417Y-81347966D01*
X125704824Y-81348479D01*
X125727263Y-81388805D01*
X125717685Y-81438510D01*
X125678399Y-81470429D01*
X125654193Y-81474500D01*
X125650981Y-81474500D01*
X125603415Y-81457187D01*
X125598655Y-81452826D01*
X125557016Y-81411187D01*
X125457662Y-81367318D01*
X125457663Y-81367318D01*
X125452804Y-81366754D01*
X125433373Y-81364500D01*
X125433369Y-81364500D01*
X125066627Y-81364500D01*
X125042340Y-81367317D01*
X124942983Y-81411187D01*
X124866186Y-81487984D01*
X124837420Y-81553132D01*
X124802369Y-81589652D01*
X124752044Y-81595097D01*
X124709992Y-81566921D01*
X124702031Y-81553131D01*
X124673392Y-81488271D01*
X124596727Y-81411606D01*
X124497549Y-81367814D01*
X124497542Y-81367812D01*
X124473298Y-81365000D01*
X124440000Y-81365000D01*
X124440000Y-82285000D01*
X124473298Y-82285000D01*
X124497542Y-82282187D01*
X124497546Y-82282186D01*
X124537560Y-82264518D01*
X124588066Y-82261141D01*
X124628927Y-82291019D01*
X124641023Y-82340172D01*
X124619778Y-82384538D01*
X124483286Y-82521030D01*
X124471438Y-82530652D01*
X124459333Y-82538561D01*
X124459325Y-82538568D01*
X124439591Y-82563921D01*
X124433536Y-82570780D01*
X124431629Y-82572687D01*
X124431624Y-82572693D01*
X124419849Y-82589185D01*
X124418023Y-82591634D01*
X124387483Y-82630873D01*
X124384567Y-82636262D01*
X124384255Y-82636093D01*
X124383133Y-82638272D01*
X124383452Y-82638428D01*
X124380759Y-82643936D01*
X124366577Y-82691568D01*
X124365645Y-82694476D01*
X124349500Y-82741509D01*
X124348491Y-82747558D01*
X124348139Y-82747499D01*
X124347787Y-82749916D01*
X124348142Y-82749961D01*
X124347383Y-82756048D01*
X124347936Y-82769428D01*
X124332602Y-82817668D01*
X124315111Y-82834012D01*
X124266496Y-82866495D01*
X124266495Y-82866496D01*
X124233233Y-82916277D01*
X124224500Y-82960180D01*
X124224500Y-83389819D01*
X124233233Y-83433723D01*
X124250348Y-83459338D01*
X124262379Y-83508506D01*
X124250349Y-83541560D01*
X124233703Y-83566473D01*
X124225000Y-83610226D01*
X124225000Y-83675000D01*
X125174999Y-83675000D01*
X125174999Y-83610221D01*
X125166298Y-83566474D01*
X125149651Y-83541560D01*
X125137620Y-83492391D01*
X125149651Y-83459338D01*
X125166767Y-83433722D01*
X125175500Y-83389820D01*
X125175500Y-82960180D01*
X125166767Y-82916278D01*
X125165513Y-82914402D01*
X125164825Y-82911589D01*
X125163978Y-82909544D01*
X125164292Y-82909413D01*
X125153482Y-82865236D01*
X125174715Y-82820965D01*
X125466715Y-82528965D01*
X125478561Y-82519346D01*
X125490669Y-82511437D01*
X125510408Y-82486075D01*
X125516467Y-82479213D01*
X125518375Y-82477307D01*
X125530175Y-82460779D01*
X125531955Y-82458391D01*
X125562517Y-82419126D01*
X125562517Y-82419123D01*
X125562519Y-82419122D01*
X125565435Y-82413733D01*
X125565753Y-82413905D01*
X125566869Y-82411738D01*
X125566544Y-82411579D01*
X125569237Y-82406070D01*
X125569237Y-82406069D01*
X125569239Y-82406067D01*
X125583431Y-82358394D01*
X125584350Y-82355528D01*
X125600500Y-82308488D01*
X125600500Y-82308485D01*
X125601510Y-82302438D01*
X125601862Y-82302496D01*
X125602214Y-82300085D01*
X125601858Y-82300041D01*
X125602615Y-82293960D01*
X125602617Y-82293954D01*
X125600905Y-82252557D01*
X125616238Y-82204316D01*
X125658992Y-82177217D01*
X125674842Y-82175500D01*
X126425500Y-82175500D01*
X126473066Y-82192813D01*
X126498376Y-82236650D01*
X126499500Y-82249500D01*
X126499500Y-82912091D01*
X126482187Y-82959657D01*
X126438350Y-82984967D01*
X126388500Y-82976177D01*
X126373174Y-82964417D01*
X126349142Y-82940385D01*
X126349141Y-82940384D01*
X126251498Y-82897270D01*
X126227623Y-82894500D01*
X126227619Y-82894500D01*
X125772377Y-82894500D01*
X125748504Y-82897269D01*
X125650858Y-82940384D01*
X125575385Y-83015857D01*
X125532270Y-83113501D01*
X125529500Y-83137380D01*
X125529500Y-83492622D01*
X125532269Y-83516495D01*
X125532269Y-83516497D01*
X125532270Y-83516498D01*
X125575384Y-83614141D01*
X125650859Y-83689616D01*
X125748502Y-83732730D01*
X125772377Y-83735500D01*
X126227622Y-83735499D01*
X126251498Y-83732730D01*
X126310212Y-83706805D01*
X126340102Y-83700500D01*
X126425500Y-83700500D01*
X126473066Y-83717813D01*
X126498376Y-83761650D01*
X126499500Y-83774500D01*
X126499500Y-83932091D01*
X126482187Y-83979657D01*
X126438350Y-84004967D01*
X126388500Y-83996177D01*
X126373174Y-83984417D01*
X126349142Y-83960385D01*
X126349141Y-83960384D01*
X126251498Y-83917270D01*
X126227623Y-83914500D01*
X126227619Y-83914500D01*
X125772377Y-83914500D01*
X125748504Y-83917269D01*
X125650858Y-83960384D01*
X125575385Y-84035857D01*
X125575384Y-84035858D01*
X125575384Y-84035859D01*
X125573383Y-84040389D01*
X125538335Y-84076909D01*
X125505689Y-84084500D01*
X125346962Y-84084500D01*
X125332525Y-84083078D01*
X125315000Y-84079592D01*
X125290326Y-84084500D01*
X125290324Y-84084500D01*
X125263435Y-84089848D01*
X125213406Y-84082147D01*
X125180031Y-84044089D01*
X125175000Y-84017270D01*
X125175000Y-83975000D01*
X124225001Y-83975000D01*
X124225001Y-84039778D01*
X124233701Y-84083524D01*
X124250348Y-84108438D01*
X124262379Y-84157606D01*
X124250349Y-84190661D01*
X124234719Y-84214054D01*
X124233233Y-84216278D01*
X124224500Y-84260180D01*
X124224500Y-84689820D01*
X124229978Y-84717358D01*
X124233233Y-84733722D01*
X124258659Y-84771776D01*
X124266496Y-84783504D01*
X124316278Y-84816767D01*
X124360180Y-84825500D01*
X124360181Y-84825500D01*
X125039819Y-84825500D01*
X125039820Y-84825500D01*
X125083722Y-84816767D01*
X125133504Y-84783504D01*
X125151029Y-84757274D01*
X125191848Y-84727343D01*
X125198106Y-84725811D01*
X125272741Y-84710966D01*
X125310111Y-84685996D01*
X125355601Y-84655601D01*
X125365535Y-84640731D01*
X125374726Y-84629532D01*
X125397088Y-84607171D01*
X125442965Y-84585781D01*
X125449411Y-84585500D01*
X125505689Y-84585500D01*
X125553255Y-84602813D01*
X125573383Y-84629609D01*
X125575384Y-84634141D01*
X125575385Y-84634142D01*
X125605491Y-84664248D01*
X125626883Y-84710124D01*
X125617473Y-84748281D01*
X125619317Y-84749123D01*
X125617118Y-84753935D01*
X125617118Y-84753937D01*
X125588425Y-84816766D01*
X125563302Y-84871776D01*
X125544867Y-85000000D01*
X125563302Y-85128223D01*
X125563302Y-85128224D01*
X125563303Y-85128226D01*
X125617118Y-85246063D01*
X125701951Y-85343967D01*
X125731952Y-85363247D01*
X125762608Y-85403528D01*
X125760199Y-85454089D01*
X125725854Y-85491274D01*
X125691945Y-85499500D01*
X125635980Y-85499500D01*
X125588414Y-85482187D01*
X125583665Y-85477836D01*
X125517016Y-85411187D01*
X125417662Y-85367318D01*
X125417663Y-85367318D01*
X125412804Y-85366754D01*
X125393373Y-85364500D01*
X125393369Y-85364500D01*
X125026627Y-85364500D01*
X125002340Y-85367317D01*
X124902983Y-85411187D01*
X124826186Y-85487984D01*
X124797420Y-85553132D01*
X124762369Y-85589652D01*
X124712044Y-85595097D01*
X124669992Y-85566921D01*
X124662031Y-85553131D01*
X124633392Y-85488271D01*
X124556727Y-85411606D01*
X124457549Y-85367814D01*
X124457542Y-85367812D01*
X124433298Y-85365000D01*
X124400000Y-85365000D01*
X124400000Y-86285000D01*
X124433298Y-86285000D01*
X124457542Y-86282187D01*
X124457549Y-86282185D01*
X124556727Y-86238393D01*
X124633392Y-86161728D01*
X124662031Y-86096868D01*
X124697082Y-86060348D01*
X124747407Y-86054901D01*
X124789459Y-86083078D01*
X124797421Y-86096868D01*
X124825962Y-86161507D01*
X124829337Y-86212013D01*
X124810593Y-86243723D01*
X124483286Y-86571030D01*
X124471438Y-86580652D01*
X124459333Y-86588561D01*
X124459325Y-86588568D01*
X124439591Y-86613921D01*
X124433536Y-86620780D01*
X124431629Y-86622687D01*
X124431624Y-86622693D01*
X124419849Y-86639185D01*
X124418023Y-86641634D01*
X124387483Y-86680873D01*
X124384567Y-86686262D01*
X124384255Y-86686093D01*
X124383133Y-86688272D01*
X124383452Y-86688428D01*
X124380759Y-86693936D01*
X124366577Y-86741568D01*
X124365645Y-86744477D01*
X124348913Y-86793220D01*
X124320034Y-86830723D01*
X124266496Y-86866495D01*
X124266495Y-86866496D01*
X124233233Y-86916277D01*
X124224500Y-86960180D01*
X124224500Y-87389819D01*
X124233233Y-87433723D01*
X124247605Y-87455233D01*
X124259636Y-87504401D01*
X124237247Y-87549800D01*
X124190915Y-87570186D01*
X124181836Y-87569591D01*
X124175001Y-87569591D01*
X124175000Y-87569591D01*
X124085389Y-87587417D01*
X124077260Y-87589034D01*
X124022810Y-87625416D01*
X123994397Y-87644400D01*
X123984468Y-87659259D01*
X123975268Y-87670469D01*
X123745470Y-87900268D01*
X123734258Y-87909469D01*
X123719401Y-87919396D01*
X123719399Y-87919398D01*
X123710720Y-87932388D01*
X123693461Y-87958219D01*
X123664034Y-88002258D01*
X123648651Y-88079592D01*
X123644592Y-88100000D01*
X123646003Y-88107096D01*
X123648078Y-88117525D01*
X123649500Y-88131962D01*
X123649500Y-88565588D01*
X123632187Y-88613154D01*
X123627826Y-88617914D01*
X123417914Y-88827826D01*
X123372038Y-88849218D01*
X123365588Y-88849500D01*
X123327851Y-88849500D01*
X123280285Y-88832187D01*
X123254975Y-88788350D01*
X123263765Y-88738500D01*
X123266322Y-88734389D01*
X123266766Y-88733723D01*
X123266765Y-88733723D01*
X123266767Y-88733722D01*
X123275500Y-88689820D01*
X123275500Y-88260180D01*
X123266767Y-88216278D01*
X123249650Y-88190661D01*
X123237620Y-88141493D01*
X123249652Y-88108437D01*
X123266296Y-88083527D01*
X123275000Y-88039773D01*
X123275000Y-87975000D01*
X122724000Y-87975000D01*
X122676434Y-87957687D01*
X122651124Y-87913850D01*
X122650000Y-87901000D01*
X122650000Y-87749000D01*
X122667313Y-87701434D01*
X122711150Y-87676124D01*
X122724000Y-87675000D01*
X123274999Y-87675000D01*
X123274999Y-87610221D01*
X123266298Y-87566474D01*
X123249651Y-87541560D01*
X123237620Y-87492391D01*
X123249649Y-87459339D01*
X123266767Y-87433722D01*
X123275500Y-87389820D01*
X123275500Y-86960180D01*
X123266767Y-86916278D01*
X123233504Y-86866496D01*
X123233503Y-86866495D01*
X123183388Y-86833009D01*
X123153456Y-86792187D01*
X123150860Y-86774006D01*
X123150753Y-86774015D01*
X123150602Y-86772194D01*
X123150500Y-86771480D01*
X123150500Y-86770964D01*
X123150499Y-86770955D01*
X123147163Y-86750969D01*
X123146723Y-86747949D01*
X123144539Y-86730430D01*
X123140573Y-86698607D01*
X123140571Y-86698604D01*
X123138822Y-86692725D01*
X123139166Y-86692622D01*
X123138422Y-86690300D01*
X123138082Y-86690417D01*
X123136091Y-86684617D01*
X123112431Y-86640897D01*
X123111031Y-86638177D01*
X123096936Y-86609346D01*
X123089198Y-86593516D01*
X123089193Y-86593511D01*
X123085632Y-86588522D01*
X123085923Y-86588313D01*
X123084465Y-86586358D01*
X123084183Y-86586579D01*
X123080421Y-86581745D01*
X123074676Y-86576456D01*
X123043832Y-86548062D01*
X123041649Y-86545967D01*
X122864406Y-86368724D01*
X122843014Y-86322848D01*
X122856115Y-86273953D01*
X122897579Y-86244919D01*
X122946623Y-86248704D01*
X123022450Y-86282185D01*
X123022457Y-86282187D01*
X123046702Y-86285000D01*
X123080000Y-86285000D01*
X123080000Y-85975000D01*
X123380000Y-85975000D01*
X123380000Y-86285000D01*
X123413298Y-86285000D01*
X123437542Y-86282187D01*
X123437549Y-86282185D01*
X123536727Y-86238393D01*
X123613393Y-86161727D01*
X123657185Y-86062549D01*
X123657187Y-86062542D01*
X123660000Y-86038297D01*
X123660000Y-85975000D01*
X123820000Y-85975000D01*
X123820000Y-86038297D01*
X123822812Y-86062542D01*
X123822814Y-86062549D01*
X123866606Y-86161727D01*
X123943272Y-86238393D01*
X124042450Y-86282185D01*
X124042457Y-86282187D01*
X124066702Y-86285000D01*
X124100000Y-86285000D01*
X124100000Y-85975000D01*
X123820000Y-85975000D01*
X123660000Y-85975000D01*
X123380000Y-85975000D01*
X123080000Y-85975000D01*
X123080000Y-85365000D01*
X123380000Y-85365000D01*
X123380000Y-85675000D01*
X123660000Y-85675000D01*
X123820000Y-85675000D01*
X124100000Y-85675000D01*
X124100000Y-85365000D01*
X124066702Y-85365000D01*
X124042457Y-85367812D01*
X124042450Y-85367814D01*
X123943272Y-85411606D01*
X123866606Y-85488272D01*
X123822814Y-85587450D01*
X123822812Y-85587457D01*
X123820000Y-85611702D01*
X123820000Y-85675000D01*
X123660000Y-85675000D01*
X123660000Y-85611702D01*
X123657187Y-85587457D01*
X123657185Y-85587450D01*
X123613393Y-85488272D01*
X123536727Y-85411606D01*
X123437549Y-85367814D01*
X123437542Y-85367812D01*
X123413298Y-85365000D01*
X123380000Y-85365000D01*
X123080000Y-85365000D01*
X123046702Y-85365000D01*
X123022457Y-85367812D01*
X123022450Y-85367814D01*
X122923272Y-85411606D01*
X122846606Y-85488272D01*
X122817967Y-85553132D01*
X122782916Y-85589652D01*
X122732591Y-85595097D01*
X122690539Y-85566920D01*
X122682578Y-85553131D01*
X122653813Y-85487984D01*
X122577016Y-85411187D01*
X122477662Y-85367318D01*
X122477663Y-85367318D01*
X122472804Y-85366754D01*
X122453373Y-85364500D01*
X122453369Y-85364500D01*
X122086627Y-85364500D01*
X122062339Y-85367317D01*
X122062337Y-85367318D01*
X122003458Y-85393315D01*
X121952952Y-85396690D01*
X121912093Y-85366810D01*
X121899999Y-85317657D01*
X121906255Y-85294881D01*
X121936697Y-85228226D01*
X121955133Y-85100000D01*
X121936697Y-84971774D01*
X121882882Y-84853937D01*
X121882880Y-84853935D01*
X121882880Y-84853934D01*
X121882879Y-84853932D01*
X121845336Y-84810605D01*
X121827271Y-84763320D01*
X121843827Y-84715485D01*
X121848936Y-84709820D01*
X121849139Y-84709616D01*
X121849141Y-84709616D01*
X121924616Y-84634141D01*
X121926616Y-84629610D01*
X121961665Y-84593091D01*
X121994311Y-84585500D01*
X122050588Y-84585500D01*
X122098154Y-84602813D01*
X122102914Y-84607174D01*
X122125267Y-84629527D01*
X122134469Y-84640739D01*
X122144400Y-84655602D01*
X122157340Y-84664248D01*
X122227260Y-84710966D01*
X122263139Y-84718103D01*
X122263138Y-84718103D01*
X122277994Y-84721057D01*
X122301876Y-84725808D01*
X122345152Y-84752067D01*
X122348967Y-84757271D01*
X122366496Y-84783504D01*
X122416278Y-84816767D01*
X122460180Y-84825500D01*
X122460181Y-84825500D01*
X123139819Y-84825500D01*
X123139820Y-84825500D01*
X123183722Y-84816767D01*
X123233504Y-84783504D01*
X123266767Y-84733722D01*
X123275500Y-84689820D01*
X123275500Y-84260180D01*
X123266767Y-84216278D01*
X123249650Y-84190661D01*
X123237620Y-84141493D01*
X123249652Y-84108437D01*
X123266296Y-84083527D01*
X123275000Y-84039773D01*
X123275000Y-83975000D01*
X122325001Y-83975000D01*
X122325001Y-84017270D01*
X122307688Y-84064836D01*
X122263851Y-84090146D01*
X122236565Y-84089848D01*
X122185001Y-84079592D01*
X122185000Y-84079592D01*
X122167475Y-84083078D01*
X122153038Y-84084500D01*
X121994311Y-84084500D01*
X121946745Y-84067187D01*
X121926616Y-84040390D01*
X121924616Y-84035859D01*
X121849141Y-83960384D01*
X121751498Y-83917270D01*
X121727623Y-83914500D01*
X121727619Y-83914500D01*
X121272377Y-83914500D01*
X121248503Y-83917269D01*
X121243925Y-83918515D01*
X121193482Y-83914296D01*
X121157553Y-83878639D01*
X121150500Y-83847110D01*
X121150500Y-83802889D01*
X121167813Y-83755323D01*
X121211650Y-83730013D01*
X121243929Y-83731485D01*
X121248496Y-83732727D01*
X121248502Y-83732730D01*
X121272377Y-83735500D01*
X121727622Y-83735499D01*
X121751498Y-83732730D01*
X121849141Y-83689616D01*
X121924616Y-83614141D01*
X121967730Y-83516498D01*
X121970500Y-83492623D01*
X121970499Y-83137378D01*
X121967730Y-83113502D01*
X121924616Y-83015859D01*
X121849141Y-82940384D01*
X121751498Y-82897270D01*
X121727623Y-82894500D01*
X121727619Y-82894500D01*
X121272377Y-82894500D01*
X121248503Y-82897269D01*
X121243925Y-82898515D01*
X121193482Y-82894296D01*
X121157553Y-82858639D01*
X121150500Y-82827110D01*
X121150500Y-82517548D01*
X121150753Y-82511436D01*
X121153814Y-82474500D01*
X121154132Y-82470656D01*
X121154132Y-82470654D01*
X121152764Y-82465251D01*
X121150500Y-82447088D01*
X121150500Y-82249500D01*
X121167813Y-82201934D01*
X121211650Y-82176624D01*
X121224500Y-82175500D01*
X121845500Y-82175500D01*
X121893066Y-82192813D01*
X121918376Y-82236650D01*
X121919500Y-82249500D01*
X121919500Y-82275974D01*
X121917925Y-82291159D01*
X121914957Y-82305311D01*
X121914957Y-82305316D01*
X121918932Y-82337202D01*
X121919500Y-82346355D01*
X121919500Y-82349048D01*
X121922833Y-82369021D01*
X121923273Y-82372042D01*
X121929425Y-82421387D01*
X121931176Y-82427265D01*
X121930834Y-82427366D01*
X121931580Y-82429695D01*
X121931916Y-82429580D01*
X121933907Y-82435380D01*
X121957567Y-82479100D01*
X121958967Y-82481820D01*
X121980801Y-82526483D01*
X121984366Y-82531476D01*
X121984075Y-82531683D01*
X121985533Y-82533639D01*
X121985816Y-82533420D01*
X121989582Y-82538258D01*
X122026141Y-82571913D01*
X122028349Y-82574031D01*
X122311463Y-82857145D01*
X122332855Y-82903021D01*
X122331715Y-82923908D01*
X122324500Y-82960180D01*
X122324500Y-83389819D01*
X122333233Y-83433723D01*
X122350348Y-83459338D01*
X122362379Y-83508506D01*
X122350349Y-83541560D01*
X122333703Y-83566473D01*
X122325000Y-83610226D01*
X122325000Y-83675000D01*
X123274999Y-83675000D01*
X123274999Y-83610221D01*
X123266298Y-83566474D01*
X123249651Y-83541560D01*
X123237620Y-83492391D01*
X123249651Y-83459338D01*
X123266767Y-83433722D01*
X123275500Y-83389820D01*
X123275500Y-82960180D01*
X123266767Y-82916278D01*
X123233504Y-82866496D01*
X123231618Y-82865236D01*
X123177662Y-82829184D01*
X123179411Y-82826566D01*
X123151812Y-82801277D01*
X123144019Y-82776262D01*
X123140573Y-82748607D01*
X123140571Y-82748604D01*
X123138822Y-82742725D01*
X123139166Y-82742622D01*
X123138422Y-82740300D01*
X123138082Y-82740417D01*
X123136091Y-82734617D01*
X123112431Y-82690897D01*
X123111031Y-82688177D01*
X123102472Y-82670670D01*
X123089198Y-82643516D01*
X123089193Y-82643511D01*
X123085632Y-82638522D01*
X123085923Y-82638313D01*
X123084465Y-82636358D01*
X123084183Y-82636579D01*
X123080421Y-82631745D01*
X123079474Y-82630873D01*
X123043832Y-82598062D01*
X123041649Y-82595967D01*
X122675532Y-82229850D01*
X122654140Y-82183974D01*
X122660163Y-82147634D01*
X122661345Y-82144958D01*
X122682579Y-82096866D01*
X122717628Y-82060348D01*
X122767954Y-82054901D01*
X122810006Y-82083077D01*
X122817967Y-82096867D01*
X122846606Y-82161727D01*
X122923272Y-82238393D01*
X123022450Y-82282185D01*
X123022457Y-82282187D01*
X123046702Y-82285000D01*
X123080000Y-82285000D01*
X123080000Y-81975000D01*
X123380000Y-81975000D01*
X123380000Y-82285000D01*
X123413298Y-82285000D01*
X123437542Y-82282187D01*
X123437549Y-82282185D01*
X123536727Y-82238393D01*
X123613393Y-82161727D01*
X123657185Y-82062549D01*
X123657187Y-82062542D01*
X123660000Y-82038297D01*
X123660000Y-81975000D01*
X123860000Y-81975000D01*
X123860000Y-82038297D01*
X123862812Y-82062542D01*
X123862814Y-82062549D01*
X123906606Y-82161727D01*
X123983272Y-82238393D01*
X124082450Y-82282185D01*
X124082457Y-82282187D01*
X124106702Y-82285000D01*
X124140000Y-82285000D01*
X124140000Y-81975000D01*
X123860000Y-81975000D01*
X123660000Y-81975000D01*
X123380000Y-81975000D01*
X123080000Y-81975000D01*
X123080000Y-81749000D01*
X123097313Y-81701434D01*
X123141150Y-81676124D01*
X123154000Y-81675000D01*
X123660000Y-81675000D01*
X123860000Y-81675000D01*
X124140000Y-81675000D01*
X124140000Y-81365000D01*
X124106702Y-81365000D01*
X124082457Y-81367812D01*
X124082450Y-81367814D01*
X123983272Y-81411606D01*
X123906606Y-81488272D01*
X123862814Y-81587450D01*
X123862812Y-81587457D01*
X123860000Y-81611702D01*
X123860000Y-81675000D01*
X123660000Y-81675000D01*
X123660000Y-81611702D01*
X123657187Y-81587457D01*
X123657185Y-81587450D01*
X123613393Y-81488272D01*
X123536727Y-81411606D01*
X123476639Y-81385074D01*
X123440119Y-81350024D01*
X123434673Y-81299698D01*
X123454202Y-81265056D01*
X124098175Y-80621084D01*
X124144051Y-80599693D01*
X124192945Y-80612794D01*
G37*
G04 #@! TD.AperFunction*
G04 #@! TA.AperFunction,Conductor*
G36*
X124058882Y-77317813D02*
G01*
X124084192Y-77361650D01*
X124075402Y-77411500D01*
X124041207Y-77442194D01*
X123963272Y-77476606D01*
X123886606Y-77553272D01*
X123842814Y-77652450D01*
X123842812Y-77652457D01*
X123840000Y-77676702D01*
X123840000Y-77740000D01*
X124346000Y-77740000D01*
X124393566Y-77757313D01*
X124418876Y-77801150D01*
X124420000Y-77814000D01*
X124420000Y-78350000D01*
X124453298Y-78350000D01*
X124477542Y-78347187D01*
X124477549Y-78347185D01*
X124576727Y-78303393D01*
X124653392Y-78226728D01*
X124682031Y-78161868D01*
X124717082Y-78125348D01*
X124767407Y-78119901D01*
X124809459Y-78148078D01*
X124817421Y-78161868D01*
X124839836Y-78212633D01*
X124843211Y-78263139D01*
X124824467Y-78294849D01*
X124483286Y-78636030D01*
X124471438Y-78645652D01*
X124459333Y-78653561D01*
X124459325Y-78653568D01*
X124439591Y-78678921D01*
X124433536Y-78685780D01*
X124431629Y-78687687D01*
X124431624Y-78687693D01*
X124419849Y-78704185D01*
X124418023Y-78706634D01*
X124387483Y-78745873D01*
X124384567Y-78751262D01*
X124384255Y-78751093D01*
X124383133Y-78753272D01*
X124383452Y-78753428D01*
X124380759Y-78758936D01*
X124366577Y-78806568D01*
X124365645Y-78809477D01*
X124348913Y-78858220D01*
X124320034Y-78895723D01*
X124266496Y-78931495D01*
X124266495Y-78931496D01*
X124233233Y-78981277D01*
X124224500Y-79025180D01*
X124224500Y-79454819D01*
X124233233Y-79498722D01*
X124247606Y-79520233D01*
X124259637Y-79569402D01*
X124237248Y-79614800D01*
X124190916Y-79635187D01*
X124181827Y-79634592D01*
X124175000Y-79634592D01*
X124077258Y-79654034D01*
X124062231Y-79664075D01*
X124054664Y-79669132D01*
X123994399Y-79709398D01*
X123994397Y-79709400D01*
X123984466Y-79724262D01*
X123975266Y-79735472D01*
X123795472Y-79915266D01*
X123784262Y-79924466D01*
X123769400Y-79934397D01*
X123769398Y-79934399D01*
X123737413Y-79982270D01*
X123714034Y-80017258D01*
X123694592Y-80115000D01*
X123698078Y-80132525D01*
X123699500Y-80146962D01*
X123699500Y-80280587D01*
X123682187Y-80328153D01*
X123677826Y-80332913D01*
X123401826Y-80608913D01*
X123355950Y-80630305D01*
X123307055Y-80617204D01*
X123278021Y-80575740D01*
X123275500Y-80556587D01*
X123275500Y-80325180D01*
X123272727Y-80311239D01*
X123266767Y-80281278D01*
X123249650Y-80255661D01*
X123237620Y-80206493D01*
X123249652Y-80173437D01*
X123266296Y-80148527D01*
X123275000Y-80104773D01*
X123275000Y-80040000D01*
X122325001Y-80040000D01*
X122325001Y-80104778D01*
X122325547Y-80107524D01*
X122317846Y-80157553D01*
X122279788Y-80190928D01*
X122229181Y-80192031D01*
X122211858Y-80183488D01*
X122182742Y-80164034D01*
X122085000Y-80144592D01*
X122067475Y-80148078D01*
X122053038Y-80149500D01*
X121994311Y-80149500D01*
X121946745Y-80132187D01*
X121926616Y-80105390D01*
X121924616Y-80100859D01*
X121849141Y-80025384D01*
X121751498Y-79982270D01*
X121727623Y-79979500D01*
X121727619Y-79979500D01*
X121272377Y-79979500D01*
X121248503Y-79982269D01*
X121243925Y-79983515D01*
X121193482Y-79979296D01*
X121157553Y-79943639D01*
X121150500Y-79912110D01*
X121150500Y-79867889D01*
X121167813Y-79820323D01*
X121211650Y-79795013D01*
X121243929Y-79796485D01*
X121248496Y-79797727D01*
X121248502Y-79797730D01*
X121272377Y-79800500D01*
X121727622Y-79800499D01*
X121751498Y-79797730D01*
X121849141Y-79754616D01*
X121924616Y-79679141D01*
X121967730Y-79581498D01*
X121970500Y-79557623D01*
X121970499Y-79202378D01*
X121967730Y-79178502D01*
X121924616Y-79080859D01*
X121849141Y-79005384D01*
X121751498Y-78962270D01*
X121727623Y-78959500D01*
X121727619Y-78959500D01*
X121329833Y-78959500D01*
X121282267Y-78942187D01*
X121256957Y-78898350D01*
X121265747Y-78848500D01*
X121277503Y-78833178D01*
X121788573Y-78322108D01*
X121834448Y-78300717D01*
X121883343Y-78313818D01*
X121912377Y-78355282D01*
X121914330Y-78365282D01*
X121918932Y-78402202D01*
X121919500Y-78411355D01*
X121919500Y-78414048D01*
X121922833Y-78434021D01*
X121923273Y-78437042D01*
X121929425Y-78486387D01*
X121931176Y-78492265D01*
X121930834Y-78492366D01*
X121931580Y-78494695D01*
X121931916Y-78494580D01*
X121933907Y-78500380D01*
X121957567Y-78544100D01*
X121958967Y-78546820D01*
X121980801Y-78591483D01*
X121984366Y-78596476D01*
X121984075Y-78596683D01*
X121985533Y-78598639D01*
X121985816Y-78598420D01*
X121989582Y-78603258D01*
X122026141Y-78636913D01*
X122028349Y-78639031D01*
X122311463Y-78922145D01*
X122332855Y-78968021D01*
X122331715Y-78988908D01*
X122324500Y-79025180D01*
X122324500Y-79454819D01*
X122333233Y-79498723D01*
X122350348Y-79524338D01*
X122362379Y-79573506D01*
X122350349Y-79606560D01*
X122333703Y-79631473D01*
X122325000Y-79675226D01*
X122325000Y-79740000D01*
X123274999Y-79740000D01*
X123274999Y-79675221D01*
X123266298Y-79631474D01*
X123249651Y-79606560D01*
X123237620Y-79557391D01*
X123249651Y-79524338D01*
X123266767Y-79498722D01*
X123275500Y-79454820D01*
X123275500Y-79025180D01*
X123266767Y-78981278D01*
X123233504Y-78931496D01*
X123183722Y-78898233D01*
X123183721Y-78898232D01*
X123177662Y-78894184D01*
X123179411Y-78891566D01*
X123151812Y-78866277D01*
X123144019Y-78841262D01*
X123140573Y-78813607D01*
X123140571Y-78813604D01*
X123138822Y-78807725D01*
X123139166Y-78807622D01*
X123138422Y-78805300D01*
X123138082Y-78805417D01*
X123136091Y-78799617D01*
X123112431Y-78755897D01*
X123111031Y-78753177D01*
X123102472Y-78735670D01*
X123089198Y-78708516D01*
X123089193Y-78708511D01*
X123085632Y-78703522D01*
X123085923Y-78703313D01*
X123084465Y-78701358D01*
X123084183Y-78701579D01*
X123080421Y-78696745D01*
X123070588Y-78687693D01*
X123043832Y-78663062D01*
X123041649Y-78660967D01*
X122675532Y-78294850D01*
X122654140Y-78248974D01*
X122660163Y-78212634D01*
X122682579Y-78161866D01*
X122717628Y-78125348D01*
X122767954Y-78119901D01*
X122810006Y-78148077D01*
X122817967Y-78161867D01*
X122846606Y-78226727D01*
X122923272Y-78303393D01*
X123022450Y-78347185D01*
X123022457Y-78347187D01*
X123046702Y-78350000D01*
X123080000Y-78350000D01*
X123080000Y-78040000D01*
X123380000Y-78040000D01*
X123380000Y-78350000D01*
X123413298Y-78350000D01*
X123437542Y-78347187D01*
X123437549Y-78347185D01*
X123536727Y-78303393D01*
X123613393Y-78226727D01*
X123657185Y-78127549D01*
X123657187Y-78127542D01*
X123660000Y-78103297D01*
X123660000Y-78040000D01*
X123840000Y-78040000D01*
X123840000Y-78103297D01*
X123842812Y-78127542D01*
X123842814Y-78127549D01*
X123886606Y-78226727D01*
X123963272Y-78303393D01*
X124062450Y-78347185D01*
X124062457Y-78347187D01*
X124086702Y-78350000D01*
X124120000Y-78350000D01*
X124120000Y-78040000D01*
X123840000Y-78040000D01*
X123660000Y-78040000D01*
X123380000Y-78040000D01*
X123080000Y-78040000D01*
X123080000Y-77814000D01*
X123097313Y-77766434D01*
X123141150Y-77741124D01*
X123154000Y-77740000D01*
X123660000Y-77740000D01*
X123660000Y-77676702D01*
X123657187Y-77652457D01*
X123657185Y-77652450D01*
X123613393Y-77553272D01*
X123536727Y-77476606D01*
X123458793Y-77442194D01*
X123422273Y-77407144D01*
X123416827Y-77356818D01*
X123445004Y-77314767D01*
X123488684Y-77300500D01*
X124011316Y-77300500D01*
X124058882Y-77317813D01*
G37*
G04 #@! TD.AperFunction*
M02*
