G04 #@! TF.GenerationSoftware,KiCad,Pcbnew,9.0.1*
G04 #@! TF.CreationDate,2025-05-17T15:06:54+00:00*
G04 #@! TF.ProjectId,usb-uart,7573622d-7561-4727-942e-6b696361645f,rev?*
G04 #@! TF.SameCoordinates,Original*
G04 #@! TF.FileFunction,Legend,Top*
G04 #@! TF.FilePolarity,Positive*
%FSLAX46Y46*%
G04 Gerber Fmt 4.6, Leading zero omitted, Abs format (unit mm)*
G04 Created by KiCad (PCBNEW 9.0.1) date 2025-05-17 15:06:54*
%MOMM*%
%LPD*%
G01*
G04 APERTURE LIST*
%ADD10C,0.150000*%
%ADD11C,0.160000*%
%ADD12C,0.120000*%
%ADD13R,0.650000X0.400000*%
%ADD14R,1.700000X1.700000*%
%ADD15O,1.700000X1.700000*%
%ADD16C,0.650000*%
%ADD17R,1.450000X0.600000*%
%ADD18R,1.450000X0.300000*%
%ADD19O,2.100000X1.000000*%
%ADD20O,1.600000X1.000000*%
%ADD21R,2.100000X2.100000*%
G04 APERTURE END LIST*
D10*
X128350000Y-81500000D02*
X127850000Y-82000000D01*
X109300000Y-90600000D02*
X107950000Y-90600000D01*
X128350000Y-84000000D02*
X127000000Y-84000000D01*
X109300000Y-92300000D02*
X108800000Y-91800000D01*
X107950000Y-90600000D02*
X108450000Y-90100000D01*
X127000000Y-84000000D02*
X127500000Y-83500000D01*
X107950000Y-92300000D02*
X109300000Y-92300000D01*
X107950000Y-90600000D02*
X108450000Y-91100000D01*
X127000000Y-84000000D02*
X127500000Y-84500000D01*
X128350000Y-81500000D02*
X127850000Y-81000000D01*
X127000000Y-81500000D02*
X128350000Y-81500000D01*
X109300000Y-92300000D02*
X108800000Y-92800000D01*
X126980952Y-78454819D02*
X127314285Y-79454819D01*
X127314285Y-79454819D02*
X127647618Y-78454819D01*
X127838095Y-78788152D02*
X128219047Y-78788152D01*
X127980952Y-78454819D02*
X127980952Y-79311961D01*
X127980952Y-79311961D02*
X128028571Y-79407200D01*
X128028571Y-79407200D02*
X128123809Y-79454819D01*
X128123809Y-79454819D02*
X128219047Y-79454819D01*
X111238095Y-77854819D02*
X110761905Y-77854819D01*
X110761905Y-77854819D02*
X110714286Y-78331009D01*
X110714286Y-78331009D02*
X110761905Y-78283390D01*
X110761905Y-78283390D02*
X110857143Y-78235771D01*
X110857143Y-78235771D02*
X111095238Y-78235771D01*
X111095238Y-78235771D02*
X111190476Y-78283390D01*
X111190476Y-78283390D02*
X111238095Y-78331009D01*
X111238095Y-78331009D02*
X111285714Y-78426247D01*
X111285714Y-78426247D02*
X111285714Y-78664342D01*
X111285714Y-78664342D02*
X111238095Y-78759580D01*
X111238095Y-78759580D02*
X111190476Y-78807200D01*
X111190476Y-78807200D02*
X111095238Y-78854819D01*
X111095238Y-78854819D02*
X110857143Y-78854819D01*
X110857143Y-78854819D02*
X110761905Y-78807200D01*
X110761905Y-78807200D02*
X110714286Y-78759580D01*
X112880952Y-77854819D02*
X113214285Y-78854819D01*
X113214285Y-78854819D02*
X113547618Y-77854819D01*
X113738095Y-78188152D02*
X114119047Y-78188152D01*
X113880952Y-77854819D02*
X113880952Y-78711961D01*
X113880952Y-78711961D02*
X113928571Y-78807200D01*
X113928571Y-78807200D02*
X114023809Y-78854819D01*
X114023809Y-78854819D02*
X114119047Y-78854819D01*
X127861904Y-86102438D02*
X127766666Y-86054819D01*
X127766666Y-86054819D02*
X127623809Y-86054819D01*
X127623809Y-86054819D02*
X127480952Y-86102438D01*
X127480952Y-86102438D02*
X127385714Y-86197676D01*
X127385714Y-86197676D02*
X127338095Y-86292914D01*
X127338095Y-86292914D02*
X127290476Y-86483390D01*
X127290476Y-86483390D02*
X127290476Y-86626247D01*
X127290476Y-86626247D02*
X127338095Y-86816723D01*
X127338095Y-86816723D02*
X127385714Y-86911961D01*
X127385714Y-86911961D02*
X127480952Y-87007200D01*
X127480952Y-87007200D02*
X127623809Y-87054819D01*
X127623809Y-87054819D02*
X127719047Y-87054819D01*
X127719047Y-87054819D02*
X127861904Y-87007200D01*
X127861904Y-87007200D02*
X127909523Y-86959580D01*
X127909523Y-86959580D02*
X127909523Y-86626247D01*
X127909523Y-86626247D02*
X127719047Y-86626247D01*
D11*
X101701028Y-89215213D02*
X102286742Y-89215213D01*
X102286742Y-89215213D02*
X102403885Y-89254260D01*
X102403885Y-89254260D02*
X102481981Y-89332356D01*
X102481981Y-89332356D02*
X102521028Y-89449498D01*
X102521028Y-89449498D02*
X102521028Y-89527594D01*
X102521028Y-88434260D02*
X102521028Y-88824736D01*
X102521028Y-88824736D02*
X101701028Y-88824736D01*
X102442933Y-87692355D02*
X102481981Y-87731403D01*
X102481981Y-87731403D02*
X102521028Y-87848545D01*
X102521028Y-87848545D02*
X102521028Y-87926641D01*
X102521028Y-87926641D02*
X102481981Y-88043784D01*
X102481981Y-88043784D02*
X102403885Y-88121879D01*
X102403885Y-88121879D02*
X102325790Y-88160926D01*
X102325790Y-88160926D02*
X102169600Y-88199974D01*
X102169600Y-88199974D02*
X102052457Y-88199974D01*
X102052457Y-88199974D02*
X101896266Y-88160926D01*
X101896266Y-88160926D02*
X101818171Y-88121879D01*
X101818171Y-88121879D02*
X101740076Y-88043784D01*
X101740076Y-88043784D02*
X101701028Y-87926641D01*
X101701028Y-87926641D02*
X101701028Y-87848545D01*
X101701028Y-87848545D02*
X101740076Y-87731403D01*
X101740076Y-87731403D02*
X101779123Y-87692355D01*
X101701028Y-87106641D02*
X102286742Y-87106641D01*
X102286742Y-87106641D02*
X102403885Y-87145688D01*
X102403885Y-87145688D02*
X102481981Y-87223784D01*
X102481981Y-87223784D02*
X102521028Y-87340926D01*
X102521028Y-87340926D02*
X102521028Y-87419022D01*
X102521028Y-86325688D02*
X102521028Y-86716164D01*
X102521028Y-86716164D02*
X101701028Y-86716164D01*
X102442933Y-85583783D02*
X102481981Y-85622831D01*
X102481981Y-85622831D02*
X102521028Y-85739973D01*
X102521028Y-85739973D02*
X102521028Y-85818069D01*
X102521028Y-85818069D02*
X102481981Y-85935212D01*
X102481981Y-85935212D02*
X102403885Y-86013307D01*
X102403885Y-86013307D02*
X102325790Y-86052354D01*
X102325790Y-86052354D02*
X102169600Y-86091402D01*
X102169600Y-86091402D02*
X102052457Y-86091402D01*
X102052457Y-86091402D02*
X101896266Y-86052354D01*
X101896266Y-86052354D02*
X101818171Y-86013307D01*
X101818171Y-86013307D02*
X101740076Y-85935212D01*
X101740076Y-85935212D02*
X101701028Y-85818069D01*
X101701028Y-85818069D02*
X101701028Y-85739973D01*
X101701028Y-85739973D02*
X101740076Y-85622831D01*
X101740076Y-85622831D02*
X101779123Y-85583783D01*
X101701028Y-84998069D02*
X102286742Y-84998069D01*
X102286742Y-84998069D02*
X102403885Y-85037116D01*
X102403885Y-85037116D02*
X102481981Y-85115212D01*
X102481981Y-85115212D02*
X102521028Y-85232354D01*
X102521028Y-85232354D02*
X102521028Y-85310450D01*
X102521028Y-84217116D02*
X102521028Y-84607592D01*
X102521028Y-84607592D02*
X101701028Y-84607592D01*
X102442933Y-83475211D02*
X102481981Y-83514259D01*
X102481981Y-83514259D02*
X102521028Y-83631401D01*
X102521028Y-83631401D02*
X102521028Y-83709497D01*
X102521028Y-83709497D02*
X102481981Y-83826640D01*
X102481981Y-83826640D02*
X102403885Y-83904735D01*
X102403885Y-83904735D02*
X102325790Y-83943782D01*
X102325790Y-83943782D02*
X102169600Y-83982830D01*
X102169600Y-83982830D02*
X102052457Y-83982830D01*
X102052457Y-83982830D02*
X101896266Y-83943782D01*
X101896266Y-83943782D02*
X101818171Y-83904735D01*
X101818171Y-83904735D02*
X101740076Y-83826640D01*
X101740076Y-83826640D02*
X101701028Y-83709497D01*
X101701028Y-83709497D02*
X101701028Y-83631401D01*
X101701028Y-83631401D02*
X101740076Y-83514259D01*
X101740076Y-83514259D02*
X101779123Y-83475211D01*
X101701028Y-82889497D02*
X102286742Y-82889497D01*
X102286742Y-82889497D02*
X102403885Y-82928544D01*
X102403885Y-82928544D02*
X102481981Y-83006640D01*
X102481981Y-83006640D02*
X102521028Y-83123782D01*
X102521028Y-83123782D02*
X102521028Y-83201878D01*
X102521028Y-82108544D02*
X102521028Y-82499020D01*
X102521028Y-82499020D02*
X101701028Y-82499020D01*
X102442933Y-81366639D02*
X102481981Y-81405687D01*
X102481981Y-81405687D02*
X102521028Y-81522829D01*
X102521028Y-81522829D02*
X102521028Y-81600925D01*
X102521028Y-81600925D02*
X102481981Y-81718068D01*
X102481981Y-81718068D02*
X102403885Y-81796163D01*
X102403885Y-81796163D02*
X102325790Y-81835210D01*
X102325790Y-81835210D02*
X102169600Y-81874258D01*
X102169600Y-81874258D02*
X102052457Y-81874258D01*
X102052457Y-81874258D02*
X101896266Y-81835210D01*
X101896266Y-81835210D02*
X101818171Y-81796163D01*
X101818171Y-81796163D02*
X101740076Y-81718068D01*
X101740076Y-81718068D02*
X101701028Y-81600925D01*
X101701028Y-81600925D02*
X101701028Y-81522829D01*
X101701028Y-81522829D02*
X101740076Y-81405687D01*
X101740076Y-81405687D02*
X101779123Y-81366639D01*
D10*
X127049641Y-89654819D02*
X126716308Y-89178628D01*
X126478213Y-89654819D02*
X126478213Y-88654819D01*
X126478213Y-88654819D02*
X126859165Y-88654819D01*
X126859165Y-88654819D02*
X126954403Y-88702438D01*
X126954403Y-88702438D02*
X127002022Y-88750057D01*
X127002022Y-88750057D02*
X127049641Y-88845295D01*
X127049641Y-88845295D02*
X127049641Y-88988152D01*
X127049641Y-88988152D02*
X127002022Y-89083390D01*
X127002022Y-89083390D02*
X126954403Y-89131009D01*
X126954403Y-89131009D02*
X126859165Y-89178628D01*
X126859165Y-89178628D02*
X126478213Y-89178628D01*
X127335356Y-88654819D02*
X127906784Y-88654819D01*
X127621070Y-89654819D02*
X127621070Y-88654819D01*
X128192499Y-89607200D02*
X128335356Y-89654819D01*
X128335356Y-89654819D02*
X128573451Y-89654819D01*
X128573451Y-89654819D02*
X128668689Y-89607200D01*
X128668689Y-89607200D02*
X128716308Y-89559580D01*
X128716308Y-89559580D02*
X128763927Y-89464342D01*
X128763927Y-89464342D02*
X128763927Y-89369104D01*
X128763927Y-89369104D02*
X128716308Y-89273866D01*
X128716308Y-89273866D02*
X128668689Y-89226247D01*
X128668689Y-89226247D02*
X128573451Y-89178628D01*
X128573451Y-89178628D02*
X128382975Y-89131009D01*
X128382975Y-89131009D02*
X128287737Y-89083390D01*
X128287737Y-89083390D02*
X128240118Y-89035771D01*
X128240118Y-89035771D02*
X128192499Y-88940533D01*
X128192499Y-88940533D02*
X128192499Y-88845295D01*
X128192499Y-88845295D02*
X128240118Y-88750057D01*
X128240118Y-88750057D02*
X128287737Y-88702438D01*
X128287737Y-88702438D02*
X128382975Y-88654819D01*
X128382975Y-88654819D02*
X128621070Y-88654819D01*
X128621070Y-88654819D02*
X128763927Y-88702438D01*
X118861904Y-77902438D02*
X118766666Y-77854819D01*
X118766666Y-77854819D02*
X118623809Y-77854819D01*
X118623809Y-77854819D02*
X118480952Y-77902438D01*
X118480952Y-77902438D02*
X118385714Y-77997676D01*
X118385714Y-77997676D02*
X118338095Y-78092914D01*
X118338095Y-78092914D02*
X118290476Y-78283390D01*
X118290476Y-78283390D02*
X118290476Y-78426247D01*
X118290476Y-78426247D02*
X118338095Y-78616723D01*
X118338095Y-78616723D02*
X118385714Y-78711961D01*
X118385714Y-78711961D02*
X118480952Y-78807200D01*
X118480952Y-78807200D02*
X118623809Y-78854819D01*
X118623809Y-78854819D02*
X118719047Y-78854819D01*
X118719047Y-78854819D02*
X118861904Y-78807200D01*
X118861904Y-78807200D02*
X118909523Y-78759580D01*
X118909523Y-78759580D02*
X118909523Y-78426247D01*
X118909523Y-78426247D02*
X118719047Y-78426247D01*
X115052381Y-77854819D02*
X115671428Y-77854819D01*
X115671428Y-77854819D02*
X115338095Y-78235771D01*
X115338095Y-78235771D02*
X115480952Y-78235771D01*
X115480952Y-78235771D02*
X115576190Y-78283390D01*
X115576190Y-78283390D02*
X115623809Y-78331009D01*
X115623809Y-78331009D02*
X115671428Y-78426247D01*
X115671428Y-78426247D02*
X115671428Y-78664342D01*
X115671428Y-78664342D02*
X115623809Y-78759580D01*
X115623809Y-78759580D02*
X115576190Y-78807200D01*
X115576190Y-78807200D02*
X115480952Y-78854819D01*
X115480952Y-78854819D02*
X115195238Y-78854819D01*
X115195238Y-78854819D02*
X115100000Y-78807200D01*
X115100000Y-78807200D02*
X115052381Y-78759580D01*
X116100000Y-78759580D02*
X116147619Y-78807200D01*
X116147619Y-78807200D02*
X116100000Y-78854819D01*
X116100000Y-78854819D02*
X116052381Y-78807200D01*
X116052381Y-78807200D02*
X116100000Y-78759580D01*
X116100000Y-78759580D02*
X116100000Y-78854819D01*
X116480952Y-77854819D02*
X117099999Y-77854819D01*
X117099999Y-77854819D02*
X116766666Y-78235771D01*
X116766666Y-78235771D02*
X116909523Y-78235771D01*
X116909523Y-78235771D02*
X117004761Y-78283390D01*
X117004761Y-78283390D02*
X117052380Y-78331009D01*
X117052380Y-78331009D02*
X117099999Y-78426247D01*
X117099999Y-78426247D02*
X117099999Y-78664342D01*
X117099999Y-78664342D02*
X117052380Y-78759580D01*
X117052380Y-78759580D02*
X117004761Y-78807200D01*
X117004761Y-78807200D02*
X116909523Y-78854819D01*
X116909523Y-78854819D02*
X116623809Y-78854819D01*
X116623809Y-78854819D02*
X116528571Y-78807200D01*
X116528571Y-78807200D02*
X116480952Y-78759580D01*
X127049641Y-92059580D02*
X127002022Y-92107200D01*
X127002022Y-92107200D02*
X126859165Y-92154819D01*
X126859165Y-92154819D02*
X126763927Y-92154819D01*
X126763927Y-92154819D02*
X126621070Y-92107200D01*
X126621070Y-92107200D02*
X126525832Y-92011961D01*
X126525832Y-92011961D02*
X126478213Y-91916723D01*
X126478213Y-91916723D02*
X126430594Y-91726247D01*
X126430594Y-91726247D02*
X126430594Y-91583390D01*
X126430594Y-91583390D02*
X126478213Y-91392914D01*
X126478213Y-91392914D02*
X126525832Y-91297676D01*
X126525832Y-91297676D02*
X126621070Y-91202438D01*
X126621070Y-91202438D02*
X126763927Y-91154819D01*
X126763927Y-91154819D02*
X126859165Y-91154819D01*
X126859165Y-91154819D02*
X127002022Y-91202438D01*
X127002022Y-91202438D02*
X127049641Y-91250057D01*
X127335356Y-91154819D02*
X127906784Y-91154819D01*
X127621070Y-92154819D02*
X127621070Y-91154819D01*
X128192499Y-92107200D02*
X128335356Y-92154819D01*
X128335356Y-92154819D02*
X128573451Y-92154819D01*
X128573451Y-92154819D02*
X128668689Y-92107200D01*
X128668689Y-92107200D02*
X128716308Y-92059580D01*
X128716308Y-92059580D02*
X128763927Y-91964342D01*
X128763927Y-91964342D02*
X128763927Y-91869104D01*
X128763927Y-91869104D02*
X128716308Y-91773866D01*
X128716308Y-91773866D02*
X128668689Y-91726247D01*
X128668689Y-91726247D02*
X128573451Y-91678628D01*
X128573451Y-91678628D02*
X128382975Y-91631009D01*
X128382975Y-91631009D02*
X128287737Y-91583390D01*
X128287737Y-91583390D02*
X128240118Y-91535771D01*
X128240118Y-91535771D02*
X128192499Y-91440533D01*
X128192499Y-91440533D02*
X128192499Y-91345295D01*
X128192499Y-91345295D02*
X128240118Y-91250057D01*
X128240118Y-91250057D02*
X128287737Y-91202438D01*
X128287737Y-91202438D02*
X128382975Y-91154819D01*
X128382975Y-91154819D02*
X128621070Y-91154819D01*
X128621070Y-91154819D02*
X128763927Y-91202438D01*
D12*
X113496359Y-90220000D02*
X113803641Y-90220000D01*
X113496359Y-90980000D02*
X113803641Y-90980000D01*
X124837836Y-86185000D02*
X124622164Y-86185000D01*
X124837836Y-85465000D02*
X124622164Y-85465000D01*
X123050000Y-92985000D02*
X124450000Y-92985000D01*
X124450000Y-90665000D02*
X122550000Y-90665000D01*
X112385000Y-91335000D02*
X112385000Y-89865000D01*
X112385000Y-89865000D02*
X110100000Y-89865000D01*
X110100000Y-91335000D02*
X112385000Y-91335000D01*
X124857836Y-78250000D02*
X124642164Y-78250000D01*
X124857836Y-77530000D02*
X124642164Y-77530000D01*
X121880000Y-91671359D02*
X121880000Y-91978641D01*
X121120000Y-91671359D02*
X121120000Y-91978641D01*
X112962742Y-86377500D02*
X113437258Y-86377500D01*
X112962742Y-87422500D02*
X113437258Y-87422500D01*
X107580000Y-90646359D02*
X107580000Y-90953641D01*
X106820000Y-90646359D02*
X106820000Y-90953641D01*
X123050000Y-81050000D02*
X124450000Y-81050000D01*
X124450000Y-78730000D02*
X122550000Y-78730000D01*
X122642164Y-85465000D02*
X122857836Y-85465000D01*
X122642164Y-86185000D02*
X122857836Y-86185000D01*
X128705000Y-77680000D02*
X129975000Y-77680000D01*
X128705000Y-78950000D02*
X128705000Y-77680000D01*
X131017929Y-81110000D02*
X131415000Y-81110000D01*
X131017929Y-81870000D02*
X131415000Y-81870000D01*
X131017929Y-83650000D02*
X131415000Y-83650000D01*
X131017929Y-84410000D02*
X131415000Y-84410000D01*
X131017929Y-86190000D02*
X131415000Y-86190000D01*
X131017929Y-86950000D02*
X131415000Y-86950000D01*
X131017929Y-88730000D02*
X131415000Y-88730000D01*
X131017929Y-89490000D02*
X131415000Y-89490000D01*
X131017929Y-91270000D02*
X131415000Y-91270000D01*
X131017929Y-92030000D02*
X131415000Y-92030000D01*
X131085000Y-78570000D02*
X131415000Y-78570000D01*
X131085000Y-79330000D02*
X131415000Y-79330000D01*
X131415000Y-77620000D02*
X131415000Y-92980000D01*
X131415000Y-80220000D02*
X134075000Y-80220000D01*
X131415000Y-82760000D02*
X134075000Y-82760000D01*
X131415000Y-85300000D02*
X134075000Y-85300000D01*
X131415000Y-87840000D02*
X134075000Y-87840000D01*
X131415000Y-90380000D02*
X134075000Y-90380000D01*
X131415000Y-92980000D02*
X134075000Y-92980000D01*
X134075000Y-77620000D02*
X131415000Y-77620000D01*
X134075000Y-78570000D02*
X140075000Y-78570000D01*
X134075000Y-78630000D02*
X140075000Y-78630000D01*
X134075000Y-78750000D02*
X140075000Y-78750000D01*
X134075000Y-78870000D02*
X140075000Y-78870000D01*
X134075000Y-78990000D02*
X140075000Y-78990000D01*
X134075000Y-79110000D02*
X140075000Y-79110000D01*
X134075000Y-79230000D02*
X140075000Y-79230000D01*
X134075000Y-81110000D02*
X140075000Y-81110000D01*
X134075000Y-83650000D02*
X140075000Y-83650000D01*
X134075000Y-86190000D02*
X140075000Y-86190000D01*
X134075000Y-88730000D02*
X140075000Y-88730000D01*
X134075000Y-91270000D02*
X140075000Y-91270000D01*
X134075000Y-92980000D02*
X134075000Y-77620000D01*
X140075000Y-78570000D02*
X140075000Y-79330000D01*
X140075000Y-79330000D02*
X134075000Y-79330000D01*
X140075000Y-81110000D02*
X140075000Y-81870000D01*
X140075000Y-81870000D02*
X134075000Y-81870000D01*
X140075000Y-83650000D02*
X140075000Y-84410000D01*
X140075000Y-84410000D02*
X134075000Y-84410000D01*
X140075000Y-86190000D02*
X140075000Y-86950000D01*
X140075000Y-86950000D02*
X134075000Y-86950000D01*
X140075000Y-88730000D02*
X140075000Y-89490000D01*
X140075000Y-89490000D02*
X134075000Y-89490000D01*
X140075000Y-91270000D02*
X140075000Y-92030000D01*
X140075000Y-92030000D02*
X134075000Y-92030000D01*
X125620000Y-91671359D02*
X125620000Y-91978641D01*
X123050000Y-88985000D02*
X124450000Y-88985000D01*
X124450000Y-86665000D02*
X122550000Y-86665000D01*
X124857836Y-90185000D02*
X124642164Y-90185000D01*
X124857836Y-89465000D02*
X124642164Y-89465000D01*
X126380000Y-83671359D02*
X126380000Y-83978641D01*
X125620000Y-83671359D02*
X125620000Y-83978641D01*
X123050000Y-84985000D02*
X124450000Y-84985000D01*
X124450000Y-82665000D02*
X122550000Y-82665000D01*
X122642164Y-77530000D02*
X122857836Y-77530000D01*
X122642164Y-78250000D02*
X122857836Y-78250000D01*
X118007836Y-83860000D02*
X117792164Y-83860000D01*
X118007836Y-83140000D02*
X117792164Y-83140000D01*
X112385000Y-93035000D02*
X112385000Y-91565000D01*
X112385000Y-91565000D02*
X110100000Y-91565000D01*
X110100000Y-93035000D02*
X112385000Y-93035000D01*
X113506359Y-91920000D02*
X113813641Y-91920000D01*
X113506359Y-92680000D02*
X113813641Y-92680000D01*
X122642164Y-89465000D02*
X122857836Y-89465000D01*
X122642164Y-90185000D02*
X122857836Y-90185000D01*
X122642164Y-81465000D02*
X122857836Y-81465000D01*
X122642164Y-82185000D02*
X122857836Y-82185000D01*
X124877836Y-82185000D02*
X124662164Y-82185000D01*
X124877836Y-81465000D02*
X124662164Y-81465000D01*
X121880000Y-79736359D02*
X121880000Y-80043641D01*
X121120000Y-79736359D02*
X121120000Y-80043641D01*
X108360000Y-82900378D02*
X108360000Y-83699622D01*
X107240000Y-82900378D02*
X107240000Y-83699622D01*
X110059420Y-83390000D02*
X110340580Y-83390000D01*
X110059420Y-84410000D02*
X110340580Y-84410000D01*
X109670000Y-82330000D02*
X109670000Y-81000000D01*
X111000000Y-82330000D02*
X109670000Y-82330000D01*
X112270000Y-82330000D02*
X119950000Y-82330000D01*
X112270000Y-82330000D02*
X112270000Y-79670000D01*
X119950000Y-82330000D02*
X119950000Y-79670000D01*
X112270000Y-79670000D02*
X119950000Y-79670000D01*
X111560000Y-88592164D02*
X111560000Y-88807836D01*
X110840000Y-88592164D02*
X110840000Y-88807836D01*
X103250000Y-80600000D02*
X101250000Y-80600000D01*
X99350000Y-80600000D02*
X97450000Y-80600000D01*
X97450000Y-80600000D02*
X97450000Y-90000000D01*
X103250000Y-90000000D02*
X101250000Y-90000000D01*
X99350000Y-90000000D02*
X97450000Y-90000000D01*
X121880000Y-83671359D02*
X121880000Y-83978641D01*
X121120000Y-83671359D02*
X121120000Y-83978641D01*
X117692164Y-90240000D02*
X117907836Y-90240000D01*
X117692164Y-90960000D02*
X117907836Y-90960000D01*
X121880000Y-87671359D02*
X121880000Y-87978641D01*
X121120000Y-87671359D02*
X121120000Y-87978641D01*
X112962742Y-87977500D02*
X113437258Y-87977500D01*
X112962742Y-89022500D02*
X113437258Y-89022500D01*
X115540000Y-84865000D02*
X116265000Y-84865000D01*
X119760000Y-85590000D02*
X119760000Y-84865000D01*
X115540000Y-85590000D02*
X115540000Y-84865000D01*
X119760000Y-88360000D02*
X119760000Y-89085000D01*
X115540000Y-88360000D02*
X115540000Y-89085000D01*
X119760000Y-89085000D02*
X119035000Y-89085000D01*
X115540000Y-89085000D02*
X116265000Y-89085000D01*
X110840000Y-86807836D02*
X110840000Y-86592164D01*
X111560000Y-86807836D02*
X111560000Y-86592164D01*
X126380000Y-79736359D02*
X126380000Y-80043641D01*
X125620000Y-79736359D02*
X125620000Y-80043641D01*
X108020000Y-80653641D02*
X108020000Y-80346359D01*
X108780000Y-80653641D02*
X108780000Y-80346359D01*
X107040000Y-80607836D02*
X107040000Y-80392164D01*
X107760000Y-80607836D02*
X107760000Y-80392164D01*
X126380000Y-87671359D02*
X126380000Y-87978641D01*
X125620000Y-87671359D02*
X125620000Y-87978641D01*
X107340000Y-87500000D02*
X107340000Y-89300000D01*
X107340000Y-87500000D02*
X107340000Y-86700000D01*
X110460000Y-87500000D02*
X110460000Y-88300000D01*
X110460000Y-87500000D02*
X110460000Y-86700000D01*
%LPC*%
G36*
G01*
X112870000Y-90785000D02*
X112870000Y-90415000D01*
G75*
G02*
X113005000Y-90280000I135000J0D01*
G01*
X113275000Y-90280000D01*
G75*
G02*
X113410000Y-90415000I0J-135000D01*
G01*
X113410000Y-90785000D01*
G75*
G02*
X113275000Y-90920000I-135000J0D01*
G01*
X113005000Y-90920000D01*
G75*
G02*
X112870000Y-90785000I0J135000D01*
G01*
G37*
G36*
G01*
X113890000Y-90785000D02*
X113890000Y-90415000D01*
G75*
G02*
X114025000Y-90280000I135000J0D01*
G01*
X114295000Y-90280000D01*
G75*
G02*
X114430000Y-90415000I0J-135000D01*
G01*
X114430000Y-90785000D01*
G75*
G02*
X114295000Y-90920000I-135000J0D01*
G01*
X114025000Y-90920000D01*
G75*
G02*
X113890000Y-90785000I0J135000D01*
G01*
G37*
G36*
G01*
X125490000Y-85655000D02*
X125490000Y-85995000D01*
G75*
G02*
X125350000Y-86135000I-140000J0D01*
G01*
X125070000Y-86135000D01*
G75*
G02*
X124930000Y-85995000I0J140000D01*
G01*
X124930000Y-85655000D01*
G75*
G02*
X125070000Y-85515000I140000J0D01*
G01*
X125350000Y-85515000D01*
G75*
G02*
X125490000Y-85655000I0J-140000D01*
G01*
G37*
G36*
G01*
X124530000Y-85655000D02*
X124530000Y-85995000D01*
G75*
G02*
X124390000Y-86135000I-140000J0D01*
G01*
X124110000Y-86135000D01*
G75*
G02*
X123970000Y-85995000I0J140000D01*
G01*
X123970000Y-85655000D01*
G75*
G02*
X124110000Y-85515000I140000J0D01*
G01*
X124390000Y-85515000D01*
G75*
G02*
X124530000Y-85655000I0J-140000D01*
G01*
G37*
D13*
X122800000Y-91175000D03*
X122800000Y-91825000D03*
X122800000Y-92475000D03*
X124700000Y-92475000D03*
X124700000Y-91825000D03*
X124700000Y-91175000D03*
G36*
G01*
X112125000Y-90343750D02*
X112125000Y-90856250D01*
G75*
G02*
X111906250Y-91075000I-218750J0D01*
G01*
X111468750Y-91075000D01*
G75*
G02*
X111250000Y-90856250I0J218750D01*
G01*
X111250000Y-90343750D01*
G75*
G02*
X111468750Y-90125000I218750J0D01*
G01*
X111906250Y-90125000D01*
G75*
G02*
X112125000Y-90343750I0J-218750D01*
G01*
G37*
G36*
G01*
X110550000Y-90343750D02*
X110550000Y-90856250D01*
G75*
G02*
X110331250Y-91075000I-218750J0D01*
G01*
X109893750Y-91075000D01*
G75*
G02*
X109675000Y-90856250I0J218750D01*
G01*
X109675000Y-90343750D01*
G75*
G02*
X109893750Y-90125000I218750J0D01*
G01*
X110331250Y-90125000D01*
G75*
G02*
X110550000Y-90343750I0J-218750D01*
G01*
G37*
G36*
G01*
X125510000Y-77720000D02*
X125510000Y-78060000D01*
G75*
G02*
X125370000Y-78200000I-140000J0D01*
G01*
X125090000Y-78200000D01*
G75*
G02*
X124950000Y-78060000I0J140000D01*
G01*
X124950000Y-77720000D01*
G75*
G02*
X125090000Y-77580000I140000J0D01*
G01*
X125370000Y-77580000D01*
G75*
G02*
X125510000Y-77720000I0J-140000D01*
G01*
G37*
G36*
G01*
X124550000Y-77720000D02*
X124550000Y-78060000D01*
G75*
G02*
X124410000Y-78200000I-140000J0D01*
G01*
X124130000Y-78200000D01*
G75*
G02*
X123990000Y-78060000I0J140000D01*
G01*
X123990000Y-77720000D01*
G75*
G02*
X124130000Y-77580000I140000J0D01*
G01*
X124410000Y-77580000D01*
G75*
G02*
X124550000Y-77720000I0J-140000D01*
G01*
G37*
G36*
G01*
X121315000Y-91045000D02*
X121685000Y-91045000D01*
G75*
G02*
X121820000Y-91180000I0J-135000D01*
G01*
X121820000Y-91450000D01*
G75*
G02*
X121685000Y-91585000I-135000J0D01*
G01*
X121315000Y-91585000D01*
G75*
G02*
X121180000Y-91450000I0J135000D01*
G01*
X121180000Y-91180000D01*
G75*
G02*
X121315000Y-91045000I135000J0D01*
G01*
G37*
G36*
G01*
X121315000Y-92065000D02*
X121685000Y-92065000D01*
G75*
G02*
X121820000Y-92200000I0J-135000D01*
G01*
X121820000Y-92470000D01*
G75*
G02*
X121685000Y-92605000I-135000J0D01*
G01*
X121315000Y-92605000D01*
G75*
G02*
X121180000Y-92470000I0J135000D01*
G01*
X121180000Y-92200000D01*
G75*
G02*
X121315000Y-92065000I135000J0D01*
G01*
G37*
G36*
G01*
X111975000Y-87175000D02*
X111975000Y-86625000D01*
G75*
G02*
X112175000Y-86425000I200000J0D01*
G01*
X112575000Y-86425000D01*
G75*
G02*
X112775000Y-86625000I0J-200000D01*
G01*
X112775000Y-87175000D01*
G75*
G02*
X112575000Y-87375000I-200000J0D01*
G01*
X112175000Y-87375000D01*
G75*
G02*
X111975000Y-87175000I0J200000D01*
G01*
G37*
G36*
G01*
X113625000Y-87175000D02*
X113625000Y-86625000D01*
G75*
G02*
X113825000Y-86425000I200000J0D01*
G01*
X114225000Y-86425000D01*
G75*
G02*
X114425000Y-86625000I0J-200000D01*
G01*
X114425000Y-87175000D01*
G75*
G02*
X114225000Y-87375000I-200000J0D01*
G01*
X113825000Y-87375000D01*
G75*
G02*
X113625000Y-87175000I0J200000D01*
G01*
G37*
G36*
G01*
X107015000Y-90020000D02*
X107385000Y-90020000D01*
G75*
G02*
X107520000Y-90155000I0J-135000D01*
G01*
X107520000Y-90425000D01*
G75*
G02*
X107385000Y-90560000I-135000J0D01*
G01*
X107015000Y-90560000D01*
G75*
G02*
X106880000Y-90425000I0J135000D01*
G01*
X106880000Y-90155000D01*
G75*
G02*
X107015000Y-90020000I135000J0D01*
G01*
G37*
G36*
G01*
X107015000Y-91040000D02*
X107385000Y-91040000D01*
G75*
G02*
X107520000Y-91175000I0J-135000D01*
G01*
X107520000Y-91445000D01*
G75*
G02*
X107385000Y-91580000I-135000J0D01*
G01*
X107015000Y-91580000D01*
G75*
G02*
X106880000Y-91445000I0J135000D01*
G01*
X106880000Y-91175000D01*
G75*
G02*
X107015000Y-91040000I135000J0D01*
G01*
G37*
X122800000Y-79240000D03*
X122800000Y-79890000D03*
X122800000Y-80540000D03*
X124700000Y-80540000D03*
X124700000Y-79890000D03*
X124700000Y-79240000D03*
G36*
G01*
X121990000Y-85995000D02*
X121990000Y-85655000D01*
G75*
G02*
X122130000Y-85515000I140000J0D01*
G01*
X122410000Y-85515000D01*
G75*
G02*
X122550000Y-85655000I0J-140000D01*
G01*
X122550000Y-85995000D01*
G75*
G02*
X122410000Y-86135000I-140000J0D01*
G01*
X122130000Y-86135000D01*
G75*
G02*
X121990000Y-85995000I0J140000D01*
G01*
G37*
G36*
G01*
X122950000Y-85995000D02*
X122950000Y-85655000D01*
G75*
G02*
X123090000Y-85515000I140000J0D01*
G01*
X123370000Y-85515000D01*
G75*
G02*
X123510000Y-85655000I0J-140000D01*
G01*
X123510000Y-85995000D01*
G75*
G02*
X123370000Y-86135000I-140000J0D01*
G01*
X123090000Y-86135000D01*
G75*
G02*
X122950000Y-85995000I0J140000D01*
G01*
G37*
D14*
X129975000Y-78950000D03*
D15*
X129975000Y-81490000D03*
X129975000Y-84030000D03*
X129975000Y-86570000D03*
X129975000Y-89110000D03*
X129975000Y-91650000D03*
G36*
G01*
X125815000Y-91045000D02*
X126185000Y-91045000D01*
G75*
G02*
X126320000Y-91180000I0J-135000D01*
G01*
X126320000Y-91450000D01*
G75*
G02*
X126185000Y-91585000I-135000J0D01*
G01*
X125815000Y-91585000D01*
G75*
G02*
X125680000Y-91450000I0J135000D01*
G01*
X125680000Y-91180000D01*
G75*
G02*
X125815000Y-91045000I135000J0D01*
G01*
G37*
G36*
G01*
X125815000Y-92065000D02*
X126185000Y-92065000D01*
G75*
G02*
X126320000Y-92200000I0J-135000D01*
G01*
X126320000Y-92470000D01*
G75*
G02*
X126185000Y-92605000I-135000J0D01*
G01*
X125815000Y-92605000D01*
G75*
G02*
X125680000Y-92470000I0J135000D01*
G01*
X125680000Y-92200000D01*
G75*
G02*
X125815000Y-92065000I135000J0D01*
G01*
G37*
D13*
X122800000Y-87175000D03*
X122800000Y-87825000D03*
X122800000Y-88475000D03*
X124700000Y-88475000D03*
X124700000Y-87825000D03*
X124700000Y-87175000D03*
G36*
G01*
X125510000Y-89655000D02*
X125510000Y-89995000D01*
G75*
G02*
X125370000Y-90135000I-140000J0D01*
G01*
X125090000Y-90135000D01*
G75*
G02*
X124950000Y-89995000I0J140000D01*
G01*
X124950000Y-89655000D01*
G75*
G02*
X125090000Y-89515000I140000J0D01*
G01*
X125370000Y-89515000D01*
G75*
G02*
X125510000Y-89655000I0J-140000D01*
G01*
G37*
G36*
G01*
X124550000Y-89655000D02*
X124550000Y-89995000D01*
G75*
G02*
X124410000Y-90135000I-140000J0D01*
G01*
X124130000Y-90135000D01*
G75*
G02*
X123990000Y-89995000I0J140000D01*
G01*
X123990000Y-89655000D01*
G75*
G02*
X124130000Y-89515000I140000J0D01*
G01*
X124410000Y-89515000D01*
G75*
G02*
X124550000Y-89655000I0J-140000D01*
G01*
G37*
G36*
G01*
X125815000Y-83045000D02*
X126185000Y-83045000D01*
G75*
G02*
X126320000Y-83180000I0J-135000D01*
G01*
X126320000Y-83450000D01*
G75*
G02*
X126185000Y-83585000I-135000J0D01*
G01*
X125815000Y-83585000D01*
G75*
G02*
X125680000Y-83450000I0J135000D01*
G01*
X125680000Y-83180000D01*
G75*
G02*
X125815000Y-83045000I135000J0D01*
G01*
G37*
G36*
G01*
X125815000Y-84065000D02*
X126185000Y-84065000D01*
G75*
G02*
X126320000Y-84200000I0J-135000D01*
G01*
X126320000Y-84470000D01*
G75*
G02*
X126185000Y-84605000I-135000J0D01*
G01*
X125815000Y-84605000D01*
G75*
G02*
X125680000Y-84470000I0J135000D01*
G01*
X125680000Y-84200000D01*
G75*
G02*
X125815000Y-84065000I135000J0D01*
G01*
G37*
X122800000Y-83175000D03*
X122800000Y-83825000D03*
X122800000Y-84475000D03*
X124700000Y-84475000D03*
X124700000Y-83825000D03*
X124700000Y-83175000D03*
G36*
G01*
X121990000Y-78060000D02*
X121990000Y-77720000D01*
G75*
G02*
X122130000Y-77580000I140000J0D01*
G01*
X122410000Y-77580000D01*
G75*
G02*
X122550000Y-77720000I0J-140000D01*
G01*
X122550000Y-78060000D01*
G75*
G02*
X122410000Y-78200000I-140000J0D01*
G01*
X122130000Y-78200000D01*
G75*
G02*
X121990000Y-78060000I0J140000D01*
G01*
G37*
G36*
G01*
X122950000Y-78060000D02*
X122950000Y-77720000D01*
G75*
G02*
X123090000Y-77580000I140000J0D01*
G01*
X123370000Y-77580000D01*
G75*
G02*
X123510000Y-77720000I0J-140000D01*
G01*
X123510000Y-78060000D01*
G75*
G02*
X123370000Y-78200000I-140000J0D01*
G01*
X123090000Y-78200000D01*
G75*
G02*
X122950000Y-78060000I0J140000D01*
G01*
G37*
G36*
G01*
X118660000Y-83330000D02*
X118660000Y-83670000D01*
G75*
G02*
X118520000Y-83810000I-140000J0D01*
G01*
X118240000Y-83810000D01*
G75*
G02*
X118100000Y-83670000I0J140000D01*
G01*
X118100000Y-83330000D01*
G75*
G02*
X118240000Y-83190000I140000J0D01*
G01*
X118520000Y-83190000D01*
G75*
G02*
X118660000Y-83330000I0J-140000D01*
G01*
G37*
G36*
G01*
X117700000Y-83330000D02*
X117700000Y-83670000D01*
G75*
G02*
X117560000Y-83810000I-140000J0D01*
G01*
X117280000Y-83810000D01*
G75*
G02*
X117140000Y-83670000I0J140000D01*
G01*
X117140000Y-83330000D01*
G75*
G02*
X117280000Y-83190000I140000J0D01*
G01*
X117560000Y-83190000D01*
G75*
G02*
X117700000Y-83330000I0J-140000D01*
G01*
G37*
G36*
G01*
X112125000Y-92043750D02*
X112125000Y-92556250D01*
G75*
G02*
X111906250Y-92775000I-218750J0D01*
G01*
X111468750Y-92775000D01*
G75*
G02*
X111250000Y-92556250I0J218750D01*
G01*
X111250000Y-92043750D01*
G75*
G02*
X111468750Y-91825000I218750J0D01*
G01*
X111906250Y-91825000D01*
G75*
G02*
X112125000Y-92043750I0J-218750D01*
G01*
G37*
G36*
G01*
X110550000Y-92043750D02*
X110550000Y-92556250D01*
G75*
G02*
X110331250Y-92775000I-218750J0D01*
G01*
X109893750Y-92775000D01*
G75*
G02*
X109675000Y-92556250I0J218750D01*
G01*
X109675000Y-92043750D01*
G75*
G02*
X109893750Y-91825000I218750J0D01*
G01*
X110331250Y-91825000D01*
G75*
G02*
X110550000Y-92043750I0J-218750D01*
G01*
G37*
G36*
G01*
X112880000Y-92485000D02*
X112880000Y-92115000D01*
G75*
G02*
X113015000Y-91980000I135000J0D01*
G01*
X113285000Y-91980000D01*
G75*
G02*
X113420000Y-92115000I0J-135000D01*
G01*
X113420000Y-92485000D01*
G75*
G02*
X113285000Y-92620000I-135000J0D01*
G01*
X113015000Y-92620000D01*
G75*
G02*
X112880000Y-92485000I0J135000D01*
G01*
G37*
G36*
G01*
X113900000Y-92485000D02*
X113900000Y-92115000D01*
G75*
G02*
X114035000Y-91980000I135000J0D01*
G01*
X114305000Y-91980000D01*
G75*
G02*
X114440000Y-92115000I0J-135000D01*
G01*
X114440000Y-92485000D01*
G75*
G02*
X114305000Y-92620000I-135000J0D01*
G01*
X114035000Y-92620000D01*
G75*
G02*
X113900000Y-92485000I0J135000D01*
G01*
G37*
G36*
G01*
X121990000Y-89995000D02*
X121990000Y-89655000D01*
G75*
G02*
X122130000Y-89515000I140000J0D01*
G01*
X122410000Y-89515000D01*
G75*
G02*
X122550000Y-89655000I0J-140000D01*
G01*
X122550000Y-89995000D01*
G75*
G02*
X122410000Y-90135000I-140000J0D01*
G01*
X122130000Y-90135000D01*
G75*
G02*
X121990000Y-89995000I0J140000D01*
G01*
G37*
G36*
G01*
X122950000Y-89995000D02*
X122950000Y-89655000D01*
G75*
G02*
X123090000Y-89515000I140000J0D01*
G01*
X123370000Y-89515000D01*
G75*
G02*
X123510000Y-89655000I0J-140000D01*
G01*
X123510000Y-89995000D01*
G75*
G02*
X123370000Y-90135000I-140000J0D01*
G01*
X123090000Y-90135000D01*
G75*
G02*
X122950000Y-89995000I0J140000D01*
G01*
G37*
G36*
G01*
X121990000Y-81995000D02*
X121990000Y-81655000D01*
G75*
G02*
X122130000Y-81515000I140000J0D01*
G01*
X122410000Y-81515000D01*
G75*
G02*
X122550000Y-81655000I0J-140000D01*
G01*
X122550000Y-81995000D01*
G75*
G02*
X122410000Y-82135000I-140000J0D01*
G01*
X122130000Y-82135000D01*
G75*
G02*
X121990000Y-81995000I0J140000D01*
G01*
G37*
G36*
G01*
X122950000Y-81995000D02*
X122950000Y-81655000D01*
G75*
G02*
X123090000Y-81515000I140000J0D01*
G01*
X123370000Y-81515000D01*
G75*
G02*
X123510000Y-81655000I0J-140000D01*
G01*
X123510000Y-81995000D01*
G75*
G02*
X123370000Y-82135000I-140000J0D01*
G01*
X123090000Y-82135000D01*
G75*
G02*
X122950000Y-81995000I0J140000D01*
G01*
G37*
G36*
G01*
X125530000Y-81655000D02*
X125530000Y-81995000D01*
G75*
G02*
X125390000Y-82135000I-140000J0D01*
G01*
X125110000Y-82135000D01*
G75*
G02*
X124970000Y-81995000I0J140000D01*
G01*
X124970000Y-81655000D01*
G75*
G02*
X125110000Y-81515000I140000J0D01*
G01*
X125390000Y-81515000D01*
G75*
G02*
X125530000Y-81655000I0J-140000D01*
G01*
G37*
G36*
G01*
X124570000Y-81655000D02*
X124570000Y-81995000D01*
G75*
G02*
X124430000Y-82135000I-140000J0D01*
G01*
X124150000Y-82135000D01*
G75*
G02*
X124010000Y-81995000I0J140000D01*
G01*
X124010000Y-81655000D01*
G75*
G02*
X124150000Y-81515000I140000J0D01*
G01*
X124430000Y-81515000D01*
G75*
G02*
X124570000Y-81655000I0J-140000D01*
G01*
G37*
G36*
G01*
X121315000Y-79110000D02*
X121685000Y-79110000D01*
G75*
G02*
X121820000Y-79245000I0J-135000D01*
G01*
X121820000Y-79515000D01*
G75*
G02*
X121685000Y-79650000I-135000J0D01*
G01*
X121315000Y-79650000D01*
G75*
G02*
X121180000Y-79515000I0J135000D01*
G01*
X121180000Y-79245000D01*
G75*
G02*
X121315000Y-79110000I135000J0D01*
G01*
G37*
G36*
G01*
X121315000Y-80130000D02*
X121685000Y-80130000D01*
G75*
G02*
X121820000Y-80265000I0J-135000D01*
G01*
X121820000Y-80535000D01*
G75*
G02*
X121685000Y-80670000I-135000J0D01*
G01*
X121315000Y-80670000D01*
G75*
G02*
X121180000Y-80535000I0J135000D01*
G01*
X121180000Y-80265000D01*
G75*
G02*
X121315000Y-80130000I135000J0D01*
G01*
G37*
G36*
G01*
X107418750Y-81800000D02*
X108181250Y-81800000D01*
G75*
G02*
X108400000Y-82018750I0J-218750D01*
G01*
X108400000Y-82456250D01*
G75*
G02*
X108181250Y-82675000I-218750J0D01*
G01*
X107418750Y-82675000D01*
G75*
G02*
X107200000Y-82456250I0J218750D01*
G01*
X107200000Y-82018750D01*
G75*
G02*
X107418750Y-81800000I218750J0D01*
G01*
G37*
G36*
G01*
X107418750Y-83925000D02*
X108181250Y-83925000D01*
G75*
G02*
X108400000Y-84143750I0J-218750D01*
G01*
X108400000Y-84581250D01*
G75*
G02*
X108181250Y-84800000I-218750J0D01*
G01*
X107418750Y-84800000D01*
G75*
G02*
X107200000Y-84581250I0J218750D01*
G01*
X107200000Y-84143750D01*
G75*
G02*
X107418750Y-83925000I218750J0D01*
G01*
G37*
G36*
G01*
X108975000Y-84150000D02*
X108975000Y-83650000D01*
G75*
G02*
X109200000Y-83425000I225000J0D01*
G01*
X109650000Y-83425000D01*
G75*
G02*
X109875000Y-83650000I0J-225000D01*
G01*
X109875000Y-84150000D01*
G75*
G02*
X109650000Y-84375000I-225000J0D01*
G01*
X109200000Y-84375000D01*
G75*
G02*
X108975000Y-84150000I0J225000D01*
G01*
G37*
G36*
G01*
X110525000Y-84150000D02*
X110525000Y-83650000D01*
G75*
G02*
X110750000Y-83425000I225000J0D01*
G01*
X111200000Y-83425000D01*
G75*
G02*
X111425000Y-83650000I0J-225000D01*
G01*
X111425000Y-84150000D01*
G75*
G02*
X111200000Y-84375000I-225000J0D01*
G01*
X110750000Y-84375000D01*
G75*
G02*
X110525000Y-84150000I0J225000D01*
G01*
G37*
D14*
X111000000Y-81000000D03*
D15*
X113540000Y-81000000D03*
X116080000Y-81000000D03*
X118620000Y-81000000D03*
G36*
G01*
X111030000Y-87940000D02*
X111370000Y-87940000D01*
G75*
G02*
X111510000Y-88080000I0J-140000D01*
G01*
X111510000Y-88360000D01*
G75*
G02*
X111370000Y-88500000I-140000J0D01*
G01*
X111030000Y-88500000D01*
G75*
G02*
X110890000Y-88360000I0J140000D01*
G01*
X110890000Y-88080000D01*
G75*
G02*
X111030000Y-87940000I140000J0D01*
G01*
G37*
G36*
G01*
X111030000Y-88900000D02*
X111370000Y-88900000D01*
G75*
G02*
X111510000Y-89040000I0J-140000D01*
G01*
X111510000Y-89320000D01*
G75*
G02*
X111370000Y-89460000I-140000J0D01*
G01*
X111030000Y-89460000D01*
G75*
G02*
X110890000Y-89320000I0J140000D01*
G01*
X110890000Y-89040000D01*
G75*
G02*
X111030000Y-88900000I140000J0D01*
G01*
G37*
D16*
X103950000Y-82410000D03*
X103950000Y-88190000D03*
D17*
X105395000Y-82050000D03*
X105395000Y-82850000D03*
D18*
X105395000Y-84050000D03*
X105395000Y-85050000D03*
X105395000Y-85550000D03*
X105395000Y-86550000D03*
D17*
X105395000Y-87750000D03*
X105395000Y-88550000D03*
X105395000Y-88550000D03*
X105395000Y-87750000D03*
D18*
X105395000Y-87050000D03*
X105395000Y-86050000D03*
X105395000Y-84550000D03*
X105395000Y-83550000D03*
D17*
X105395000Y-82850000D03*
X105395000Y-82050000D03*
D19*
X104480000Y-80980000D03*
D20*
X100300000Y-80980000D03*
D19*
X104480000Y-89620000D03*
D20*
X100300000Y-89620000D03*
G36*
G01*
X121315000Y-83045000D02*
X121685000Y-83045000D01*
G75*
G02*
X121820000Y-83180000I0J-135000D01*
G01*
X121820000Y-83450000D01*
G75*
G02*
X121685000Y-83585000I-135000J0D01*
G01*
X121315000Y-83585000D01*
G75*
G02*
X121180000Y-83450000I0J135000D01*
G01*
X121180000Y-83180000D01*
G75*
G02*
X121315000Y-83045000I135000J0D01*
G01*
G37*
G36*
G01*
X121315000Y-84065000D02*
X121685000Y-84065000D01*
G75*
G02*
X121820000Y-84200000I0J-135000D01*
G01*
X121820000Y-84470000D01*
G75*
G02*
X121685000Y-84605000I-135000J0D01*
G01*
X121315000Y-84605000D01*
G75*
G02*
X121180000Y-84470000I0J135000D01*
G01*
X121180000Y-84200000D01*
G75*
G02*
X121315000Y-84065000I135000J0D01*
G01*
G37*
G36*
G01*
X117040000Y-90770000D02*
X117040000Y-90430000D01*
G75*
G02*
X117180000Y-90290000I140000J0D01*
G01*
X117460000Y-90290000D01*
G75*
G02*
X117600000Y-90430000I0J-140000D01*
G01*
X117600000Y-90770000D01*
G75*
G02*
X117460000Y-90910000I-140000J0D01*
G01*
X117180000Y-90910000D01*
G75*
G02*
X117040000Y-90770000I0J140000D01*
G01*
G37*
G36*
G01*
X118000000Y-90770000D02*
X118000000Y-90430000D01*
G75*
G02*
X118140000Y-90290000I140000J0D01*
G01*
X118420000Y-90290000D01*
G75*
G02*
X118560000Y-90430000I0J-140000D01*
G01*
X118560000Y-90770000D01*
G75*
G02*
X118420000Y-90910000I-140000J0D01*
G01*
X118140000Y-90910000D01*
G75*
G02*
X118000000Y-90770000I0J140000D01*
G01*
G37*
G36*
G01*
X121315000Y-87045000D02*
X121685000Y-87045000D01*
G75*
G02*
X121820000Y-87180000I0J-135000D01*
G01*
X121820000Y-87450000D01*
G75*
G02*
X121685000Y-87585000I-135000J0D01*
G01*
X121315000Y-87585000D01*
G75*
G02*
X121180000Y-87450000I0J135000D01*
G01*
X121180000Y-87180000D01*
G75*
G02*
X121315000Y-87045000I135000J0D01*
G01*
G37*
G36*
G01*
X121315000Y-88065000D02*
X121685000Y-88065000D01*
G75*
G02*
X121820000Y-88200000I0J-135000D01*
G01*
X121820000Y-88470000D01*
G75*
G02*
X121685000Y-88605000I-135000J0D01*
G01*
X121315000Y-88605000D01*
G75*
G02*
X121180000Y-88470000I0J135000D01*
G01*
X121180000Y-88200000D01*
G75*
G02*
X121315000Y-88065000I135000J0D01*
G01*
G37*
G36*
G01*
X111975000Y-88775000D02*
X111975000Y-88225000D01*
G75*
G02*
X112175000Y-88025000I200000J0D01*
G01*
X112575000Y-88025000D01*
G75*
G02*
X112775000Y-88225000I0J-200000D01*
G01*
X112775000Y-88775000D01*
G75*
G02*
X112575000Y-88975000I-200000J0D01*
G01*
X112175000Y-88975000D01*
G75*
G02*
X111975000Y-88775000I0J200000D01*
G01*
G37*
G36*
G01*
X113625000Y-88775000D02*
X113625000Y-88225000D01*
G75*
G02*
X113825000Y-88025000I200000J0D01*
G01*
X114225000Y-88025000D01*
G75*
G02*
X114425000Y-88225000I0J-200000D01*
G01*
X114425000Y-88775000D01*
G75*
G02*
X114225000Y-88975000I-200000J0D01*
G01*
X113825000Y-88975000D01*
G75*
G02*
X113625000Y-88775000I0J200000D01*
G01*
G37*
G36*
G01*
X118550000Y-84600000D02*
X118700000Y-84600000D01*
G75*
G02*
X118775000Y-84675000I0J-75000D01*
G01*
X118775000Y-85375000D01*
G75*
G02*
X118700000Y-85450000I-75000J0D01*
G01*
X118550000Y-85450000D01*
G75*
G02*
X118475000Y-85375000I0J75000D01*
G01*
X118475000Y-84675000D01*
G75*
G02*
X118550000Y-84600000I75000J0D01*
G01*
G37*
G36*
G01*
X117900000Y-84600000D02*
X118050000Y-84600000D01*
G75*
G02*
X118125000Y-84675000I0J-75000D01*
G01*
X118125000Y-85375000D01*
G75*
G02*
X118050000Y-85450000I-75000J0D01*
G01*
X117900000Y-85450000D01*
G75*
G02*
X117825000Y-85375000I0J75000D01*
G01*
X117825000Y-84675000D01*
G75*
G02*
X117900000Y-84600000I75000J0D01*
G01*
G37*
G36*
G01*
X117250000Y-84600000D02*
X117400000Y-84600000D01*
G75*
G02*
X117475000Y-84675000I0J-75000D01*
G01*
X117475000Y-85375000D01*
G75*
G02*
X117400000Y-85450000I-75000J0D01*
G01*
X117250000Y-85450000D01*
G75*
G02*
X117175000Y-85375000I0J75000D01*
G01*
X117175000Y-84675000D01*
G75*
G02*
X117250000Y-84600000I75000J0D01*
G01*
G37*
G36*
G01*
X116600000Y-84600000D02*
X116750000Y-84600000D01*
G75*
G02*
X116825000Y-84675000I0J-75000D01*
G01*
X116825000Y-85375000D01*
G75*
G02*
X116750000Y-85450000I-75000J0D01*
G01*
X116600000Y-85450000D01*
G75*
G02*
X116525000Y-85375000I0J75000D01*
G01*
X116525000Y-84675000D01*
G75*
G02*
X116600000Y-84600000I75000J0D01*
G01*
G37*
G36*
G01*
X115350000Y-85850000D02*
X116050000Y-85850000D01*
G75*
G02*
X116125000Y-85925000I0J-75000D01*
G01*
X116125000Y-86075000D01*
G75*
G02*
X116050000Y-86150000I-75000J0D01*
G01*
X115350000Y-86150000D01*
G75*
G02*
X115275000Y-86075000I0J75000D01*
G01*
X115275000Y-85925000D01*
G75*
G02*
X115350000Y-85850000I75000J0D01*
G01*
G37*
G36*
G01*
X115350000Y-86500000D02*
X116050000Y-86500000D01*
G75*
G02*
X116125000Y-86575000I0J-75000D01*
G01*
X116125000Y-86725000D01*
G75*
G02*
X116050000Y-86800000I-75000J0D01*
G01*
X115350000Y-86800000D01*
G75*
G02*
X115275000Y-86725000I0J75000D01*
G01*
X115275000Y-86575000D01*
G75*
G02*
X115350000Y-86500000I75000J0D01*
G01*
G37*
G36*
G01*
X115350000Y-87150000D02*
X116050000Y-87150000D01*
G75*
G02*
X116125000Y-87225000I0J-75000D01*
G01*
X116125000Y-87375000D01*
G75*
G02*
X116050000Y-87450000I-75000J0D01*
G01*
X115350000Y-87450000D01*
G75*
G02*
X115275000Y-87375000I0J75000D01*
G01*
X115275000Y-87225000D01*
G75*
G02*
X115350000Y-87150000I75000J0D01*
G01*
G37*
G36*
G01*
X115350000Y-87800000D02*
X116050000Y-87800000D01*
G75*
G02*
X116125000Y-87875000I0J-75000D01*
G01*
X116125000Y-88025000D01*
G75*
G02*
X116050000Y-88100000I-75000J0D01*
G01*
X115350000Y-88100000D01*
G75*
G02*
X115275000Y-88025000I0J75000D01*
G01*
X115275000Y-87875000D01*
G75*
G02*
X115350000Y-87800000I75000J0D01*
G01*
G37*
G36*
G01*
X116600000Y-88500000D02*
X116750000Y-88500000D01*
G75*
G02*
X116825000Y-88575000I0J-75000D01*
G01*
X116825000Y-89275000D01*
G75*
G02*
X116750000Y-89350000I-75000J0D01*
G01*
X116600000Y-89350000D01*
G75*
G02*
X116525000Y-89275000I0J75000D01*
G01*
X116525000Y-88575000D01*
G75*
G02*
X116600000Y-88500000I75000J0D01*
G01*
G37*
G36*
G01*
X117250000Y-88500000D02*
X117400000Y-88500000D01*
G75*
G02*
X117475000Y-88575000I0J-75000D01*
G01*
X117475000Y-89275000D01*
G75*
G02*
X117400000Y-89350000I-75000J0D01*
G01*
X117250000Y-89350000D01*
G75*
G02*
X117175000Y-89275000I0J75000D01*
G01*
X117175000Y-88575000D01*
G75*
G02*
X117250000Y-88500000I75000J0D01*
G01*
G37*
G36*
G01*
X117900000Y-88500000D02*
X118050000Y-88500000D01*
G75*
G02*
X118125000Y-88575000I0J-75000D01*
G01*
X118125000Y-89275000D01*
G75*
G02*
X118050000Y-89350000I-75000J0D01*
G01*
X117900000Y-89350000D01*
G75*
G02*
X117825000Y-89275000I0J75000D01*
G01*
X117825000Y-88575000D01*
G75*
G02*
X117900000Y-88500000I75000J0D01*
G01*
G37*
G36*
G01*
X118550000Y-88500000D02*
X118700000Y-88500000D01*
G75*
G02*
X118775000Y-88575000I0J-75000D01*
G01*
X118775000Y-89275000D01*
G75*
G02*
X118700000Y-89350000I-75000J0D01*
G01*
X118550000Y-89350000D01*
G75*
G02*
X118475000Y-89275000I0J75000D01*
G01*
X118475000Y-88575000D01*
G75*
G02*
X118550000Y-88500000I75000J0D01*
G01*
G37*
G36*
G01*
X119250000Y-87800000D02*
X119950000Y-87800000D01*
G75*
G02*
X120025000Y-87875000I0J-75000D01*
G01*
X120025000Y-88025000D01*
G75*
G02*
X119950000Y-88100000I-75000J0D01*
G01*
X119250000Y-88100000D01*
G75*
G02*
X119175000Y-88025000I0J75000D01*
G01*
X119175000Y-87875000D01*
G75*
G02*
X119250000Y-87800000I75000J0D01*
G01*
G37*
G36*
G01*
X119250000Y-87150000D02*
X119950000Y-87150000D01*
G75*
G02*
X120025000Y-87225000I0J-75000D01*
G01*
X120025000Y-87375000D01*
G75*
G02*
X119950000Y-87450000I-75000J0D01*
G01*
X119250000Y-87450000D01*
G75*
G02*
X119175000Y-87375000I0J75000D01*
G01*
X119175000Y-87225000D01*
G75*
G02*
X119250000Y-87150000I75000J0D01*
G01*
G37*
G36*
G01*
X119250000Y-86500000D02*
X119950000Y-86500000D01*
G75*
G02*
X120025000Y-86575000I0J-75000D01*
G01*
X120025000Y-86725000D01*
G75*
G02*
X119950000Y-86800000I-75000J0D01*
G01*
X119250000Y-86800000D01*
G75*
G02*
X119175000Y-86725000I0J75000D01*
G01*
X119175000Y-86575000D01*
G75*
G02*
X119250000Y-86500000I75000J0D01*
G01*
G37*
G36*
G01*
X119250000Y-85850000D02*
X119950000Y-85850000D01*
G75*
G02*
X120025000Y-85925000I0J-75000D01*
G01*
X120025000Y-86075000D01*
G75*
G02*
X119950000Y-86150000I-75000J0D01*
G01*
X119250000Y-86150000D01*
G75*
G02*
X119175000Y-86075000I0J75000D01*
G01*
X119175000Y-85925000D01*
G75*
G02*
X119250000Y-85850000I75000J0D01*
G01*
G37*
D21*
X117650000Y-86975000D03*
G36*
G01*
X111370000Y-87460000D02*
X111030000Y-87460000D01*
G75*
G02*
X110890000Y-87320000I0J140000D01*
G01*
X110890000Y-87040000D01*
G75*
G02*
X111030000Y-86900000I140000J0D01*
G01*
X111370000Y-86900000D01*
G75*
G02*
X111510000Y-87040000I0J-140000D01*
G01*
X111510000Y-87320000D01*
G75*
G02*
X111370000Y-87460000I-140000J0D01*
G01*
G37*
G36*
G01*
X111370000Y-86500000D02*
X111030000Y-86500000D01*
G75*
G02*
X110890000Y-86360000I0J140000D01*
G01*
X110890000Y-86080000D01*
G75*
G02*
X111030000Y-85940000I140000J0D01*
G01*
X111370000Y-85940000D01*
G75*
G02*
X111510000Y-86080000I0J-140000D01*
G01*
X111510000Y-86360000D01*
G75*
G02*
X111370000Y-86500000I-140000J0D01*
G01*
G37*
G36*
G01*
X125815000Y-79110000D02*
X126185000Y-79110000D01*
G75*
G02*
X126320000Y-79245000I0J-135000D01*
G01*
X126320000Y-79515000D01*
G75*
G02*
X126185000Y-79650000I-135000J0D01*
G01*
X125815000Y-79650000D01*
G75*
G02*
X125680000Y-79515000I0J135000D01*
G01*
X125680000Y-79245000D01*
G75*
G02*
X125815000Y-79110000I135000J0D01*
G01*
G37*
G36*
G01*
X125815000Y-80130000D02*
X126185000Y-80130000D01*
G75*
G02*
X126320000Y-80265000I0J-135000D01*
G01*
X126320000Y-80535000D01*
G75*
G02*
X126185000Y-80670000I-135000J0D01*
G01*
X125815000Y-80670000D01*
G75*
G02*
X125680000Y-80535000I0J135000D01*
G01*
X125680000Y-80265000D01*
G75*
G02*
X125815000Y-80130000I135000J0D01*
G01*
G37*
G36*
G01*
X108585000Y-81280000D02*
X108215000Y-81280000D01*
G75*
G02*
X108080000Y-81145000I0J135000D01*
G01*
X108080000Y-80875000D01*
G75*
G02*
X108215000Y-80740000I135000J0D01*
G01*
X108585000Y-80740000D01*
G75*
G02*
X108720000Y-80875000I0J-135000D01*
G01*
X108720000Y-81145000D01*
G75*
G02*
X108585000Y-81280000I-135000J0D01*
G01*
G37*
G36*
G01*
X108585000Y-80260000D02*
X108215000Y-80260000D01*
G75*
G02*
X108080000Y-80125000I0J135000D01*
G01*
X108080000Y-79855000D01*
G75*
G02*
X108215000Y-79720000I135000J0D01*
G01*
X108585000Y-79720000D01*
G75*
G02*
X108720000Y-79855000I0J-135000D01*
G01*
X108720000Y-80125000D01*
G75*
G02*
X108585000Y-80260000I-135000J0D01*
G01*
G37*
G36*
G01*
X107570000Y-81260000D02*
X107230000Y-81260000D01*
G75*
G02*
X107090000Y-81120000I0J140000D01*
G01*
X107090000Y-80840000D01*
G75*
G02*
X107230000Y-80700000I140000J0D01*
G01*
X107570000Y-80700000D01*
G75*
G02*
X107710000Y-80840000I0J-140000D01*
G01*
X107710000Y-81120000D01*
G75*
G02*
X107570000Y-81260000I-140000J0D01*
G01*
G37*
G36*
G01*
X107570000Y-80300000D02*
X107230000Y-80300000D01*
G75*
G02*
X107090000Y-80160000I0J140000D01*
G01*
X107090000Y-79880000D01*
G75*
G02*
X107230000Y-79740000I140000J0D01*
G01*
X107570000Y-79740000D01*
G75*
G02*
X107710000Y-79880000I0J-140000D01*
G01*
X107710000Y-80160000D01*
G75*
G02*
X107570000Y-80300000I-140000J0D01*
G01*
G37*
G36*
G01*
X125815000Y-87045000D02*
X126185000Y-87045000D01*
G75*
G02*
X126320000Y-87180000I0J-135000D01*
G01*
X126320000Y-87450000D01*
G75*
G02*
X126185000Y-87585000I-135000J0D01*
G01*
X125815000Y-87585000D01*
G75*
G02*
X125680000Y-87450000I0J135000D01*
G01*
X125680000Y-87180000D01*
G75*
G02*
X125815000Y-87045000I135000J0D01*
G01*
G37*
G36*
G01*
X125815000Y-88065000D02*
X126185000Y-88065000D01*
G75*
G02*
X126320000Y-88200000I0J-135000D01*
G01*
X126320000Y-88470000D01*
G75*
G02*
X126185000Y-88605000I-135000J0D01*
G01*
X125815000Y-88605000D01*
G75*
G02*
X125680000Y-88470000I0J135000D01*
G01*
X125680000Y-88200000D01*
G75*
G02*
X125815000Y-88065000I135000J0D01*
G01*
G37*
G36*
G01*
X108100000Y-89300000D02*
X107800000Y-89300000D01*
G75*
G02*
X107650000Y-89150000I0J150000D01*
G01*
X107650000Y-88125000D01*
G75*
G02*
X107800000Y-87975000I150000J0D01*
G01*
X108100000Y-87975000D01*
G75*
G02*
X108250000Y-88125000I0J-150000D01*
G01*
X108250000Y-89150000D01*
G75*
G02*
X108100000Y-89300000I-150000J0D01*
G01*
G37*
G36*
G01*
X109050000Y-89300000D02*
X108750000Y-89300000D01*
G75*
G02*
X108600000Y-89150000I0J150000D01*
G01*
X108600000Y-88125000D01*
G75*
G02*
X108750000Y-87975000I150000J0D01*
G01*
X109050000Y-87975000D01*
G75*
G02*
X109200000Y-88125000I0J-150000D01*
G01*
X109200000Y-89150000D01*
G75*
G02*
X109050000Y-89300000I-150000J0D01*
G01*
G37*
G36*
G01*
X110000000Y-89300000D02*
X109700000Y-89300000D01*
G75*
G02*
X109550000Y-89150000I0J150000D01*
G01*
X109550000Y-88125000D01*
G75*
G02*
X109700000Y-87975000I150000J0D01*
G01*
X110000000Y-87975000D01*
G75*
G02*
X110150000Y-88125000I0J-150000D01*
G01*
X110150000Y-89150000D01*
G75*
G02*
X110000000Y-89300000I-150000J0D01*
G01*
G37*
G36*
G01*
X110000000Y-87025000D02*
X109700000Y-87025000D01*
G75*
G02*
X109550000Y-86875000I0J150000D01*
G01*
X109550000Y-85850000D01*
G75*
G02*
X109700000Y-85700000I150000J0D01*
G01*
X110000000Y-85700000D01*
G75*
G02*
X110150000Y-85850000I0J-150000D01*
G01*
X110150000Y-86875000D01*
G75*
G02*
X110000000Y-87025000I-150000J0D01*
G01*
G37*
G36*
G01*
X109050000Y-87025000D02*
X108750000Y-87025000D01*
G75*
G02*
X108600000Y-86875000I0J150000D01*
G01*
X108600000Y-85850000D01*
G75*
G02*
X108750000Y-85700000I150000J0D01*
G01*
X109050000Y-85700000D01*
G75*
G02*
X109200000Y-85850000I0J-150000D01*
G01*
X109200000Y-86875000D01*
G75*
G02*
X109050000Y-87025000I-150000J0D01*
G01*
G37*
G36*
G01*
X108100000Y-87025000D02*
X107800000Y-87025000D01*
G75*
G02*
X107650000Y-86875000I0J150000D01*
G01*
X107650000Y-85850000D01*
G75*
G02*
X107800000Y-85700000I150000J0D01*
G01*
X108100000Y-85700000D01*
G75*
G02*
X108250000Y-85850000I0J-150000D01*
G01*
X108250000Y-86875000D01*
G75*
G02*
X108100000Y-87025000I-150000J0D01*
G01*
G37*
%LPD*%
M02*
